<svg width="92" height="93" viewBox="0 0 92 93" fill="none" xmlns="http://www.w3.org/2000/svg">
<path d="M50.7944 92.0017C39.5197 91.966 28.9484 87.5628 21.0265 79.6007C13.1045 71.6387 8.74307 61.035 8.74307 49.7407C8.74342 41.8119 10.9704 34.0431 15.1695 27.3221C19.3686 20.6011 25.3704 15.199 32.4892 11.733C39.608 8.26711 47.5565 6.87719 55.4264 7.7221C63.2964 8.56702 70.7704 11.6127 76.9942 16.5111C84.2753 22.2601 89.4762 30.2399 91.8015 39.2301C92.0344 40.1447 92.0627 41.0995 91.8846 42.0264C91.7064 42.9532 91.3262 43.8293 90.7711 44.5919C90.2159 45.3545 89.4995 45.985 88.673 46.4382C87.8465 46.8915 86.9304 47.1564 85.9899 47.2139L68.3007 48.3003C67.9816 48.319 67.6562 48.3298 67.337 48.3298C60.2099 48.3298 54.0373 43.565 52.3268 36.7422C52.2896 36.587 52.2524 36.4395 52.2183 36.2874C51.4777 39.5713 49.8234 42.5778 47.4471 44.9586C45.0707 47.3393 42.0696 48.9968 38.7915 49.7391C42.0692 50.4818 45.0697 52.1397 47.4453 54.5208C49.8209 56.9018 51.4742 59.9085 52.2137 63.1924C52.2478 63.0372 52.2834 62.8819 52.3221 62.7376C54.0264 55.9085 60.2053 51.1499 67.3308 51.1499C67.6516 51.1499 67.9754 51.1608 68.2961 51.1794L85.9852 52.2659C86.9274 52.3243 87.845 52.5905 88.6725 53.0456C89.5 53.5006 90.2168 54.1332 90.7718 54.8981C91.3268 55.663 91.7062 56.5413 91.8829 57.4702C92.0596 58.3991 92.0291 59.3556 91.7938 60.2714C89.4655 69.3544 84.1857 77.4028 76.7868 83.1479C69.3879 88.893 60.2906 92.0079 50.9292 92.0017H50.7944Z" fill="#F4F4F4"/>
<path d="M50.6225 91.8543C39.3493 91.8201 28.7764 87.4154 20.856 79.4533C12.9357 71.4913 8.57109 60.8891 8.57109 49.5948C8.57151 41.6659 10.7986 33.897 14.9977 27.1758C19.1969 20.4547 25.1989 15.0525 32.3177 11.5864C39.4366 8.12034 47.3852 6.73027 55.2554 7.57505C63.1255 8.41983 70.5997 11.4654 76.8238 16.3637C84.105 22.1129 89.3055 30.0935 91.6296 39.0843C91.8621 39.999 91.8902 40.9539 91.7118 41.8808C91.5333 42.8077 91.1528 43.6836 90.5973 44.4461C90.0419 45.2086 89.3252 45.8389 88.4985 46.2919C87.6717 46.7448 86.7554 47.0093 85.8148 47.0665L68.1257 48.1529C67.8065 48.1731 67.4827 48.1824 67.162 48.1824C60.0349 48.1824 53.8637 43.4192 52.1517 36.5963C52.1145 36.4463 52.0789 36.2942 52.0448 36.14C51.3041 39.4241 49.6495 42.4308 47.2729 44.8115C44.8963 47.1923 41.8948 48.8497 38.6164 49.5917C41.8951 50.3332 44.8968 51.9904 47.2735 54.3713C49.6502 56.7521 51.3046 59.759 52.0448 63.0434C52.0789 62.8903 52.1145 62.7382 52.1517 62.5871C53.856 55.7658 60.0349 51.001 67.162 51.001C67.4811 51.001 67.8065 51.0103 68.1257 51.0305L85.8148 52.1169C86.7569 52.1752 87.6745 52.4412 88.5021 52.8961C89.3296 53.3509 90.0466 53.9834 90.6017 54.7481C91.1568 55.5128 91.5364 56.391 91.7133 57.3198C91.8902 58.2486 91.86 59.2051 91.6249 60.1209C89.2969 69.2047 84.0172 77.2541 76.618 83C69.2187 88.7459 60.1209 91.8616 50.7588 91.8558L50.6225 91.8543Z" fill="#F4F4F4"/>
<path d="M50.452 91.7083C39.1773 91.6726 28.606 87.2678 20.684 79.3073C12.7621 71.3468 8.39911 60.7416 8.39911 49.4473C8.39982 41.5185 10.6271 33.7498 14.8264 27.0288C19.0257 20.3079 25.0276 14.9059 32.1464 11.4401C39.2652 7.97419 47.2138 6.58426 55.0838 7.4291C62.9538 8.27394 70.4278 11.3195 76.6518 16.2177C83.9329 21.9664 89.1334 29.9464 91.4576 38.9367C91.6901 39.8515 91.7182 40.8065 91.5398 41.7335C91.3614 42.6604 90.9808 43.5365 90.4254 44.2991C89.87 45.0617 89.1533 45.6921 88.3266 46.1453C87.4999 46.5984 86.5835 46.8631 85.6428 46.9205L67.9552 48.0069C67.6361 48.0256 67.3107 48.0364 66.99 48.0364C59.8629 48.0364 53.6918 43.2716 51.9813 36.4488C51.9425 36.2936 51.9069 36.1384 51.8728 35.994C51.1321 39.2781 49.4776 42.2848 47.1009 44.6655C44.7243 47.0463 41.7229 48.7037 38.4444 49.4457C41.7229 50.1871 44.7245 51.8441 47.1012 54.2246C49.4779 56.6052 51.1323 59.6118 51.8728 62.8958C51.9069 62.7406 51.9425 62.5854 51.9813 62.4411C53.6856 55.612 59.8644 50.8534 66.99 50.8534C67.3107 50.8534 67.6345 50.8643 67.9552 50.8829L85.6428 51.9694C86.5851 52.0275 87.5029 52.2936 88.3306 52.7486C89.1582 53.2035 89.8753 53.8361 90.4305 54.601C90.9856 55.366 91.3652 56.2444 91.5419 57.1734C91.7187 58.1024 91.6883 59.059 91.4529 59.9749C89.1249 69.0586 83.8451 77.1077 76.4458 82.8534C69.0466 88.5991 59.9488 91.7144 50.5868 91.7083H50.452Z" fill="#F4F4F4"/>
<path d="M50.2801 91.5612C39.0069 91.5271 28.434 87.1224 20.5121 79.1603C12.5902 71.1982 8.2287 60.5946 8.2287 49.3018C8.22875 41.3729 10.4555 33.6039 14.6545 26.8826C18.8535 20.1614 24.8553 14.7591 31.9741 11.2929C39.0929 7.82683 47.0416 6.43678 54.9117 7.28163C62.7818 8.12649 70.2559 11.1722 76.4799 16.0706C83.761 21.8203 88.9618 29.8006 91.2872 38.7912C91.5197 39.706 91.5478 40.6609 91.3694 41.5877C91.191 42.5146 90.8104 43.3906 90.255 44.1531C89.6995 44.9156 88.9828 45.5459 88.1561 45.9988C87.3293 46.4518 86.413 46.7163 85.4724 46.7735L67.7833 47.8599C67.4641 47.8801 67.1387 47.8894 66.8196 47.8894C59.6925 47.8894 53.5198 43.1261 51.8093 36.3033C51.7721 36.1481 51.7349 36.0006 51.7008 35.847C50.9609 39.1323 49.3063 42.1402 46.929 44.5216C44.5516 46.9031 41.549 48.5606 38.2694 49.3018C41.5478 50.0435 44.5491 51.7009 46.9255 54.0817C49.302 56.4625 50.9561 59.4693 51.6962 62.7535C51.7303 62.5983 51.7675 62.4431 51.8046 62.2972C53.5089 55.4759 59.6878 50.711 66.8134 50.711C67.1341 50.711 67.4594 50.7204 67.7786 50.7405L85.4677 51.827C86.4097 51.8854 87.3272 52.1517 88.1545 52.6066C88.9819 53.0616 89.6986 53.694 90.2536 54.4587C90.8086 55.2234 91.188 56.1015 91.3648 57.0302C91.5416 57.9589 91.5114 58.9153 91.2763 59.8309C88.9482 68.9136 83.6689 76.9618 76.2707 82.7071C68.8724 88.4524 59.7759 91.568 50.4149 91.5628L50.2801 91.5612Z" fill="#F4F4F4"/>
<path d="M50.1081 91.4164C38.8349 91.3807 28.262 86.9759 20.3416 79.0154C12.4213 71.0549 8.0567 60.4481 8.0567 49.1538C8.05742 41.225 10.2847 33.4563 14.484 26.7354C18.6833 20.0145 24.6852 14.6125 31.804 11.1466C38.9228 7.68073 46.8714 6.2908 54.7414 7.13564C62.6113 7.98048 70.0854 11.026 76.3094 15.9242C83.5911 21.6737 88.7916 29.6549 91.1152 38.6464C91.3477 39.5612 91.3758 40.5162 91.1974 41.4431C91.0189 42.3701 90.6384 43.2461 90.083 44.0088C89.5275 44.7714 88.8109 45.4018 87.9842 45.8549C87.1574 46.3081 86.241 46.5728 85.3004 46.6302L67.6113 47.7166C67.2921 47.7352 66.9683 47.7461 66.6476 47.7461C59.5205 47.7461 53.3493 42.9813 51.6373 36.1584C51.6001 36.0032 51.5645 35.8558 51.5304 35.7037C50.7895 38.9877 49.1349 41.9943 46.7583 44.375C44.3817 46.7557 41.3804 48.4132 38.102 49.1554C41.3805 49.8967 44.3821 51.5537 46.7587 53.9343C49.1354 56.3148 50.7899 59.3214 51.5304 62.6055C51.5645 62.4503 51.6001 62.2951 51.6373 62.1508C53.3493 55.3217 59.5205 50.5631 66.6476 50.5631C66.9667 50.5631 67.2921 50.5739 67.6128 50.5926L85.3004 51.679C86.2427 51.7372 87.1605 52.0033 87.9882 52.4582C88.8158 52.9132 89.5329 53.5458 90.088 54.3107C90.6432 55.0756 91.0227 55.954 91.1995 56.883C91.3763 57.812 91.3459 58.7687 91.1105 59.6845C88.7822 68.7679 83.5022 76.8167 76.103 82.5621C68.7038 88.3075 59.6062 91.4226 50.2444 91.4164H50.1081Z" fill="#F4F4F4"/>
<path d="M49.9376 91.2616C38.6629 91.2275 28.0916 86.8228 20.1697 78.8607C12.2477 70.8986 7.88472 60.3012 7.88472 49.0084C7.88514 41.0795 10.1122 33.3105 14.3114 26.5894C18.5106 19.8683 24.5125 14.466 31.6314 11C38.7502 7.53391 46.6989 6.14385 54.569 6.98863C62.4391 7.83341 69.9133 10.8789 76.1375 15.7772C83.4186 21.5248 88.6205 29.5028 90.9478 38.4916C91.1801 39.4064 91.208 40.3612 91.0294 41.2879C90.8509 42.2147 90.4703 43.0905 89.9149 43.853C89.3595 44.6154 88.6429 45.2457 87.8164 45.6987C86.9898 46.1517 86.0735 46.4164 85.1331 46.4739L67.4439 47.5603C67.1248 47.5805 66.7994 47.5898 66.4787 47.5898C59.3516 47.5898 53.1805 42.8265 51.47 36.0037C51.4312 35.8485 51.3956 35.701 51.3615 35.5474C50.6213 38.8317 48.9669 41.8387 46.5902 44.2195C44.2135 46.6003 41.2118 48.2576 37.9331 48.9991C41.2118 49.7406 44.2135 51.3978 46.5902 53.7787C48.9669 56.1595 50.6213 59.1664 51.3615 62.4508C51.3956 62.2956 51.4312 62.1404 51.47 61.9945C53.1743 55.1732 59.3532 50.4083 66.4787 50.4083C66.7994 50.4083 67.1232 50.4177 67.4439 50.4378L85.1315 51.5243C86.0737 51.5825 86.9913 51.8486 87.8188 52.3034C88.6463 52.7583 89.3633 53.3907 89.9184 54.1555C90.4736 54.9202 90.8531 55.7984 91.03 56.7272C91.2069 57.656 91.1767 58.6125 90.9417 59.5282C88.615 68.6139 83.3353 76.6652 75.9353 82.4124C68.5353 88.1597 59.436 91.2758 50.0724 91.2694L49.9376 91.2616Z" fill="#F4F4F4"/>
<path d="M49.7657 91.1213C38.4925 91.0856 27.9196 86.6809 19.9977 78.7204C12.0758 70.7598 7.71429 60.1546 7.71429 48.8603C7.71464 40.9315 9.9416 33.1627 14.1407 26.4417C18.3398 19.7207 24.3416 14.3186 31.4604 10.8527C38.5792 7.38674 46.5277 5.99682 54.3976 6.84173C62.2676 7.68665 69.7416 10.7323 75.9655 15.6307C83.2465 21.3797 88.4474 29.3595 90.7728 38.3497C91.0053 39.2646 91.0334 40.2195 90.855 41.1465C90.6765 42.0734 90.296 42.9495 89.7406 43.7121C89.1851 44.4748 88.4685 45.1051 87.6418 45.5583C86.815 46.0114 85.8986 46.2761 84.958 46.3335L67.2689 47.42C66.9497 47.4386 66.6259 47.4495 66.3052 47.4495C59.1781 47.4495 53.0069 42.6846 51.2949 35.8618C51.2577 35.7066 51.2205 35.5514 51.1864 35.407C50.4461 38.6909 48.7918 41.6974 46.4154 44.0779C44.039 46.4584 41.0378 48.1155 37.7596 48.8572C41.0378 49.5994 44.0389 51.257 46.4152 53.6377C48.7915 56.0184 50.4458 59.025 51.1864 62.3089C51.2205 62.1537 51.2577 61.9985 51.2949 61.8541C52.9992 55.0251 59.1781 50.2664 66.3036 50.2664C66.6243 50.2664 66.9497 50.2773 67.2689 50.2959L84.958 51.3824C85.9001 51.4408 86.8178 51.707 87.6453 52.1621C88.4727 52.6171 89.1896 53.2497 89.7446 54.0146C90.2996 54.7795 90.679 55.6578 90.8557 56.5867C91.0323 57.5156 91.0019 58.4722 90.7666 59.3879C88.4391 68.4716 83.1596 76.5209 75.7606 82.2666C68.3616 88.0123 59.2639 91.1276 49.902 91.1213H49.7657Z" fill="#F4F4F4"/>
<path d="M49.5952 90.9744C38.3205 90.9403 27.7492 86.5355 19.8272 78.5734C11.9053 70.6114 7.54231 60.0077 7.54231 48.7149C7.54274 40.786 9.76978 33.0171 13.969 26.296C18.1681 19.5748 24.1701 14.1726 31.2889 10.7065C38.4078 7.24045 46.3565 5.85039 54.2266 6.69517C62.0967 7.53995 69.5709 10.5855 75.795 15.4838C83.0763 21.2331 88.2767 29.2136 90.6008 38.2044C90.8334 39.1191 90.8614 40.074 90.683 41.0009C90.5046 41.9278 90.124 42.8037 89.5686 43.5663C89.0131 44.3288 88.2964 44.959 87.4697 45.412C86.643 45.8649 85.7266 46.1294 84.786 46.1866L67.0984 47.2731C66.7777 47.2932 66.4539 47.3025 66.1332 47.3025C59.0061 47.3025 52.835 42.5393 51.1229 35.7164C51.0857 35.5664 51.0501 35.4143 51.016 35.2601C50.2758 38.5445 48.6214 41.5514 46.2447 43.9322C43.868 46.3131 40.8663 47.9703 37.5876 48.7118C40.8663 49.4533 43.868 51.1106 46.2447 53.4914C48.6214 55.8722 50.2758 58.8792 51.016 62.1635C51.0501 62.0093 51.0857 61.8572 51.1229 61.7072C52.8334 54.889 59.0061 50.132 66.1332 50.132C66.4524 50.132 66.7777 50.1413 67.0984 50.1614L84.786 51.2479C85.7281 51.3061 86.6458 51.5722 87.4733 52.0271C88.3008 52.4819 89.0178 53.1143 89.5729 53.8791C90.1281 54.6438 90.5076 55.522 90.6845 56.4508C90.8614 57.3796 90.8312 58.3361 90.5961 59.2519C88.2663 68.3329 82.9864 76.3793 75.5883 82.123C68.1902 87.8667 59.0946 90.9813 49.7347 90.9759L49.5952 90.9744Z" fill="#F4F4F4"/>
<path d="M49.4248 90.8279C38.1501 90.7922 27.5787 86.3875 19.6568 78.427C11.7349 70.4665 7.37033 59.8612 7.37033 48.5669C7.37104 40.6381 9.5983 32.8694 13.7976 26.1485C17.9969 19.4276 23.9989 14.0256 31.1177 10.5597C38.2365 7.09382 46.185 5.70389 54.055 6.54873C61.925 7.39356 69.399 10.4391 75.6231 15.3373C82.9041 21.0863 88.105 29.0661 90.4304 38.0563C90.6629 38.9712 90.691 39.9262 90.5126 40.8531C90.3341 41.7801 89.9536 42.6561 89.3982 43.4187C88.8427 44.1814 88.1261 44.8118 87.2993 45.2649C86.4726 45.718 85.5562 45.9828 84.6156 46.0401L66.9265 47.1266C66.6073 47.1452 66.2819 47.1561 65.9612 47.1561C58.8341 47.1561 52.663 42.3913 50.9525 35.5684C50.9137 35.4132 50.8781 35.2657 50.844 35.1136C50.1037 38.3975 48.4494 41.404 46.073 43.7845C43.6966 46.165 40.6954 47.8222 37.4172 48.5638C40.6953 49.3061 43.6964 50.9636 46.0728 53.3443C48.4491 55.7251 50.1034 58.7316 50.844 62.0155C50.8781 61.8603 50.9137 61.7051 50.9525 61.5607C52.6568 54.7317 58.8357 49.9731 65.9612 49.9731C66.2819 49.9731 66.6057 49.9839 66.9265 50.0026L84.6156 51.089C85.5577 51.1474 86.4754 51.4137 87.3029 51.8687C88.1303 52.3237 88.8472 52.9563 89.4022 53.7212C89.9572 54.4861 90.3366 55.3645 90.5133 56.2933C90.6899 57.2222 90.6595 58.1788 90.4242 59.0945C88.0964 68.1783 82.8166 76.2277 75.4173 81.9734C68.018 87.7191 58.9201 90.8343 49.558 90.8279H49.4248Z" fill="#F4F4F4"/>
<path d="M49.2513 90.6809C37.9781 90.6467 27.4052 86.242 19.4833 78.2799C11.5614 70.3179 7.19991 59.7142 7.19991 48.4245C7.19892 40.4948 9.42511 32.7248 13.624 26.0025C17.8229 19.2803 23.8251 13.8771 30.9446 10.4105C38.0641 6.94388 46.0136 5.55375 53.8844 6.39899C61.7553 7.24422 69.23 10.2907 75.4542 15.1903C82.7353 20.9399 87.9362 28.9202 90.2615 37.9109C90.4941 38.8261 90.5221 39.7815 90.3433 40.7088C90.1645 41.6361 89.7834 42.5124 89.2273 43.275C88.6711 44.0376 87.9537 44.6677 87.1262 45.1203C86.2987 45.5729 85.3816 45.8368 84.4405 45.8931L66.7514 46.9795C66.4322 46.9997 66.1084 47.009 65.7877 47.009C58.6606 47.009 52.4895 42.2458 50.7774 35.4229C50.7402 35.2729 50.7046 35.1208 50.6705 34.9666C49.9311 38.2515 48.2774 41.2591 45.9013 43.641C43.5252 46.0229 40.5239 47.6815 37.2452 48.4245C40.5238 49.1662 43.5254 50.8235 45.9021 53.2043C48.2788 55.5851 49.9332 58.5919 50.6736 61.8762C50.7077 61.7231 50.7433 61.571 50.7805 61.4199C52.4926 54.5986 58.6637 49.8338 65.7908 49.8338C66.1099 49.8338 66.4353 49.8431 66.7545 49.8633L84.4436 50.9497C85.3857 51.0084 86.3032 51.2748 87.1305 51.7299C87.9578 52.1851 88.6746 52.8177 89.2295 53.5825C89.7844 54.3473 90.1639 55.2255 90.3407 56.1543C90.5175 57.0831 90.4872 58.0395 90.2522 58.9552C87.9235 68.0376 82.6435 76.0853 75.2445 81.8296C67.8455 87.5738 58.7485 90.6879 49.3876 90.6809H49.2513Z" fill="#F4F4F4"/>
<path d="M49.0809 90.5349C37.8061 90.4992 27.2348 86.0945 19.3129 78.134C11.391 70.1735 7.02794 59.5683 7.02794 48.2693C7.02952 40.3409 9.25741 32.5728 13.4571 25.8526C17.6567 19.1323 23.6587 13.731 30.7774 10.2657C37.896 6.8004 45.8442 5.41087 53.7137 6.25588C61.5833 7.1009 69.0569 10.1464 75.2807 15.0443C82.5618 20.7931 87.7623 28.773 90.0864 37.7634C90.319 38.6782 90.347 39.6332 90.1686 40.5601C89.9902 41.4871 89.6097 42.3631 89.0542 43.1258C88.4988 43.8884 87.7821 44.5188 86.9554 44.9719C86.1287 45.4251 85.2123 45.6898 84.2716 45.7472L66.5841 46.8336C66.2634 46.8522 65.9395 46.8631 65.6188 46.8631C58.4917 46.8631 52.3206 42.0983 50.6101 35.2754C50.5714 35.1202 50.5357 34.965 50.5016 34.8207C49.7609 38.1045 48.1063 41.1107 45.7296 43.491C43.353 45.8712 40.3515 47.528 37.0733 48.2693C40.3537 49.0103 43.3572 50.6679 45.7354 53.0496C48.1135 55.4313 49.7689 58.4396 50.5094 61.7256C50.5435 61.5704 50.5791 61.4152 50.6178 61.2709C52.3221 54.4418 58.501 49.6832 65.6266 49.6832C65.9473 49.6832 66.2711 49.6941 66.5918 49.7127L84.2794 50.7991C85.2217 50.8573 86.1395 51.1234 86.9672 51.5784C87.7948 52.0333 88.5119 52.6659 89.067 53.4308C89.6222 54.1957 90.0017 55.0741 90.1785 56.0031C90.3553 56.9321 90.3249 57.8888 90.0895 58.8046C87.7601 67.8888 82.4787 75.9379 75.0781 81.683C67.6774 87.4281 58.5784 90.5424 49.2157 90.5349H49.0809Z" fill="#F4F4F4"/>
<path d="M48.9089 90.3873C37.6341 90.3531 27.0628 85.9484 19.1409 77.9863C11.219 70.0242 6.85595 59.4206 6.8575 48.1278C6.85813 40.1991 9.08531 32.4306 13.2845 25.7098C17.4837 18.989 23.4856 13.5871 30.6043 10.1214C37.723 6.65563 45.6714 5.26584 53.5412 6.11082C61.4111 6.95579 68.8849 10.0014 75.1087 14.8997C82.3894 20.6491 87.5902 28.6288 89.916 37.6188C90.1488 38.5336 90.1771 39.4887 89.9988 40.4158C89.8205 41.3428 89.44 42.219 88.8845 42.9817C88.329 43.7444 87.6122 44.3748 86.7854 44.8279C85.9585 45.2809 85.042 45.5455 84.1012 45.6026L66.4121 46.689C66.0929 46.7092 65.7675 46.7185 65.4484 46.7185C58.3213 46.7185 52.1486 41.9552 50.4381 35.1324C50.4009 34.9772 50.3637 34.822 50.3296 34.6761C49.5896 37.9602 47.9354 40.967 45.559 43.3478C43.1826 45.7287 40.1812 47.386 36.9028 48.1278C40.1812 48.8695 43.1826 50.5269 45.559 52.9077C47.9354 55.2885 49.5896 58.2953 50.3296 61.5795C50.3637 61.4243 50.3994 61.2691 50.4381 61.1232C52.1424 54.3019 58.3213 49.537 65.4468 49.537C65.7675 49.537 66.0914 49.5464 66.4121 49.5665L84.1012 50.653C85.0443 50.7114 85.9628 50.978 86.791 51.4336C87.6191 51.8893 88.3364 52.5228 88.8915 53.2888C89.4466 54.0547 89.8258 54.9342 90.0018 55.8641C90.1779 56.794 90.1464 57.7515 89.9098 58.6678C87.5796 67.7492 82.2988 75.7955 74.8997 81.5385C67.5006 87.2816 58.404 90.3947 49.0437 90.3873H48.9089Z" fill="#F4F4F4"/>
<path d="M48.7369 90.2418C37.4637 90.2061 26.8908 85.8013 18.9689 77.8408C11.047 69.8803 6.6855 59.2751 6.6855 47.9808C6.68468 40.0514 8.9108 32.2818 13.1094 25.5599C17.3081 18.838 23.3099 13.435 30.4288 9.96828C37.5478 6.5016 45.4968 5.11114 53.3673 5.95582C61.2378 6.80051 68.7124 9.84624 74.9367 14.745C82.2187 20.4931 87.4198 28.4733 89.744 37.464C89.9765 38.3788 90.0046 39.3338 89.8262 40.2608C89.6477 41.1877 89.2672 42.0638 88.7118 42.8264C88.1563 43.589 87.4397 44.2194 86.613 44.6725C85.7862 45.1257 84.8698 45.3904 83.9292 45.4478L66.2401 46.5342C65.9209 46.5529 65.5971 46.5637 65.2764 46.5637C58.1493 46.5637 51.9781 41.7989 50.2661 34.976C50.2289 34.8208 50.1933 34.6734 50.1592 34.5213C49.4182 37.8051 47.7636 40.8114 45.387 43.1919C43.0103 45.5724 40.0091 47.2295 36.7308 47.9714C40.0093 48.7134 43.0107 50.3709 45.3873 52.7516C47.7639 55.1324 49.4185 58.139 50.1592 61.4231C50.1933 61.2679 50.2289 61.1127 50.2661 60.9684C51.9781 54.1393 58.1493 49.3807 65.2764 49.3807C65.5955 49.3807 65.9209 49.3916 66.2401 49.4102L83.9292 50.4966C84.8727 50.5545 85.7917 50.8208 86.6203 51.2764C87.4489 51.732 88.1667 52.3656 88.722 53.1318C89.2774 53.8981 89.6566 54.7779 89.8325 55.7083C90.0083 56.6386 89.9765 57.5964 89.7393 58.513C87.4099 67.5956 82.1296 75.6434 74.7305 81.3881C67.3315 87.1328 58.2345 90.2476 48.8732 90.2418H48.7369Z" fill="#F4F4F4"/>
<path d="M48.5665 90.094C37.2917 90.0599 26.7204 85.6551 18.7985 77.6931C10.8766 69.731 6.50734 59.1335 6.50734 47.8345C6.50685 39.9045 8.73361 32.1343 12.9331 25.4121C17.1326 18.6899 23.1354 13.2869 30.2553 9.8206C37.3753 6.35432 45.3252 4.96465 53.1963 5.81042C61.0674 6.65619 68.5422 9.70328 74.7663 14.6034C82.047 20.3524 87.2474 28.3323 89.572 37.3225C89.8048 38.2373 89.8331 39.1924 89.6548 40.1194C89.4765 41.0465 89.096 41.9227 88.5405 42.6854C87.985 43.4481 87.2683 44.0785 86.4414 44.5315C85.6145 44.9846 84.698 45.2491 83.7572 45.3062L66.0697 46.3927C65.7489 46.4129 65.4251 46.4222 65.1044 46.4222C57.9773 46.4222 51.8062 41.6589 50.0957 34.8361C50.0569 34.6808 50.0213 34.5334 49.9872 34.3797C49.248 37.6639 47.5948 40.6709 45.2192 43.0523C42.8436 45.4336 39.843 47.0918 36.5651 47.8345C39.8437 48.576 42.8454 50.2333 45.2221 52.6141C47.5989 54.995 49.2532 58.0019 49.9934 61.2862C50.0275 61.131 50.0631 60.9758 50.1019 60.8299C51.8062 54.0086 57.9851 49.2438 65.1106 49.2438C65.4313 49.2438 65.7551 49.2531 66.0759 49.2733L83.7634 50.3597C84.7056 50.4182 85.6233 50.6845 86.4508 51.1395C87.2783 51.5945 87.9953 52.2271 88.5504 52.992C89.1055 53.7568 89.485 54.6351 89.6619 55.564C89.8388 56.4929 89.8086 57.4494 89.5736 58.3653C87.2446 67.4493 81.9636 75.4983 74.5631 81.2432C67.1626 86.9881 58.0638 90.102 48.7012 90.094H48.5665Z" fill="#F4F4F4"/>
<path d="M48.3945 89.9485C37.1197 89.9128 26.5484 85.508 18.6265 77.5475C10.7046 69.587 6.34309 58.9787 6.34309 47.6874C6.34344 39.7586 8.5704 31.9899 12.7695 25.2689C16.9686 18.5479 22.9705 13.1457 30.0892 9.67981C37.208 6.21389 45.1565 4.82397 53.0265 5.66888C60.8964 6.51379 68.3704 9.55946 74.5943 14.4578C81.8742 20.2073 87.074 28.1871 89.3985 37.1769C89.6318 38.0918 89.6605 39.047 89.4827 39.9743C89.3048 40.9016 88.9247 41.7782 88.3695 42.5413C87.8143 43.3044 87.0978 43.9353 86.271 44.3889C85.4442 44.8425 84.5277 45.1076 83.5868 45.1653L65.8977 46.2518C65.5785 46.2704 65.2531 46.2813 64.934 46.2813C57.8069 46.2813 51.6342 41.5164 49.9237 34.6936C49.8865 34.5384 49.8493 34.3832 49.8152 34.2388C49.0749 37.5227 47.4206 40.5292 45.0442 42.9097C42.6678 45.2902 39.6666 46.9474 36.3884 47.689C39.6666 48.4313 42.6677 50.0888 45.044 52.4695C47.4203 54.8503 49.0746 57.8568 49.8152 61.1407C49.8493 60.9855 49.8865 60.8303 49.9237 60.6859C51.628 53.8569 57.8069 49.0983 64.9324 49.0983C65.2531 49.0983 65.5785 49.1076 65.8977 49.1277L83.5868 50.2142C84.5294 50.2721 85.4475 50.5381 86.2755 50.993C87.1035 51.448 87.8209 52.0807 88.3762 52.8458C88.9316 53.611 89.3112 54.4896 89.4879 55.4189C89.6647 56.3482 89.6341 57.3052 89.3985 58.2213C87.0691 67.3043 81.7883 75.3525 74.3886 81.097C66.9888 86.8415 57.891 89.9556 48.5293 89.9485H48.3945Z" fill="#F4F4F4"/>
<path d="M48.2225 89.801C36.9493 89.7654 26.3764 85.3622 18.4561 77.4001C10.5357 69.438 6.17113 58.8344 6.17113 47.5416C6.17155 39.6126 8.39859 31.8437 12.5978 25.1226C16.797 18.4015 22.7989 12.9992 29.9178 9.53317C37.0366 6.06711 44.9853 4.67705 52.8554 5.52183C60.7255 6.36661 68.1997 9.41215 74.4239 14.3104C81.7046 20.0595 86.905 28.0393 89.2296 37.0295C89.4619 37.9441 89.4898 38.8989 89.3112 39.8255C89.1327 40.7522 88.7521 41.628 88.1967 42.3903C87.6412 43.1526 86.9246 43.7827 86.098 44.2356C85.2714 44.6885 84.3552 44.953 83.4148 45.0102L65.7257 46.0966C65.4065 46.1168 65.0827 46.1261 64.762 46.1261C57.6349 46.1261 51.4638 41.3628 49.7517 34.54C49.7145 34.3889 49.6789 34.2368 49.6448 34.0837C48.9045 37.368 47.25 40.3748 44.8733 42.7556C42.4967 45.1364 39.495 46.7937 36.2165 47.5354C39.4963 48.2776 42.4989 49.9362 44.8757 52.3188C47.2525 54.7014 48.9062 57.7103 49.6448 60.9964C49.6789 60.8422 49.7145 60.6901 49.7517 60.5401C51.4638 53.711 57.6349 48.954 64.762 48.954C65.0812 48.954 65.4065 48.9633 65.7257 48.9834L83.4148 50.0699C84.357 50.1284 85.2747 50.3946 86.1022 50.8497C86.9297 51.3047 87.6467 51.9372 88.2018 52.7021C88.7569 53.467 89.1364 54.3452 89.3133 55.2741C89.4902 56.203 89.46 57.1596 89.225 58.0754C86.8957 67.1578 81.6153 75.2054 74.2162 80.9496C66.817 86.6938 57.7199 89.8079 48.3588 89.801H48.2225Z" fill="#F4F4F4"/>
<path d="M48.0521 89.6551C36.7773 89.6194 26.206 85.2146 18.2841 77.2541C10.3622 69.2936 5.99915 58.6884 5.99915 47.394C5.99986 39.4652 8.22711 31.6965 12.4264 24.9756C16.6257 18.2547 22.6277 12.8527 29.7465 9.38684C36.8653 5.92097 44.8138 4.53104 52.6838 5.37588C60.5538 6.22071 68.0278 9.26624 74.2519 14.1645C81.5329 19.9135 86.7338 27.8933 89.0592 36.8835C89.2911 37.7983 89.3188 38.7531 89.1401 39.6798C88.9615 40.6065 88.5809 41.4824 88.0256 42.2448C87.4702 43.0073 86.7538 43.6377 85.9274 44.091C85.1009 44.5443 84.1848 44.8093 83.2444 44.8673L65.5553 45.9537C65.2361 45.9723 64.9107 45.9832 64.59 45.9832C57.4629 45.9832 51.2918 41.2184 49.5813 34.3955C49.5426 34.2403 49.5069 34.0929 49.4728 33.9408C48.7324 37.2249 47.0779 40.2315 44.7012 42.612C42.3245 44.9926 39.3229 46.6496 36.0445 47.3909C39.3227 48.1328 42.324 49.79 44.7006 52.1705C47.0772 54.5509 48.7319 57.5572 49.4728 60.8411C49.5069 60.6859 49.5426 60.5307 49.5813 60.3863C51.2856 53.5573 57.4645 48.7986 64.59 48.7986C64.9107 48.7986 65.2345 48.808 65.5553 48.8281L83.2428 49.9146C84.1851 49.9728 85.1029 50.2389 85.9306 50.6938C86.7583 51.1488 87.4753 51.7813 88.0305 52.5463C88.5857 53.3112 88.9652 54.1896 89.1419 55.1186C89.3187 56.0476 89.2883 57.0042 89.053 57.9201C86.7252 67.0043 81.4452 75.054 74.0457 80.8C66.6461 86.546 57.5478 89.6614 48.1853 89.6551H48.0521Z" fill="#F4F4F4"/>
<path d="M47.8754 89.5075C36.6022 89.4718 26.0294 85.0686 18.1075 77.1066C10.1855 69.1445 5.82872 58.5409 5.82872 47.2481C5.82877 39.3192 8.05552 31.5502 12.2545 24.8289C16.4535 18.1077 22.4553 12.7054 29.5741 9.23924C36.693 5.77312 44.6416 4.38307 52.5117 5.22792C60.3818 6.07278 67.8559 9.11846 74.0799 14.0169C81.3606 19.7663 86.5614 27.7459 88.8872 36.736C89.12 37.6508 89.1483 38.6059 88.97 39.5329C88.7917 40.46 88.4112 41.3362 87.8557 42.0989C87.3002 42.8616 86.5834 43.492 85.7566 43.945C84.9297 44.3981 84.0132 44.6626 83.0724 44.7198L65.3833 45.8062C65.0641 45.8264 64.7403 45.8357 64.4196 45.8357C57.2925 45.8357 51.1214 41.0724 49.4093 34.2496C49.3721 34.0944 49.3349 33.9469 49.3009 33.7933C48.5608 37.0774 46.9066 40.0842 44.5302 42.465C42.1538 44.8459 39.1524 46.5032 35.874 47.245C39.1524 47.9867 42.1538 49.6441 44.5302 52.0249C46.9066 54.4057 48.5608 57.4125 49.3009 60.6967C49.3349 60.5415 49.3721 60.3863 49.4093 60.2404C51.1136 53.4191 57.2925 48.6542 64.418 48.6542C64.7387 48.6542 65.0641 48.6635 65.3833 48.6837L83.0724 49.7702C84.0146 49.8286 84.9322 50.0948 85.7597 50.5499C86.5871 51.0049 87.304 51.6375 87.859 52.4024C88.414 53.1673 88.7934 54.0456 88.9701 54.9745C89.1467 55.9034 89.1163 56.8599 88.881 57.7757C86.5534 66.8592 81.2739 74.9083 73.8749 80.6538C66.4758 86.3992 57.3782 89.5142 48.0164 89.5075H47.8754Z" fill="#F4F4F4"/>
<path d="M47.7081 89.3614C36.4349 89.3257 25.862 84.9209 17.9417 76.9604C10.0213 68.9999 5.65674 58.3947 5.65674 47.1003C5.65814 39.1724 7.8856 31.4046 12.0847 24.6845C16.2837 17.9644 22.2851 12.563 29.403 9.09729C36.521 5.63159 44.4686 4.24137 52.3379 5.08546C60.2071 5.92955 67.6807 8.97392 73.9048 13.8708C81.1859 19.6195 86.3864 27.5995 88.7105 36.5898C88.9431 37.5046 88.9712 38.4596 88.7927 39.3866C88.6143 40.3135 88.2338 41.1896 87.6784 41.9522C87.1229 42.7148 86.4063 43.3452 85.5795 43.7983C84.7528 44.2515 83.8364 44.5162 82.8958 44.5736L65.2082 45.66C64.8875 45.6787 64.5637 45.6895 64.2429 45.6895C57.1159 45.6895 50.9447 40.9247 49.2327 34.1018C49.1955 33.9466 49.1599 33.7914 49.1258 33.6471C48.3853 36.9312 46.7308 39.9378 44.3541 42.3183C41.9774 44.6989 38.9759 46.3559 35.6974 47.0972C38.9758 47.8392 41.9773 49.4967 44.3539 51.8774C46.7305 54.2582 48.3851 57.2648 49.1258 60.5489C49.1599 60.3937 49.1955 60.2385 49.2327 60.0942C50.937 53.2651 57.1159 48.5065 64.2429 48.5065C64.5621 48.5065 64.8875 48.5158 65.2082 48.536L82.8958 49.6224C83.8381 49.6806 84.7559 49.9467 85.5835 50.4017C86.4112 50.8566 87.1283 51.4892 87.6834 52.2541C88.2386 53.0191 88.6181 53.8974 88.7949 54.8264C88.9716 55.7554 88.9413 56.7121 88.7059 57.628C86.3776 66.7106 81.0983 74.7589 73.7001 80.5044C66.302 86.2499 57.2055 89.3659 47.8444 89.3614H47.7081Z" fill="#F4F4F4"/>
<path d="M47.5377 89.2142C36.2629 89.1785 25.6916 84.7753 17.7697 76.8132C9.84777 68.8511 5.48476 58.2475 5.48476 46.9547C5.48518 39.0257 7.71222 31.2568 11.9114 24.5357C16.1106 17.8146 22.1125 12.4123 29.2314 8.94626C36.3503 5.4802 44.2989 4.09014 52.169 4.93492C60.0392 5.7797 67.5133 8.82524 73.7375 13.7235C81.0182 19.4729 86.219 27.4526 88.5448 36.4426C88.777 37.3569 88.805 38.3113 88.6268 39.2377C88.4486 40.1641 88.0686 41.0398 87.5139 41.8022C86.9592 42.5646 86.2434 43.1951 85.4176 43.6487C84.5917 44.1023 83.6762 44.3678 82.7362 44.4264L65.0471 45.5128C64.7279 45.533 64.4025 45.5423 64.0818 45.5423C56.9547 45.5423 50.7836 40.779 49.0731 33.9562C49.0344 33.801 48.9987 33.6458 48.9647 33.4999C48.2246 36.784 46.5704 39.7908 44.194 42.1716C41.8176 44.5525 38.8162 46.2098 35.5378 46.9516C38.8158 47.6943 41.8164 49.3525 44.192 51.7339C46.5676 54.1152 48.2208 57.1222 48.96 60.4064C48.9941 60.2512 49.0297 60.096 49.0685 59.9501C50.7728 53.1288 56.9516 48.3639 64.0772 48.3639C64.3979 48.3639 64.7217 48.3733 65.0424 48.3934L82.7316 49.4799C83.6737 49.5383 84.5913 49.8045 85.4188 50.2596C86.2463 50.7146 86.9632 51.3472 87.5182 52.1121C88.0732 52.877 88.4525 53.7553 88.6292 54.6842C88.8059 55.6131 88.7755 56.5697 88.5401 57.4854C86.2117 66.5687 80.9313 74.6174 73.5318 80.3622C66.1322 86.1071 57.0343 89.2214 47.6725 89.2142H47.5377Z" fill="#F4F4F4"/>
<path d="M47.3657 89.0686C36.0925 89.0329 25.5196 84.6281 17.5977 76.6676C9.6758 68.7071 5.31433 58.1019 5.31433 46.8076C5.31467 38.8788 7.54164 31.11 11.7407 24.389C15.9398 17.668 21.9417 12.2659 29.0605 8.79993C36.1792 5.33401 44.1277 3.94408 51.9977 4.789C59.8677 5.63391 67.3416 8.67958 73.5655 13.578C80.8466 19.327 86.0475 27.3068 88.3728 36.297C88.6054 37.2118 88.6334 38.1668 88.455 39.0938C88.2766 40.0207 87.8961 40.8968 87.3406 41.6594C86.7852 42.422 86.0685 43.0524 85.2418 43.5056C84.4151 43.9587 83.4987 44.2234 82.558 44.2808L64.8689 45.3672C64.5497 45.3859 64.2259 45.3967 63.9052 45.3967C56.7781 45.3967 50.607 40.6319 48.8949 33.8091C48.8577 33.6538 48.8221 33.5064 48.788 33.3543C48.047 36.6381 46.3924 39.6445 44.0158 42.0249C41.6392 44.4054 38.6379 46.0626 35.3597 46.8044C38.638 47.5466 41.6393 49.2041 44.0159 51.5848C46.3925 53.9656 48.0471 56.9721 48.788 60.2561C48.8221 60.1009 48.8577 59.9457 48.8949 59.8014C50.607 52.9723 56.7781 48.2137 63.9052 48.2137C64.2244 48.2137 64.5497 48.223 64.8689 48.2432L82.558 49.3296C83.5002 49.3881 84.4178 49.6543 85.2453 50.1094C86.0728 50.5644 86.7896 51.197 87.3446 51.9619C87.8996 52.7268 88.279 53.6051 88.4557 54.534C88.6324 55.4629 88.602 56.4194 88.3666 57.3352C86.0387 66.4186 80.7591 74.4676 73.3601 80.2132C65.9612 85.9589 56.8638 89.0744 47.5021 89.0686H47.3657Z" fill="#F4F4F4"/>
<path d="M47.1953 88.9207C35.9205 88.885 25.3492 84.4818 17.4273 76.5197C9.50535 68.5577 5.14233 57.954 5.14233 46.6612C5.14276 38.7323 7.3698 30.9634 11.569 24.2422C15.7682 17.5211 21.7701 12.1189 28.889 8.6528C36.0078 5.18674 43.9565 3.79668 51.8266 4.64146C59.6967 5.48624 67.1709 8.53178 73.3951 13.4301C80.6758 19.1791 85.8762 27.159 88.2008 36.1491C88.4337 37.064 88.4619 38.019 88.2836 38.9461C88.1053 39.8732 87.7248 40.7493 87.1693 41.512C86.6138 42.2747 85.8971 42.9051 85.0702 43.3582C84.2433 43.8113 83.3268 44.0758 82.386 44.1329L64.6985 45.2194C64.3777 45.2395 64.0539 45.2489 63.7332 45.2489C56.6061 45.2489 50.435 40.4856 48.7245 33.6627C48.6857 33.5075 48.6501 33.3601 48.616 33.2064C47.8758 36.4908 46.2215 39.4977 43.8447 41.8785C41.468 44.2594 38.4663 45.9166 35.1877 46.6581C38.4663 47.3996 41.468 49.0568 43.8447 51.4377C46.2215 53.8185 47.8758 56.8255 48.616 60.1098C48.6501 59.9546 48.6857 59.7994 48.7245 59.6535C50.4288 52.8322 56.6077 48.0658 63.7332 48.0658C64.0539 48.0658 64.3777 48.0767 64.6985 48.0969L82.386 49.1833C83.3283 49.2415 84.2461 49.5076 85.0738 49.9626C85.9015 50.4175 86.6185 51.0501 87.1737 51.815C87.7288 52.5799 88.1084 53.4583 88.2851 54.3873C88.4619 55.3163 88.4315 56.273 88.1962 57.1888C85.8681 66.2724 80.5882 74.3213 73.1889 80.0668C65.7897 85.8122 56.6919 88.9272 47.3301 88.9207H47.1953Z" fill="#F4F4F4"/>
<path d="M47.0233 88.7782C35.7486 88.7425 25.1772 84.3378 17.2553 76.3773C9.33339 68.4168 4.97037 57.8084 4.97192 46.5141C4.97227 38.5853 7.19923 30.8165 11.3983 24.0955C15.5974 17.3745 21.5993 11.9724 28.718 8.50647C35.8368 5.04055 43.7853 3.65063 51.6553 4.49554C59.5252 5.34045 66.9992 8.38612 73.2231 13.2845C80.505 19.0347 85.706 27.0163 88.0304 36.0082C88.2629 36.923 88.291 37.878 88.1126 38.805C87.9342 39.7319 87.5536 40.608 86.9982 41.3706C86.4428 42.1332 85.7261 42.7636 84.8994 43.2167C84.0727 43.6699 83.1563 43.9346 82.2156 43.992L64.5265 45.0784C64.2073 45.0971 63.882 45.1079 63.5628 45.1079C56.4357 45.1079 50.263 40.3431 48.5525 33.5203C48.5138 33.365 48.4782 33.2098 48.4441 33.0655C47.7033 36.3493 46.0487 39.3555 43.6721 41.7358C41.2954 44.1161 38.294 45.7728 35.0157 46.5141C38.2938 47.2564 41.2949 48.9139 43.6713 51.2946C46.0476 53.6754 47.7019 56.6819 48.4425 59.9658C48.4766 59.8106 48.5122 59.6554 48.551 59.511C50.2553 52.682 56.4342 47.9234 63.5597 47.9234C63.8804 47.9234 64.2042 47.9327 64.5249 47.9528L82.2141 49.0393C83.1562 49.0977 84.0739 49.364 84.9013 49.819C85.7288 50.274 86.4457 50.9066 87.0007 51.6715C87.5557 52.4364 87.9351 53.3148 88.1117 54.2437C88.2884 55.1725 88.258 56.1291 88.0226 57.0448C85.6947 66.1282 80.4151 74.1772 73.0162 79.9229C65.6172 85.6685 56.5198 88.784 47.1581 88.7782H47.0233Z" fill="#F4F4F4"/>
<path d="M46.8513 88.6225C35.5781 88.5868 25.0052 84.1836 17.0833 76.2216C9.16141 68.2595 4.80304 57.6605 4.80304 46.3677C4.80355 38.4393 7.03044 30.671 11.2293 23.9503C15.4281 17.2296 21.4295 11.8276 28.5478 8.36164C35.6661 4.89563 43.6141 3.50538 51.4837 4.34974C59.3533 5.1941 66.8271 8.23901 73.0511 13.1366C80.3318 18.8846 85.5327 26.8633 87.8584 35.8525C88.0912 36.7673 88.1195 37.7224 87.9412 38.6495C87.7629 39.5765 87.3824 40.4527 86.8269 41.2154C86.2714 41.9781 85.5547 42.6085 84.7278 43.0616C83.9009 43.5146 82.9844 43.7792 82.0436 43.8363L64.3545 44.9227C64.0353 44.9429 63.7115 44.9522 63.3908 44.9522C56.2637 44.9522 50.0926 40.189 48.3805 33.3661C48.3434 33.215 48.3077 33.0629 48.2736 32.9098C47.5329 36.1939 45.8784 39.2006 43.5017 41.5813C41.1251 43.9621 38.1237 45.6195 34.8453 46.3615C38.1238 47.1032 41.1255 48.7605 43.5021 51.1413C45.8788 53.5221 47.5333 56.5289 48.2736 59.8132C48.3077 59.659 48.3434 59.5069 48.3805 59.3569C50.0926 52.5278 56.2637 47.7692 63.3908 47.7692C63.71 47.7692 64.0353 47.7801 64.3545 47.8003L82.0436 48.8867C82.9864 48.9453 83.9045 49.212 84.7323 49.6677C85.5601 50.1234 86.2771 50.7568 86.8318 51.5226C87.3866 52.2884 87.7655 53.1676 87.9414 54.0972C88.1173 55.0269 88.0857 55.984 87.8491 56.9C85.52 65.9813 80.2401 74.0279 72.8419 79.7715C65.4436 85.5151 56.3476 88.629 46.9877 88.6225H46.8513Z" fill="#F4F4F4"/>
<path d="M46.6809 88.4817C35.4061 88.446 24.8348 84.0413 16.9129 76.0808C8.99098 68.1203 4.62796 57.515 4.62796 46.2207C4.62867 38.2919 6.85593 30.5232 11.0552 23.8023C15.2545 17.0814 21.2565 11.6794 28.3753 8.2135C35.4941 4.74763 43.4426 3.3577 51.3126 4.20254C59.1826 5.04737 66.6566 8.0929 72.8807 12.9911C80.1647 18.7386 85.368 26.7188 87.6942 35.7102C87.9267 36.625 87.9548 37.58 87.7764 38.5069C87.5979 39.4339 87.2174 40.3099 86.662 41.0726C86.1066 41.8352 85.3899 42.4656 84.5632 42.9187C83.7364 43.3718 82.82 43.6366 81.8794 43.6939L64.1918 44.7804C63.8711 44.799 63.5473 44.8099 63.2266 44.8099C56.0995 44.8099 49.9284 40.0451 48.2179 33.2222C48.1791 33.067 48.1435 32.9196 48.1094 32.7674C47.3689 36.0515 45.7145 39.0581 43.3378 41.4387C40.9611 43.8192 37.9595 45.4762 34.681 46.2176C37.9595 46.9596 40.9609 48.617 43.3375 50.9978C45.7141 53.3785 47.3687 56.3852 48.1094 59.6693C48.1435 59.5141 48.1791 59.3589 48.2179 59.213C49.9222 52.3917 56.101 47.6269 63.2266 47.6269C63.5473 47.6269 63.8711 47.6362 64.1918 47.6564L81.8794 48.7428C82.8217 48.801 83.7395 49.0671 84.5672 49.522C85.3948 49.977 86.1119 50.6096 86.6671 51.3745C87.2222 52.1394 87.6018 53.0178 87.7785 53.9468C87.9553 54.8758 87.9249 55.8325 87.6895 56.7483C85.3609 65.8332 80.0799 73.8831 72.6791 79.6289C65.2784 85.3747 56.1789 88.4893 46.8157 88.4817H46.6809Z" fill="#F4F4F4"/>
<path d="M46.5089 88.3342C35.2342 88.2985 24.6628 83.8953 16.7409 75.9333C8.819 67.9712 4.45753 57.3675 4.45753 46.0747C4.45759 38.1458 6.68434 30.3768 10.8833 23.6556C15.0823 16.9344 21.0841 11.532 28.203 8.0659C35.3218 4.59978 43.2704 3.20973 51.1405 4.05458C59.0106 4.89944 66.4847 7.94512 72.7087 12.8436C79.9895 18.5929 85.1903 26.5726 87.516 35.5626C87.7489 36.4775 87.7771 37.4325 87.5988 38.3596C87.4205 39.2867 87.04 40.1629 86.4845 40.9256C85.9291 41.6882 85.2123 42.3186 84.3854 42.7717C83.5585 43.2248 82.642 43.4893 81.7012 43.5464L64.0121 44.6329C63.6929 44.653 63.3676 44.6624 63.0484 44.6624C55.9213 44.6624 49.7486 39.8991 48.0381 33.0747C48.001 32.9195 47.9638 32.7736 47.9297 32.6199C47.1896 35.9041 45.5355 38.9109 43.159 41.2917C40.7826 43.6725 37.7812 45.3299 34.5029 46.0716C37.7812 46.8134 40.7826 48.4707 43.159 50.8516C45.5355 53.2324 47.1896 56.2392 47.9297 59.5233C47.9638 59.3681 48.001 59.2129 48.0381 59.067C49.7424 52.238 55.9213 47.4793 63.0469 47.4793C63.3676 47.4793 63.6929 47.4902 64.0121 47.5104L81.7012 48.5968C82.6434 48.6552 83.561 48.9215 84.3885 49.3765C85.216 49.8316 85.9329 50.4642 86.4878 51.2291C87.0428 51.994 87.4222 52.8723 87.5989 53.8012C87.7756 54.7301 87.7452 55.6866 87.5098 56.6024C85.182 65.686 79.9022 73.7351 72.5028 79.4806C65.1035 85.226 56.0056 88.341 46.6437 88.3342H46.5089Z" fill="#F4F4F4"/>
<path d="M46.3369 88.1882C35.0637 88.1525 24.4909 83.7477 16.5705 75.7872C8.65012 67.8267 4.28555 57.2215 4.28555 45.9272C4.28657 37.9985 6.51398 30.23 10.7133 23.5092C14.9126 16.7884 20.9144 11.3865 28.0331 7.92053C35.1517 4.45459 43.1 3.06442 50.97 3.90888C58.8399 4.75333 66.314 7.79835 72.5383 12.696C79.8192 18.4456 85.0195 26.426 87.344 35.4166C87.5766 36.3314 87.6047 37.2864 87.4262 38.2134C87.2478 39.1403 86.8673 40.0164 86.3119 40.779C85.7564 41.5416 85.0398 42.172 84.213 42.6252C83.3863 43.0783 82.4699 43.343 81.5293 43.4004L63.8401 44.4868C63.521 44.5055 63.1971 44.5163 62.8764 44.5163C55.7493 44.5163 49.5782 39.7515 47.8662 32.9287C47.829 32.7735 47.7933 32.6182 47.7592 32.4739C47.0184 35.7578 45.3638 38.7642 42.9872 41.1447C40.6106 43.5252 37.6092 45.1823 34.3309 45.9241C37.6093 46.6661 40.6107 48.3235 42.9874 50.7042C45.364 53.085 47.0185 56.0916 47.7592 59.3757C47.7933 59.2236 47.829 59.0715 47.8662 58.9194C49.5798 52.1012 55.7493 47.338 62.8764 47.338C63.1956 47.338 63.521 47.3473 63.8401 47.3675L81.5293 48.4539C82.4716 48.5121 83.3894 48.7782 84.217 49.2331C85.0447 49.6881 85.7618 50.3207 86.3169 51.0856C86.8721 51.8505 87.2516 52.7289 87.4284 53.6579C87.6051 54.5869 87.5748 55.5436 87.3394 56.4594C85.0103 65.5407 79.7312 73.5876 72.3337 79.3321C64.9362 85.0766 55.8409 88.1923 46.481 88.1882H46.3369Z" fill="#F4F4F4"/>
<path d="M46.1711 88.0408C34.8964 88.0051 24.3251 83.6019 16.4032 75.6399C8.48124 67.6778 4.11357 57.0741 4.11357 45.786C4.11312 37.8567 6.33953 30.0871 10.5384 23.3653C14.7372 16.6435 20.7391 11.2406 27.8581 7.77394C34.9771 4.30731 42.9261 2.91685 50.7967 3.76145C58.6672 4.60606 66.1418 7.65165 72.3663 12.5502C79.6471 18.2992 84.8475 26.2791 87.172 35.2692C87.4049 36.184 87.4332 37.1389 87.255 38.0659C87.0767 38.9928 86.6964 39.8689 86.1411 40.6316C85.5858 41.3943 84.8692 42.0247 84.0425 42.4778C83.2158 42.931 82.2994 43.1957 81.3588 43.253L63.6697 44.3395C63.3505 44.3596 63.0252 44.369 62.7044 44.369C55.5774 44.369 49.4062 39.6057 47.6957 32.7813C47.657 32.6261 47.6214 32.4802 47.5873 32.3265C46.8484 35.6123 45.1946 38.6209 42.8178 41.0032C40.441 43.3855 37.4386 45.0439 34.1589 45.786C37.4376 46.5275 40.4393 48.1847 42.816 50.5656C45.1927 52.9464 46.8471 55.9533 47.5873 59.2377C47.6214 59.0825 47.657 58.9273 47.6957 58.7814C49.4 51.9523 55.5789 47.1937 62.7044 47.1937C63.0252 47.1937 63.349 47.2046 63.6697 47.2247L81.3573 48.3112C82.2996 48.3694 83.2174 48.6355 84.045 49.0904C84.8727 49.5454 85.5898 50.178 86.1449 50.9429C86.7001 51.7078 87.0796 52.5862 87.2564 53.5152C87.4331 54.4442 87.4028 55.4008 87.1674 56.3167C84.8381 65.3989 79.5576 73.4463 72.1585 79.1903C64.7593 84.9342 55.6622 88.048 46.3013 88.0408H46.1711Z" fill="#F4F4F4"/>
<path d="M45.9945 87.8947C34.7213 87.859 24.1484 83.4542 16.2265 75.4937C8.30461 67.5332 3.94315 56.928 3.94315 45.6305C3.94346 37.701 6.17071 29.9316 10.3704 23.2101C14.57 16.4886 20.5726 11.0862 27.6922 7.62038C34.8118 4.15453 42.7611 2.76503 50.6317 3.61067C58.5023 4.45631 65.9766 7.50298 72.2005 12.4025C79.479 18.1534 84.6775 26.1335 87.0016 35.1231C87.2342 36.0379 87.2622 36.9929 87.0838 37.9198C86.9054 38.8468 86.5248 39.7229 85.9694 40.4855C85.414 41.2481 84.6973 41.8785 83.8706 42.3316C83.0439 42.7848 82.1275 43.0495 81.1868 43.1069L63.4977 44.1933C63.1785 44.2119 62.8532 44.2228 62.534 44.2228C55.4069 44.2228 49.2358 39.458 47.5237 32.6351C47.4866 32.4799 47.4494 32.3325 47.4153 32.1804C46.6749 35.4643 45.0207 38.4707 42.6443 40.8512C40.2679 43.2318 37.2666 44.8889 33.9885 45.6305C37.2662 46.3736 40.2667 48.0319 42.6422 50.4132C45.0178 52.7945 46.6711 55.8014 47.4106 59.0853C47.4447 58.9301 47.4819 58.7749 47.5191 58.629C49.2234 51.8077 55.4023 47.0429 62.5278 47.0429C62.8485 47.0429 63.1739 47.0522 63.4931 47.0724L81.1822 48.1588C82.1243 48.2172 83.042 48.4835 83.8694 48.9385C84.6969 49.3936 85.4138 50.0262 85.9688 50.7911C86.5238 51.556 86.9032 52.4343 87.0798 53.3632C87.2565 54.2921 87.2261 55.2486 86.9908 56.1644C84.6623 65.2467 79.383 73.2946 71.9847 79.0396C64.5865 84.7846 55.4901 87.8999 46.1293 87.8947H45.9945Z" fill="#F4F4F4"/>
<path d="M45.8225 87.7476C34.5493 87.7119 23.9764 83.3087 16.0561 75.3466C8.13571 67.3846 3.77115 56.7809 3.77115 45.4881C3.77244 37.5596 6.00012 29.7913 10.1996 23.0708C14.3992 16.3504 20.4012 10.9488 27.5199 7.48333C34.6386 4.01783 42.5869 2.62817 50.4566 3.47313C58.3263 4.31808 65.8 7.36357 72.0239 12.2616C79.3046 18.0106 84.505 25.9905 86.8296 34.9807C87.0624 35.8955 87.0907 36.8506 86.9124 37.7776C86.7341 38.7047 86.3536 39.5809 85.7981 40.3436C85.2427 41.1063 84.5259 41.7367 83.699 42.1897C82.8721 42.6428 81.9556 42.9073 81.0148 42.9645L63.3273 44.0509C63.0066 44.0711 62.6827 44.0804 62.362 44.0804C55.2349 44.0804 49.0638 39.3171 47.3517 32.4927C47.3146 32.3375 47.2789 32.1916 47.2448 32.038C46.5045 35.3222 44.85 38.3291 42.4734 40.7099C40.0967 43.0907 37.0951 44.748 33.8165 45.4897C37.0949 46.231 40.0965 47.888 42.4732 50.2686C44.8499 52.6491 46.5044 55.6557 47.2448 58.9398C47.2789 58.7846 47.3146 58.6294 47.3517 58.485C49.0638 51.656 55.2349 46.8974 62.362 46.8974C62.6812 46.8974 63.0066 46.9082 63.3273 46.9284L81.0148 48.0149C81.9571 48.073 82.8749 48.3391 83.7026 48.7941C84.5303 49.249 85.2473 49.8816 85.8025 50.6465C86.3577 51.4115 86.7372 52.2899 86.9139 53.2189C87.0907 54.1479 87.0603 55.1045 86.825 56.0204C84.496 65.103 79.2157 73.151 71.8166 78.8955C64.4174 84.64 55.3201 87.7543 45.9589 87.7476H45.8225Z" fill="#F4F4F4"/>
<path d="M45.6521 87.6019C34.3774 87.5662 23.806 83.1615 15.8841 75.201C7.9622 67.2405 3.59918 56.6352 3.59918 45.3409C3.59962 37.412 5.82661 29.643 10.0257 22.9218C14.2248 16.2006 20.2265 10.7982 27.3453 7.33186C34.464 3.86553 42.4126 2.4751 50.2828 3.31944C58.153 4.16378 65.6274 7.20883 71.8519 12.1067C79.133 17.8563 84.3339 25.8366 86.6592 34.8272C86.8912 35.742 86.9188 36.6968 86.7402 37.6236C86.5615 38.5503 86.1809 39.4261 85.6256 40.1886C85.0703 40.9511 84.3538 41.5815 83.5274 42.0347C82.701 42.488 81.7849 42.7531 80.8444 42.811L63.1553 43.8975C62.8361 43.9161 62.5108 43.927 62.1901 43.927C55.063 43.927 48.8918 39.1622 47.1813 32.3393C47.1426 32.1841 47.107 32.0289 47.0729 31.8845C46.3325 35.1684 44.6783 38.1749 42.3019 40.5554C39.9255 42.9359 36.9242 44.5931 33.6461 45.3347C36.9243 46.0768 39.9255 47.7343 42.3018 50.115C44.6782 52.4958 46.3324 55.5024 47.0729 58.7864C47.107 58.6312 47.1426 58.476 47.1813 58.3301C48.8856 51.5088 55.0645 46.744 62.1901 46.744C62.5108 46.744 62.8346 46.7533 63.1553 46.7734L80.8429 47.8599C81.7862 47.9178 82.705 48.1841 83.5335 48.6396C84.362 49.0951 85.0797 49.7286 85.635 50.4946C86.1903 51.2606 86.5696 52.1403 86.7456 53.0704C86.9216 54.0006 86.89 54.9582 86.653 55.8747C84.3238 64.9573 79.0435 73.005 71.6443 78.7495C64.2452 84.4939 55.1481 87.6084 45.7869 87.6019H45.6521Z" fill="#F4F4F4"/>
<path d="M45.4801 87.4543C34.2069 87.4186 23.634 83.0154 15.7121 75.0534C7.79021 67.0913 3.42874 56.4954 3.42874 45.1933C3.42909 37.2645 5.65605 29.4957 9.85515 22.7747C14.0542 16.0537 20.0561 10.6516 27.1749 7.18567C34.2936 3.71975 42.2421 2.32983 50.1121 3.17474C57.9821 4.01965 65.456 7.06532 71.6799 11.9637C78.9606 17.713 84.1615 25.6927 86.4872 34.6827C86.7201 35.5976 86.7483 36.5527 86.57 37.4797C86.3917 38.4068 86.0112 39.283 85.4557 40.0457C84.9002 40.8084 84.1835 41.4388 83.3566 41.8918C82.5297 42.3449 81.6132 42.6094 80.6724 42.6665L62.9833 43.753C62.6641 43.7732 62.3403 43.7825 62.0196 43.7825C54.8925 43.7825 48.7214 39.0192 47.0093 32.1948C46.9722 32.0396 46.935 31.8937 46.9009 31.74C46.1608 35.0242 44.5067 38.031 42.1302 40.4118C39.7538 42.7926 36.7524 44.45 33.4741 45.1917C36.7522 45.9334 39.7535 47.5905 42.1299 49.971C44.5063 52.3516 46.1605 55.358 46.9009 58.6419C46.935 58.4867 46.9722 58.3315 47.0093 58.1871C48.7136 51.3581 54.8925 46.5995 62.0181 46.5995C62.3388 46.5995 62.6641 46.6103 62.9833 46.6305L80.6724 47.7169C81.6146 47.7754 82.5322 48.0416 83.3597 48.4967C84.1872 48.9517 84.904 49.5843 85.459 50.3492C86.014 51.1141 86.3934 51.9924 86.5701 52.9213C86.7468 53.8502 86.7163 54.8067 86.481 55.7225C84.1535 64.806 78.874 72.8551 71.4749 78.6006C64.0758 84.346 54.9782 87.461 45.6165 87.4543H45.4801Z" fill="#F4F4F4"/>
<path d="M45.3097 87.3083C34.0349 87.2726 23.4636 82.8679 15.5417 74.9073C7.61978 66.9468 3.25366 56.3401 3.25366 45.0473C3.25423 37.118 5.48149 29.3489 9.68095 22.6276C13.8804 15.9063 19.8827 10.5039 27.0018 7.03788C34.121 3.57182 42.07 2.18185 49.9404 3.0268C57.8108 3.87175 65.2852 6.91754 71.5095 11.8161C78.7907 17.5654 83.9912 25.5459 86.3152 34.5367C86.5489 35.452 86.5777 36.4076 86.3998 37.3353C86.2219 38.2631 85.8416 39.14 85.286 39.9033C84.7305 40.6667 84.0134 41.2977 83.1861 41.7512C82.3589 42.2047 81.4418 42.4695 80.5005 42.5267L62.8129 43.6132C62.4922 43.6318 62.1684 43.6427 61.8476 43.6427C54.7205 43.6427 48.5494 38.8778 46.8374 32.055C46.8002 31.8998 46.7645 31.7523 46.7305 31.6002C45.99 34.8843 44.3355 37.8909 41.9588 40.2714C39.5821 42.652 36.5806 44.309 33.3021 45.0504C36.5807 45.792 39.5823 47.4493 41.959 49.8302C44.3357 52.211 45.9901 55.2178 46.7305 58.5021C46.7645 58.3469 46.8002 58.1917 46.8389 58.0458C48.5432 51.2167 54.7205 46.4596 61.8476 46.4596C62.1684 46.4596 62.4922 46.469 62.8129 46.4891L80.5005 47.5756C81.4428 47.6338 82.3606 47.8999 83.1882 48.3548C84.0159 48.8098 84.733 49.4423 85.2881 50.2073C85.8433 50.9722 86.2228 51.8506 86.3996 52.7796C86.5763 53.7086 86.546 54.6652 86.3106 55.5811C83.9809 64.6634 78.7005 72.7108 71.3014 78.4552C63.9024 84.1996 54.8055 87.3142 45.4445 87.3083H45.3097Z" fill="#F4F4F4"/>
<path d="M45.1377 87.1609C33.863 87.1252 23.2916 82.722 15.3697 74.7599C7.44782 66.7978 3.0848 56.1942 3.08635 44.8998C3.08669 36.9711 5.31366 29.2023 9.51276 22.4813C13.7119 15.7603 19.7137 10.3581 26.8325 6.89222C33.9512 3.42629 41.8997 2.03637 49.7697 2.88128C57.6397 3.7262 65.1136 6.77186 71.3375 11.6702C78.6183 17.4196 83.8191 25.3993 86.1448 34.3893C86.3774 35.304 86.4055 36.2589 86.2271 37.1858C86.0486 38.1127 85.6681 38.9886 85.1126 39.7512C84.5572 40.5137 83.8405 41.1439 83.0137 41.5969C82.187 42.0498 81.2706 42.3144 80.3301 42.3715L62.6409 43.458C62.3218 43.4782 61.9964 43.4875 61.6772 43.4875C54.5501 43.4875 48.3775 38.7242 46.667 31.8998C46.6282 31.7446 46.5926 31.5987 46.5585 31.445C45.8184 34.7292 44.1643 37.736 41.7879 40.1168C39.4114 42.4976 36.4101 44.155 33.1317 44.8967C36.4113 45.6392 39.4135 47.2979 41.79 49.6805C44.1665 52.0631 45.82 55.0719 46.5585 58.3577C46.5926 58.2025 46.6282 58.0473 46.667 57.903C48.3713 51.0739 54.5501 46.3153 61.6757 46.3153C61.9964 46.3153 62.3202 46.3262 62.6409 46.3464L80.3301 47.4328C81.2722 47.4905 82.1901 47.756 83.0179 48.2104C83.8457 48.6648 84.5631 49.2968 85.1186 50.0613C85.6742 50.8257 86.0543 51.7037 86.2317 52.6325C86.4091 53.5612 86.3794 54.5178 86.1448 55.4337C83.8159 64.5175 78.5347 72.5663 71.1342 78.311C63.7337 84.0556 54.6349 87.1693 45.2725 87.1609H45.1377Z" fill="#F4F4F4"/>
<path d="M44.9657 87.0148C33.6925 86.9791 23.1197 82.5743 15.1978 74.6138C7.27584 66.6533 2.91437 56.0481 2.91437 44.7538C2.91502 36.8251 5.14213 29.0565 9.34124 22.3356C13.5403 15.6148 19.5421 10.2127 26.6607 6.74672C33.7793 3.28071 41.7276 1.89055 49.5975 2.73508C57.4674 3.57962 64.9414 6.62477 71.1655 11.5226C78.4472 17.2718 83.6481 25.2523 85.9728 34.2432C86.2054 35.158 86.2335 36.113 86.055 37.04C85.8766 37.9669 85.4961 38.843 84.9407 39.6056C84.3852 40.3682 83.6686 40.9986 82.8418 41.4518C82.0151 41.9049 81.0987 42.1696 80.1581 42.227L62.4689 43.3134C62.1498 43.3321 61.826 43.3429 61.5052 43.3429C54.3781 43.3429 48.207 38.5781 46.495 31.7553C46.4578 31.6001 46.4221 31.4448 46.3881 31.3005C45.6471 34.5843 43.9924 37.5907 41.6158 39.9711C39.2392 42.3516 36.2379 44.0088 32.9597 44.7506C36.2381 45.4927 39.2395 47.1501 41.6162 49.5308C43.9928 51.9116 45.6473 54.9182 46.3881 58.2023C46.4221 58.0502 46.4578 57.8981 46.495 57.746C48.207 50.9278 54.3828 46.163 61.5099 46.163C61.8291 46.163 62.1544 46.1723 62.4736 46.1925L80.1627 47.279C81.1049 47.3374 82.0225 47.6036 82.85 48.0587C83.6775 48.5137 84.3943 49.1463 84.9493 49.9112C85.5043 50.6761 85.8837 51.5544 86.0604 52.4833C86.2371 53.4122 86.2066 54.3687 85.9713 55.2845C83.6425 64.3681 78.362 72.417 70.9622 78.1621C63.5624 83.9072 54.4642 87.0218 45.1021 87.0148H44.9657Z" fill="#F4F4F4"/>
<path d="M44.7953 86.868C33.5205 86.8323 22.9492 82.4291 15.0273 74.467C7.10539 66.5049 2.74237 55.9013 2.74237 44.6069C2.74308 36.6781 4.97034 28.9094 9.16963 22.1885C13.3689 15.4676 19.3709 10.0656 26.4897 6.59973C33.6085 3.13386 41.557 1.74393 49.427 2.58877C57.297 3.4336 64.771 6.47913 70.9951 11.3773C78.2758 17.1264 83.4762 25.1062 85.8008 34.0964C86.0337 35.0112 86.0619 35.9663 85.8836 36.8934C85.7053 37.8204 85.3249 38.6966 84.7694 39.4593C84.2139 40.222 83.4971 40.8524 82.6702 41.3055C81.8434 41.7585 80.9268 42.0231 79.9861 42.0802L62.2985 43.1666C61.9778 43.1868 61.6539 43.1961 61.3332 43.1961C54.2061 43.1961 48.035 38.4328 46.3245 31.6084C46.2858 31.4532 46.2501 31.3058 46.2161 31.1537C45.4757 34.438 43.8213 37.4448 41.4446 39.8256C39.0679 42.2064 36.0663 43.8637 32.7877 44.6054C36.0662 45.3468 39.0677 47.0038 41.4444 49.3843C43.8211 51.7649 45.4756 54.7714 46.2161 58.0555C46.2501 57.9003 46.2858 57.7451 46.3245 57.6008C48.0288 50.7717 54.2077 46.0131 61.3332 46.0131C61.6539 46.0131 61.9778 46.024 62.2985 46.0441L79.9861 47.1306C80.9284 47.1888 81.8462 47.4549 82.6738 47.9098C83.5015 48.3648 84.2186 48.9973 84.7737 49.7623C85.3289 50.5272 85.7084 51.4056 85.8852 52.3346C86.0619 53.2636 86.0315 54.2202 85.7962 55.1361C83.4682 64.2194 78.1885 72.2682 70.7896 78.0135C63.3906 83.7589 54.2932 86.8741 44.9316 86.868H44.7953Z" fill="#F4F4F4"/>
<path d="M44.6218 86.7213C33.347 86.6856 22.7757 82.2809 14.8538 74.3204C6.93186 66.3599 2.57195 55.7546 2.57195 44.4603C2.5726 36.5316 4.79971 28.763 8.99881 22.0422C13.1979 15.3213 19.1996 9.91926 26.3182 6.45326C33.4368 2.98725 41.3852 1.5971 49.255 2.44163C57.1249 3.28616 64.5989 6.33131 70.8231 11.2292C78.1042 16.9788 83.3051 24.9591 85.6304 33.9498C85.863 34.8646 85.891 35.8196 85.7126 36.7465C85.5342 37.6735 85.1537 38.5495 84.5982 39.3121C84.0428 40.0748 83.3261 40.7052 82.4994 41.1583C81.6727 41.6114 80.7563 41.8761 79.8156 41.9335L62.1265 43.02C61.8073 43.0402 61.482 43.051 61.1628 43.051C54.0357 43.051 47.863 38.2862 46.1525 31.4634C46.1154 31.3081 46.0782 31.1607 46.0441 31.0086C45.3037 34.2925 43.6495 37.2989 41.2731 39.6795C38.8967 42.06 35.8954 43.7171 32.6173 44.4587C35.8955 45.2008 38.8967 46.8583 41.273 49.2391C43.6494 51.6198 45.3037 54.6264 46.0441 57.9104C46.0782 57.7552 46.1138 57.6 46.1525 57.4541C47.8568 50.6328 54.0357 45.868 61.1613 45.868C61.482 45.868 61.8058 45.8773 62.1265 45.8975L79.8156 46.9839C80.7578 47.0424 81.6754 47.3086 82.5029 47.7637C83.3304 48.2187 84.0473 48.8513 84.6022 49.6162C85.1572 50.3811 85.5366 51.2594 85.7133 52.1883C85.89 53.1172 85.8596 54.0737 85.6242 54.9895C83.2959 64.0729 78.0159 72.1217 70.6167 77.8671C63.2175 83.6124 54.1199 86.7275 44.7581 86.7213H44.6218Z" fill="#F4F4F4"/>
<path d="M44.4513 86.5743C33.1781 86.5386 22.6053 82.1354 14.6849 74.1733C6.76453 66.2112 2.39996 55.6076 2.39996 44.3132C2.40091 36.3847 4.62823 28.6163 8.82745 21.8957C13.0267 15.1751 19.0284 9.77323 26.147 6.30741C33.2655 2.8416 41.2137 1.45157 49.0835 2.29616C56.9532 3.14075 64.4271 6.18589 70.6511 11.0836C77.9319 16.8327 83.1323 24.8125 85.4569 33.8027C85.6898 34.7179 85.7179 35.6734 85.5394 36.6007C85.3608 37.5281 84.9799 38.4045 84.4239 39.1673C83.8679 39.9301 83.1506 40.5604 82.3231 41.0132C81.4957 41.466 80.5786 41.73 79.6375 41.7865L61.9483 42.8729C61.6292 42.8931 61.3054 42.9024 60.9846 42.9024C53.8575 42.9024 47.6864 38.1376 45.9744 31.3147C45.9372 31.1595 45.9015 31.0121 45.8675 30.86C45.1266 34.144 43.472 37.1506 41.0954 39.5313C38.7188 41.912 35.7174 43.5695 32.4391 44.3117C35.7176 45.0531 38.7191 46.7101 41.0958 49.0906C43.4725 51.4712 45.127 54.4778 45.8675 57.7618C45.9015 57.6066 45.9372 57.4514 45.9744 57.3071C47.6864 50.478 53.8575 45.7194 60.9846 45.7194C61.3038 45.7194 61.6292 45.7303 61.9483 45.7489L79.6375 46.8353C80.5798 46.8935 81.4976 47.1596 82.3252 47.6146C83.1529 48.0695 83.87 48.7021 84.4251 49.467C84.9803 50.232 85.3598 51.1103 85.5366 52.0393C85.7133 52.9683 85.6829 53.925 85.4476 54.8409C83.1201 63.9236 77.8412 71.9722 70.4432 77.7178C63.0452 83.4634 53.9487 86.5793 44.5877 86.5743H44.4513Z" fill="#F4F4F4"/>
<path d="M44.2809 86.4279C33.0062 86.3922 22.4348 81.9875 14.5129 74.027C6.59101 66.0665 2.228 55.4612 2.228 44.1669C2.22902 36.2382 4.45642 28.4697 8.65573 21.7489C12.855 15.0282 18.8569 9.62623 25.9755 6.16028C33.0941 2.69433 41.0425 1.30417 48.9124 2.14862C56.7823 2.99308 64.2564 6.03809 70.4807 10.9358C77.7619 16.685 82.9624 24.6656 85.2865 33.6564C85.519 34.5712 85.5471 35.5262 85.3687 36.4531C85.1902 37.3801 84.8097 38.2561 84.2543 39.0188C83.6988 39.7814 82.9822 40.4118 82.1555 40.8649C81.3287 41.318 80.4123 41.5828 79.4717 41.6401L61.7841 42.7266C61.4649 42.7468 61.1396 42.7576 60.8189 42.7576C53.6918 42.7576 47.5206 37.9928 45.8101 31.17C45.7714 31.0148 45.7358 30.8595 45.7017 30.7152C44.9612 33.9993 43.3067 37.0059 40.93 39.3864C38.5534 41.767 35.5518 43.424 32.2733 44.1653C35.553 44.9063 38.5557 46.5635 40.9333 48.9447C43.3109 51.3259 44.9659 54.3334 45.7063 57.6186C45.7404 57.4634 45.7761 57.3082 45.8148 57.1623C47.5191 50.341 53.698 45.5762 60.8235 45.5762C61.1442 45.5762 61.468 45.5855 61.7888 45.6057L79.4763 46.6921C80.4186 46.7503 81.3364 47.0164 82.1641 47.4713C82.9918 47.9263 83.7088 48.5589 84.264 49.3238C84.8191 50.0887 85.1987 50.9671 85.3755 51.8961C85.5522 52.8251 85.5218 53.7818 85.2865 54.6976C82.9574 63.7814 77.6766 71.8303 70.2765 77.5754C62.8764 83.3205 53.778 86.435 44.4157 86.4279H44.2809Z" fill="#F4F4F4"/>
<path d="M44.1089 86.281C32.8357 86.2453 22.2628 81.8421 14.3409 73.88C6.41901 65.918 2.05754 55.3143 2.05754 44.02C2.05788 36.0912 4.28485 28.3224 8.48395 21.6014C12.683 14.8804 18.6849 9.47826 25.8037 6.01233C32.9224 2.54641 40.8709 1.15649 48.7409 2.0014C56.6109 2.84631 64.0848 5.89198 70.3087 10.7904C77.5894 16.5397 82.7903 24.5194 85.116 33.5094C85.3488 34.4243 85.3771 35.3793 85.1988 36.3064C85.0205 37.2335 84.64 38.1096 84.0845 38.8723C83.529 39.635 82.8123 40.2654 81.9854 40.7185C81.1585 41.1715 80.242 41.4361 79.3012 41.4932L61.6121 42.5796C61.2929 42.5998 60.9676 42.6091 60.6484 42.6091C53.5213 42.6091 47.3486 37.8443 45.6381 31.0215C45.601 30.8663 45.5638 30.7188 45.5297 30.5667C44.7892 33.8507 43.135 36.8573 40.7586 39.2381C38.3823 41.6188 35.3811 43.2763 32.1029 44.0184C35.381 44.76 38.3823 46.4172 40.7587 48.7977C43.1351 51.1782 44.7893 54.1847 45.5297 57.4685C45.5638 57.3133 45.601 57.1581 45.6381 57.0138C47.3424 50.1847 53.5213 45.4261 60.6469 45.4261C60.9676 45.4261 61.2929 45.437 61.6121 45.4556L79.3012 46.542C80.2434 46.6005 81.161 46.8667 81.9885 47.3218C82.816 47.7768 83.5328 48.4094 84.0878 49.1743C84.6428 49.9392 85.0222 50.8175 85.1989 51.7464C85.3756 52.6753 85.3451 53.6318 85.1098 54.5476C82.7823 63.6315 77.5026 71.681 70.1032 77.4268C62.7039 83.1725 53.6058 86.2876 44.2437 86.281H44.1089Z" fill="#F4F4F4"/>
<path d="M43.9369 86.1391C32.6637 86.1034 22.0909 81.6987 14.1705 73.7382C6.25014 65.7777 1.88557 55.1678 1.88557 43.8734C1.8866 35.9448 4.114 28.1762 8.3133 21.4555C12.5126 14.7347 18.5144 9.33277 25.6331 5.86682C32.7517 2.40087 40.7001 1.01071 48.57 1.85517C56.4399 2.69962 63.914 5.74463 70.1383 10.6423C77.4206 16.3932 82.6212 24.376 84.944 33.3691C85.1766 34.2839 85.2047 35.2389 85.0262 36.1659C84.8478 37.0928 84.4673 37.9689 83.9119 38.7315C83.3564 39.4941 82.6398 40.1245 81.813 40.5777C80.9863 41.0308 80.0699 41.2955 79.1293 41.3529L61.4401 42.4393C61.121 42.4595 60.7972 42.4704 60.4764 42.4704C53.3493 42.4704 47.1782 37.7056 45.4662 30.8827C45.429 30.7275 45.3933 30.5801 45.3593 30.428C44.6185 33.7119 42.9639 36.7183 40.5872 39.0988C38.2106 41.4793 35.2092 43.1364 31.9309 43.8781C35.2095 44.6198 38.2111 46.2771 40.5878 48.6579C42.9645 51.0387 44.6189 54.0455 45.3593 57.3298C45.3933 57.1746 45.429 57.0194 45.4662 56.8735C47.1782 50.0444 53.3493 45.2874 60.4764 45.2874C60.7956 45.2874 61.121 45.2967 61.4417 45.3169L79.1293 46.4033C80.0716 46.4615 80.9894 46.7276 81.817 47.1825C82.6447 47.6375 83.3618 48.2701 83.9169 49.035C84.4721 49.7999 84.8516 50.6783 85.0284 51.6073C85.2051 52.5363 85.1747 53.493 84.9394 54.4088C82.6103 63.4917 77.3301 71.5398 69.931 77.2848C62.5319 83.0298 53.4347 86.1449 44.0733 86.1391H43.9369Z" fill="#F4F4F4"/>
<path d="M43.7665 85.9845C32.4918 85.9488 21.9204 81.5456 13.9985 73.5835C6.07661 65.6215 1.71359 55.0209 1.71359 43.7266C1.71431 35.7977 3.94156 28.029 8.14086 21.3081C12.3402 14.5872 18.3421 9.18523 25.4609 5.71936C32.5797 2.25349 40.5283 0.863559 48.3982 1.7084C56.2682 2.55323 63.7423 5.59876 69.9663 10.497C77.2468 16.2459 82.4476 24.225 84.7736 33.2145C85.0059 34.1293 85.0337 35.0842 84.8552 36.011C84.6766 36.9378 84.2961 37.8138 83.7407 38.5763C83.1853 39.3389 82.4688 39.9693 81.6422 40.4225C80.8156 40.8757 79.8994 41.1406 78.9588 41.1983L61.2697 42.2847C60.9505 42.3049 60.6252 42.3142 60.3045 42.3142C53.1774 42.3142 47.0062 37.5494 45.2957 30.7265C45.257 30.5713 45.2214 30.4239 45.1873 30.2718C44.4479 33.5565 42.7943 36.564 40.4182 38.9457C38.042 41.3273 35.0406 42.9856 31.762 43.7281C35.0405 44.4695 38.042 46.1265 40.4187 48.507C42.7954 50.8876 44.4499 53.8942 45.1904 57.1782C45.2245 57.023 45.2601 56.8678 45.2988 56.7235C47.0031 49.8944 53.182 45.1358 60.3076 45.1358C60.6283 45.1358 60.9521 45.1467 61.2728 45.1653L78.9604 46.2518C79.9027 46.3099 80.8205 46.576 81.6482 47.031C82.4758 47.4859 83.1929 48.1185 83.748 48.8834C84.3032 49.6484 84.6827 50.5268 84.8595 51.4558C85.0363 52.3848 85.0059 53.3414 84.7705 54.2573C82.4417 63.3406 77.161 71.389 69.7611 77.1336C62.3613 82.8782 53.2632 85.9922 43.9013 85.9845H43.7665Z" fill="#F4F4F4"/>
<path d="M43.5945 85.8419C32.3213 85.8062 21.7485 81.4015 13.8265 73.441C5.90463 65.4805 1.54936 54.8752 1.54936 43.5809C1.55093 35.6533 3.77833 27.886 7.97712 21.1662C12.1759 14.4465 18.1768 9.04519 25.2943 5.57941C32.4118 2.11362 40.3589 0.723077 48.2278 1.56662C56.0967 2.41015 63.5701 5.45376 69.7943 10.3498C77.0731 16.1004 82.2718 24.0806 84.5954 33.0704C84.828 33.9852 84.8561 34.9402 84.6776 35.8671C84.4992 36.7941 84.1187 37.6701 83.5633 38.4328C83.0078 39.1954 82.2912 39.8258 81.4644 40.2789C80.6377 40.732 79.7213 40.9968 78.7807 41.0542L61.0915 42.1406C60.7724 42.1608 60.4486 42.1716 60.1278 42.1716C53.0007 42.1716 46.8296 37.4068 45.1176 30.584C45.0804 30.4288 45.0432 30.2813 45.0091 30.1277C44.269 33.4118 42.6149 36.4186 40.2385 38.7994C37.862 41.1802 34.8607 42.8376 31.5823 43.5794C34.8605 44.3214 37.8617 45.9789 40.2381 48.3597C42.6144 50.7405 44.2687 53.7471 45.0091 57.0311C45.0432 56.8758 45.0804 56.7206 45.1176 56.5747C46.8219 49.7534 53.0007 44.9886 60.1263 44.9886C60.447 44.9886 60.7724 44.9979 61.0915 45.0181L78.7807 46.1046C79.7239 46.162 80.6427 46.4276 81.4714 46.8826C82.3 47.3376 83.0179 47.9705 83.5737 48.7361C84.1294 49.5016 84.5092 50.3809 84.6859 51.3108C84.8625 52.2407 84.8316 53.1982 84.5954 54.1147C82.2663 63.197 76.9862 71.2446 69.5874 76.989C62.1886 82.7335 53.0918 85.8481 43.7309 85.8419H43.5945Z" fill="#F4F4F4"/>
<path d="M43.4241 85.6941C32.1494 85.6584 21.578 81.2552 13.6561 73.2932C5.73422 65.3311 1.3712 54.7274 1.3712 43.4331C1.37191 35.5043 3.59917 27.7356 7.79846 21.0147C11.9978 14.2938 17.9997 8.89177 25.1185 5.4259C32.2373 1.96003 40.1859 0.570102 48.0559 1.41494C55.9259 2.25978 63.3999 5.3053 69.6239 10.2035C76.9047 15.9525 82.1051 23.9324 84.4297 32.9226C84.6625 33.8374 84.6908 34.7925 84.5125 35.7195C84.3342 36.6466 83.9537 37.5228 83.3982 38.2855C82.8427 39.0482 82.1259 39.6786 81.2991 40.1316C80.4722 40.5847 79.5557 40.8492 78.6149 40.9063L60.9273 41.9928C60.6066 42.013 60.2828 42.0223 59.9621 42.0223C52.835 42.0223 46.6639 37.2575 44.9518 30.4346C44.9146 30.2794 44.879 30.1242 44.8449 29.9799C44.1042 33.264 42.4496 36.2706 40.073 38.6514C37.6964 41.0321 34.695 42.6895 31.4165 43.4315C34.695 44.1729 37.6966 45.8299 40.0733 48.2105C42.4499 50.591 44.1044 53.5976 44.8449 56.8817C44.879 56.7265 44.9146 56.5713 44.9518 56.4269C46.6639 49.5979 52.835 44.8393 59.9621 44.8393C60.2812 44.8393 60.6066 44.8501 60.9273 44.8688L78.6149 45.9552C79.5572 46.0134 80.475 46.2795 81.3027 46.7344C82.1303 47.1894 82.8474 47.822 83.4026 48.5869C83.9577 49.3518 84.3373 50.2302 84.514 51.1592C84.6908 52.0882 84.6604 53.0449 84.425 53.9607C82.0973 63.0445 76.8175 71.0939 69.4182 76.8396C62.0189 82.5853 52.921 85.7005 43.5589 85.6941H43.4241Z" fill="#F4F4F4"/>
<path d="M43.2521 85.5485C31.9774 85.5128 21.4061 81.1081 13.4841 73.1476C5.56224 65.1871 1.19922 54.5818 1.19922 43.2875C1.20024 35.3588 3.42764 27.5903 7.62695 20.8695C11.8262 14.1488 17.8281 8.74684 24.9467 5.28089C32.0654 1.81494 40.0137 0.424774 47.8836 1.26923C55.7535 2.11368 63.2276 5.1587 69.4519 10.0564C76.733 15.806 81.9339 23.7863 84.2592 32.777C84.4918 33.6918 84.5199 34.6468 84.3414 35.5737C84.163 36.5007 83.7825 37.3767 83.2271 38.1394C82.6716 38.902 81.955 39.5324 81.1282 39.9855C80.3015 40.4386 79.3851 40.7034 78.4445 40.7608L60.7553 41.8472C60.4362 41.8674 60.1108 41.8782 59.7901 41.8782C52.663 41.8782 46.4919 37.1134 44.7814 30.2906C44.7426 30.1354 44.707 29.9879 44.6729 29.8343C43.9328 33.1184 42.2787 36.1252 39.9023 38.506C37.5258 40.8868 34.5245 42.5442 31.2461 43.286C34.5243 44.0281 37.5255 45.6855 39.9019 48.0663C42.2782 50.4471 43.9325 53.4536 44.6729 56.7376C44.707 56.5824 44.7426 56.4272 44.7814 56.2813C46.4857 49.46 52.6645 44.6952 59.7901 44.6952C60.1108 44.6952 60.4346 44.7045 60.7553 44.7247L78.4445 45.8112C79.3866 45.8696 80.3043 46.1358 81.1317 46.5909C81.9592 47.0459 82.6761 47.6785 83.2311 48.4434C83.7861 49.2083 84.1655 50.0866 84.3421 51.0155C84.5188 51.9444 84.4884 52.9009 84.253 53.8167C81.9245 62.9008 76.6439 70.9502 69.2437 76.6957C61.8436 82.4411 52.7449 85.5558 43.3823 85.5485H43.2521Z" fill="#F4F4F4"/>
<path d="M43.0802 85.4006C31.807 85.3649 21.2341 80.9617 13.3122 72.9996C5.39025 65.0376 1.02878 54.4339 1.02878 43.1473C1.02767 35.2179 3.25358 27.4481 7.4521 20.7259C11.6506 14.0038 17.6524 8.60053 24.7714 5.13366C31.8905 1.66679 39.8396 0.276201 47.7102 1.12082C55.5809 1.96544 63.0556 5.0112 69.28 9.90999C76.561 15.659 81.7619 23.6388 84.0873 32.629C84.3201 33.5439 84.3484 34.499 84.1701 35.426C83.9918 36.3531 83.6113 37.2293 83.0558 37.992C82.5003 38.7547 81.7835 39.385 80.9566 39.8381C80.1298 40.2912 79.2132 40.5557 78.2725 40.6128L60.5834 41.6993C60.2642 41.7194 59.9404 41.7288 59.6197 41.7288C52.4926 41.7288 46.3214 36.9639 44.6094 30.1411C44.5722 29.9859 44.5366 29.8384 44.5025 29.6863C43.7628 32.9719 42.1088 35.9803 39.7321 38.3627C37.3555 40.7451 34.3535 42.4041 31.0741 43.1473C34.3524 43.8891 37.3538 45.5462 39.7304 47.9267C42.1071 50.3072 43.7617 53.3136 44.5025 56.5975C44.5366 56.4423 44.5722 56.2871 44.6094 56.1427C46.3261 49.3137 52.4926 44.5442 59.6197 44.5442C59.9388 44.5442 60.2642 44.5551 60.5834 44.5737L78.2725 45.6601C79.2146 45.7185 80.1323 45.9848 80.9598 46.4398C81.7872 46.8949 82.5041 47.5275 83.0591 48.2924C83.6141 49.0573 83.9935 49.9356 84.1702 50.8645C84.3468 51.7934 84.3164 52.7499 84.0811 53.6656C81.7541 62.7498 76.4748 70.7995 69.0757 76.5456C61.6766 82.2917 52.5786 85.4071 43.2165 85.4006H43.0802Z" fill="#F4F4F4"/>
<path d="M42.9175 85.2551C31.6427 85.2194 21.0714 80.8146 13.1495 72.8541C5.22756 64.8936 0.856796 54.2884 0.856796 42.9925C0.858108 35.0639 3.08572 27.2956 7.28514 20.5751C11.4846 13.8546 17.4864 8.45285 24.605 4.98709C31.7236 1.52133 39.6718 0.1313 47.5416 0.975813C55.4114 1.82033 62.8853 4.86532 69.1095 9.76291C76.3907 15.5122 81.5912 23.4927 83.9153 32.4835C84.1478 33.3983 84.1759 34.3533 83.9975 35.2803C83.819 36.2072 83.4385 37.0833 82.8831 37.8459C82.3276 38.6085 81.611 39.2389 80.7843 39.692C79.9575 40.1452 79.0411 40.4099 78.1005 40.4673L60.4129 41.5537C60.0922 41.5739 59.7684 41.5848 59.4477 41.5848C52.3206 41.5848 46.1494 36.82 44.4389 29.9971C44.4002 29.8419 44.3646 29.6945 44.3305 29.5408C43.5903 32.8252 41.9359 35.8321 39.5592 38.2129C37.1825 40.5938 34.1808 42.251 30.9021 42.9925C34.1807 43.7342 37.1823 45.3915 39.559 47.7723C41.9357 50.1531 43.5901 53.1599 44.3305 56.4442C44.3646 56.289 44.4002 56.1338 44.4389 55.9879C46.1433 49.1666 52.3221 44.4018 59.4477 44.4018C59.7684 44.4018 60.0922 44.4111 60.4129 44.4313L78.1005 45.5177C79.0426 45.5759 79.9603 45.842 80.7878 46.2969C81.6153 46.7517 82.3323 47.3841 82.8874 48.1489C83.4425 48.9136 83.8221 49.7918 83.999 50.7206C84.1759 51.6494 84.1457 52.6059 83.9106 53.5217C81.5824 62.6052 76.3025 70.6542 68.9033 76.3999C61.5041 82.1455 52.4064 85.2609 43.0445 85.2551H42.9175Z" fill="#F4F4F4"/>
<path d="M42.7378 85.1078C31.463 85.0721 20.8917 80.6689 12.9698 72.7068C5.04785 64.7448 0.684837 54.1411 0.686387 42.8467C0.687893 34.9185 2.9157 27.1505 7.11526 20.4304C11.3148 13.7104 17.3167 8.30916 24.4353 4.84398C31.5538 1.37881 39.5019 -0.0105731 47.3713 0.834574C55.2407 1.67972 62.7141 4.72531 68.9375 9.62337C76.2186 15.3724 81.4195 23.3522 83.7448 32.3424C83.9766 33.2566 84.0041 34.2108 83.8255 35.1368C83.6469 36.0629 83.2665 36.9381 82.7114 37.7C82.1564 38.4619 81.4404 39.0918 80.6144 39.5446C79.7885 39.9975 78.873 40.2622 77.9332 40.32L60.244 41.4064C59.9249 41.4266 59.5995 41.4359 59.2803 41.4359C52.1533 41.4359 45.9806 36.6711 44.2701 29.8483C44.2329 29.693 44.1957 29.5378 44.1616 29.3935C43.421 32.6774 41.7667 35.6839 39.3904 38.0647C37.014 40.4454 34.0129 42.1029 30.7348 42.8452C34.0125 43.5878 37.0131 45.2458 39.3886 47.6268C41.7642 50.0079 43.4175 53.0146 44.157 56.2984C44.1911 56.1432 44.2267 55.988 44.2654 55.8437C45.9697 49.0146 52.1486 44.256 59.2741 44.256C59.5949 44.256 59.9187 44.2669 60.2394 44.2855L77.9285 45.3719C78.8707 45.4304 79.7883 45.6966 80.6158 46.1517C81.4433 46.6067 82.1601 47.2393 82.7151 48.0042C83.2701 48.7691 83.6495 49.6474 83.8262 50.5763C84.0029 51.5052 83.9724 52.4617 83.7371 53.3775C81.409 62.4606 76.1293 70.5092 68.7303 76.2543C61.3314 81.9994 52.234 85.1143 42.8725 85.1078H42.7378Z" fill="#F4F4F4"/>
<path d="M42.5658 84.9612C31.2926 84.9255 20.7197 80.5208 12.7978 72.5603C4.87584 64.5997 0.514374 53.9945 0.514374 42.7002C0.514374 37.1505 1.6056 31.6551 3.72575 26.5278C5.8459 21.4006 8.95345 16.7419 12.871 12.8177C16.7885 8.8935 21.4392 5.78073 26.5577 3.65708C31.6761 1.53343 37.162 0.440511 42.7021 0.440715C52.1598 0.405724 61.3491 3.58834 68.7655 9.46749C76.048 15.2166 81.2491 23.1979 83.5729 32.1896C83.8054 33.1045 83.8335 34.0595 83.655 34.9864C83.4766 35.9134 83.0961 36.7894 82.5407 37.552C81.9852 38.3147 81.2686 38.945 80.4418 39.3982C79.6151 39.8513 78.6987 40.116 77.7581 40.1734L60.069 41.2599C59.7498 41.2801 59.426 41.2909 59.1052 41.2909C51.9782 41.2909 45.807 36.5261 44.095 29.7032C44.0578 29.5532 44.0222 29.4011 43.9881 29.2469C43.2474 32.5311 41.5928 35.5377 39.2162 37.9185C36.8396 40.2992 33.8381 41.9566 30.5597 42.6986C33.8383 43.4403 36.8399 45.0976 39.2166 47.4784C41.5933 49.8592 43.2477 52.8661 43.9881 56.1503C44.0222 55.9951 44.0578 55.8399 44.095 55.694C45.7993 48.865 51.9782 44.1079 59.1052 44.1079C59.4244 44.1079 59.7498 44.1172 60.069 44.1374L77.7581 45.2238C78.7009 45.2821 79.6193 45.5485 80.4474 46.0039C81.2754 46.4593 81.9928 47.0925 82.548 47.8581C83.1032 48.6237 83.4826 49.5028 83.6589 50.4324C83.8353 51.3621 83.8043 52.3193 83.5682 53.2356C81.2385 62.3177 75.958 70.365 68.5589 76.1091C61.1598 81.8532 52.063 84.9675 42.7021 84.9612H42.5658Z" fill="#F4F4F4"/>
<path d="M42.3953 84.8142C31.1206 84.7785 20.5492 80.3753 12.6273 72.4133C4.70541 64.4512 0.342392 53.8476 0.342392 42.5532C0.343105 34.6244 2.57036 26.8557 6.76966 20.1348C10.969 13.4139 16.9709 8.01189 24.0897 4.54602C31.2085 1.08015 39.1571 -0.309781 47.027 0.535056C54.897 1.37989 62.3711 4.42542 68.5951 9.32363C75.8762 15.0723 81.0767 23.0523 83.4009 32.0427C83.6337 32.9575 83.662 33.9126 83.4837 34.8397C83.3054 35.7667 82.9249 36.6429 82.3694 37.4056C81.8139 38.1683 81.0971 38.7987 80.2702 39.2517C79.4434 39.7048 78.5268 39.9693 77.5861 40.0265L59.8985 41.1129C59.5778 41.1331 59.254 41.1424 58.9333 41.1424C51.8062 41.1424 45.635 36.3776 43.9245 29.5547C43.8858 29.3995 43.8502 29.2521 43.8161 29.1C43.0754 32.3841 41.4208 35.3907 39.0442 37.7715C36.6676 40.1522 33.6661 41.8097 30.3877 42.5517C33.6662 43.293 36.6677 44.95 39.0444 47.3306C41.4211 49.7111 43.0756 52.7177 43.8161 56.0018C43.8502 55.8466 43.8858 55.6914 43.9245 55.5471C45.6288 48.718 51.8077 43.9594 58.9333 43.9594C59.254 43.9594 59.5778 43.9702 59.8985 43.9889L77.5861 45.0753C78.5284 45.1335 79.4462 45.3996 80.2739 45.8546C81.1015 46.3095 81.8186 46.9421 82.3737 47.707C82.9289 48.4719 83.3084 49.3503 83.4852 50.2793C83.662 51.2083 83.6316 52.165 83.3962 53.0808C81.0684 62.1647 75.7887 70.214 68.3894 75.9597C60.9901 81.7054 51.8922 84.8206 42.5301 84.8142H42.3953Z" fill="#F4F4F4"/>
<path d="M42.2234 84.6678C30.9486 84.6321 20.3773 80.2274 12.4554 72.2669C4.53345 64.3064 0.171982 53.7011 0.171982 42.4068C0.174036 31.2002 4.61954 20.4534 12.5308 12.5299C20.442 4.60636 31.171 0.1551 42.3582 0.1551C51.8156 0.11836 61.0053 3.29874 68.4232 9.17567C75.7043 14.9253 80.9051 22.9056 83.2305 31.8963C83.4643 32.8116 83.4934 33.7674 83.3156 34.6953C83.1378 35.6233 82.7575 36.5004 82.202 37.2639C81.6464 38.0275 80.9293 38.6586 80.1018 39.1122C79.2744 39.5658 78.3572 39.8307 77.4157 39.8878L59.7266 40.9743C59.4074 40.9944 59.082 41.0053 58.7629 41.0053C51.6358 41.0053 45.4631 36.2405 43.7526 29.4176C43.7154 29.2624 43.6782 29.115 43.6441 28.9613C42.9027 32.2449 41.2474 35.2508 38.8701 37.6305C36.4929 40.0102 33.4911 41.6663 30.2127 42.4068C33.491 43.1486 36.4924 44.8059 38.8688 47.1867C41.2453 49.5676 42.8994 52.5743 43.6395 55.8585C43.6736 55.7033 43.7108 55.5481 43.7479 55.4022C45.4522 48.5809 51.6311 43.8161 58.7567 43.8161C59.0774 43.8161 59.4027 43.8254 59.7219 43.8456L77.411 44.932C78.353 44.9905 79.2705 45.2567 80.0978 45.7116C80.9252 46.1666 81.6419 46.799 82.1969 47.5638C82.7519 48.3285 83.1313 49.2066 83.3081 50.1353C83.4849 51.064 83.4547 52.0203 83.2196 52.936C80.8915 62.0186 75.6122 70.0668 68.214 75.8121C60.8157 81.5574 51.7192 84.673 42.3582 84.6678H42.2234Z" fill="#F4F4F4"/>
<path d="M42.0514 84.5208C30.7782 84.4851 20.2053 80.0819 12.2849 72.1198C4.36457 64.1577 0 53.5541 0 42.2597C-3.73643e-09 36.71 1.09123 31.2146 3.21138 26.0874C5.33153 20.9601 8.43908 16.3014 12.3566 12.3772C16.2741 8.45305 20.9249 5.34028 26.0433 3.21663C31.1617 1.09298 36.6476 6.13346e-05 42.1877 0.000265159C51.6462 -0.0334568 60.8359 3.1502 68.2527 9.03015C75.5338 14.7789 80.7343 22.7589 83.0585 31.7492C83.2913 32.664 83.3196 33.6191 83.1413 34.5462C82.963 35.4732 82.5825 36.3494 82.027 37.1121C81.4715 37.8748 80.7547 38.5052 79.9279 38.9583C79.101 39.4113 78.1845 39.6759 77.2437 39.733L59.5546 40.8194C59.2354 40.8396 58.9116 40.8489 58.5909 40.8489C51.4638 40.8489 45.2927 36.0841 43.5806 29.2612C43.5434 29.106 43.5078 28.9508 43.4737 28.8065C42.7328 32.0905 41.0782 35.0971 38.7016 37.4778C36.325 39.8585 33.3237 41.516 30.0453 42.2582C33.3252 43.0004 36.3277 44.659 38.7046 47.0416C41.0814 49.4242 42.7351 52.4331 43.4737 55.7192C43.5078 55.564 43.5434 55.4088 43.5806 55.2644C45.2927 48.4354 51.4638 43.6768 58.5909 43.6768C58.91 43.6768 59.2354 43.6876 59.5546 43.7063L77.2437 44.7927C78.186 44.8509 79.1038 45.117 79.9315 45.5719C80.7591 46.0269 81.4762 46.6595 82.0314 47.4244C82.5865 48.1893 82.966 49.0677 83.1428 49.9967C83.3196 50.9257 83.2892 51.8823 83.0538 52.7982C80.7238 61.8799 75.4431 69.9266 68.044 75.6702C60.6449 81.4137 51.5483 84.5275 42.1877 84.5208H42.0514Z" fill="#F4F4F4"/>
<path d="M59.412 46.0232L77.1012 47.1097C77.7015 47.1474 78.2861 47.3175 78.8133 47.6077C79.3405 47.8979 79.7972 48.3012 80.1507 48.7887C80.5043 49.2762 80.7461 49.8359 80.8588 50.4278C80.9715 51.0197 80.9523 51.6292 80.8026 52.2129C76.3745 69.4919 60.6995 82.2592 42.0591 82.1924C36.8319 82.1865 31.657 81.1487 26.8304 79.1382C22.0038 77.1277 17.6201 74.184 13.9298 70.4754C10.2396 66.7667 7.31517 62.3659 5.32377 57.5244C3.33237 52.683 2.31303 47.4958 2.32403 42.2595C2.32403 20.2063 20.1727 2.32812 42.1877 2.32812C60.7801 2.32812 76.3977 15.0783 80.8072 32.3263C80.9542 32.9087 80.9711 33.5165 80.8567 34.1062C80.7423 34.6959 80.4996 35.2531 80.1456 35.738C79.7917 36.223 79.3354 36.6238 78.8092 36.9118C78.2829 37.1999 77.6997 37.3682 77.1012 37.4047L59.412 38.4911C53.1355 38.8776 47.3672 34.8003 45.8349 28.6898C45.7993 28.5455 45.7652 28.3996 45.7327 28.2537L44.1151 20.9109C44.0835 20.7638 44.0025 20.632 43.8857 20.5375C43.7688 20.4429 43.6231 20.3914 43.4729 20.3914C43.3227 20.3914 43.177 20.4429 43.0602 20.5375C42.9433 20.632 42.8623 20.7638 42.8307 20.9109L41.2132 28.2615C40.5802 31.1329 39.141 33.7632 37.0652 35.8424C34.9893 37.9216 32.3634 39.3629 29.4968 39.9966L22.1668 41.6169C22.0199 41.6486 21.8884 41.7297 21.794 41.8468C21.6996 41.9639 21.6481 42.1098 21.6481 42.2603C21.6481 42.4107 21.6996 42.5567 21.794 42.6737C21.8884 42.7908 22.0199 42.8719 22.1668 42.9036L29.4968 44.524C32.3634 45.1576 34.9893 46.599 37.0652 48.6781C39.141 50.7573 40.5802 53.3876 41.2132 56.2591L42.8291 63.6034C42.8608 63.7505 42.9418 63.8823 43.0586 63.9769C43.1755 64.0714 43.3212 64.123 43.4714 64.123C43.6216 64.123 43.7672 64.0714 43.8841 63.9769C44.001 63.8823 44.082 63.7505 44.1136 63.6034L45.7311 56.2591C45.7636 56.1132 45.7977 55.9688 45.8334 55.8229C47.3672 49.7125 53.1433 45.6306 59.412 46.0232Z" fill="#222226"/>
</svg>
