<svg width="54" height="54" viewBox="0 0 54 54" fill="none" xmlns="http://www.w3.org/2000/svg">
<path d="M30.1841 53.1702C23.6681 53.1496 17.5586 50.6049 12.9804 46.0034C8.40208 41.4019 5.88147 35.2737 5.88147 28.7464C5.88167 24.1642 7.16869 19.6744 9.59546 15.7902C12.0222 11.9059 15.4909 8.78389 19.605 6.78084C23.7191 4.77779 28.3128 3.97452 32.861 4.46281C37.4093 4.95111 41.7287 6.71128 45.3256 9.54219C49.5336 12.8647 52.5393 17.4764 53.8832 22.6721C54.0177 23.2007 54.0341 23.7525 53.9311 24.2882C53.8282 24.8238 53.6085 25.3301 53.2876 25.7708C52.9668 26.2116 52.5528 26.576 52.0751 26.8379C51.5975 27.0998 51.068 27.2529 50.5244 27.2862L40.3014 27.9141C40.117 27.9248 39.9289 27.9311 39.7445 27.9311C35.6255 27.9311 32.0582 25.1774 31.0696 21.2343C31.0482 21.1446 31.0267 21.0594 31.007 20.9715C30.5789 22.8693 29.6229 24.6069 28.2495 25.9828C26.8762 27.3586 25.1418 28.3166 23.2472 28.7455C25.1415 29.1747 26.8756 30.1329 28.2485 31.509C29.6214 32.8851 30.5769 34.6227 31.0043 36.5205C31.024 36.4308 31.0446 36.3411 31.067 36.2577C32.0519 32.311 35.6229 29.5609 39.7409 29.5609C39.9262 29.5609 40.1134 29.5672 40.2987 29.5779L50.5217 30.2058C51.0662 30.2396 51.5966 30.3935 52.0748 30.6564C52.553 30.9194 52.9673 31.285 53.2881 31.7271C53.6088 32.1691 53.8281 32.6767 53.9302 33.2136C54.0323 33.7504 54.0147 34.3032 53.8787 34.8324C52.5331 40.0817 49.4818 44.7331 45.2057 48.0534C40.9297 51.3736 35.6722 53.1738 30.262 53.1702H30.1841Z" fill="#E860ED"/>
<path d="M30.0847 53.085C23.5696 53.0653 17.4592 50.5196 12.8819 45.9182C8.30447 41.3167 5.78207 35.1894 5.78207 28.6621C5.78232 24.0798 7.06939 19.5899 9.4962 15.7056C11.923 11.8213 15.3917 8.69919 19.5059 6.69607C23.6201 4.69294 28.2138 3.88959 32.7621 4.37781C37.3105 4.86603 41.63 6.62613 45.2271 9.45698C49.4351 12.7796 52.4406 17.3918 53.7838 22.5878C53.9182 23.1165 53.9344 23.6683 53.8313 24.204C53.7282 24.7397 53.5082 25.2459 53.1872 25.6866C52.8662 26.1273 52.452 26.4915 51.9742 26.7533C51.4964 27.0151 50.9668 27.1679 50.4232 27.201L40.2002 27.8288C40.0158 27.8405 39.8286 27.8459 39.6433 27.8459C35.5244 27.8459 31.9579 25.0931 30.9685 21.15C30.947 21.0633 30.9264 20.9754 30.9067 20.8863C30.4786 22.7842 29.5224 24.5218 28.1489 25.8978C26.7754 27.2737 25.0408 28.2315 23.1461 28.6603C25.0409 29.0889 26.7757 30.0466 28.1492 31.4226C29.5228 32.7985 30.4789 34.5363 30.9067 36.4344C30.9264 36.3459 30.947 36.258 30.9685 36.1707C31.9534 32.2285 35.5244 29.4748 39.6433 29.4748C39.8277 29.4748 40.0158 29.4802 40.2002 29.4918L50.4232 30.1197C50.9677 30.1534 51.4981 30.3071 51.9763 30.57C52.4545 30.8329 52.8689 31.1984 53.1897 31.6404C53.5106 32.0823 53.7299 32.5898 53.8321 33.1266C53.9344 33.6634 53.9169 34.2162 53.7811 34.7454C52.4357 39.9952 49.3844 44.6472 45.1082 47.9679C40.832 51.2886 35.5741 53.0892 30.1635 53.0859L30.0847 53.085Z" fill="#E860ED"/>
<path d="M29.9862 53.0006C23.4702 52.98 17.3608 50.4344 12.7825 45.8338C8.20418 41.2332 5.68268 35.1042 5.68268 28.5769C5.68309 23.9946 6.97028 19.5049 9.39716 15.6207C11.824 11.7365 15.2927 8.61454 19.4069 6.61152C23.521 4.6085 28.1147 3.80523 32.663 4.29348C37.2113 4.78173 41.5307 6.54182 45.1277 9.37263C49.3357 12.695 52.3412 17.3068 53.6844 22.5026C53.8188 23.0313 53.835 23.5832 53.7319 24.1189C53.6288 24.6546 53.4088 25.1609 53.0878 25.6016C52.7668 26.0424 52.3527 26.4067 51.8749 26.6686C51.3971 26.9305 50.8675 27.0834 50.3239 27.1166L40.1017 27.7445C39.9173 27.7553 39.7292 27.7615 39.5439 27.7615C35.425 27.7615 31.8585 25.0078 30.87 21.0647C30.8476 20.975 30.827 20.8853 30.8073 20.8019C30.3792 22.6999 29.423 24.4375 28.0495 25.8134C26.676 27.1893 24.9414 28.1472 23.0467 28.576C24.9414 29.0044 26.6761 29.9621 28.0496 31.3379C29.4232 32.7136 30.3793 34.4512 30.8073 36.3492C30.827 36.2595 30.8476 36.1698 30.87 36.0864C31.8549 32.1397 35.4259 29.3895 39.5439 29.3895C39.7292 29.3895 39.9164 29.3958 40.1017 29.4066L50.3239 30.0345C50.8684 30.0681 51.3989 30.2219 51.8772 30.4848C52.3555 30.7477 52.7699 31.1133 53.0908 31.5554C53.4116 31.9975 53.631 32.5051 53.7331 33.042C53.8353 33.5789 53.8177 34.1318 53.6817 34.6611C52.3363 39.9108 49.2849 44.5626 45.0087 47.8832C40.7325 51.2038 35.4746 53.0042 30.0641 53.0006H29.9862Z" fill="#E860ED"/>
<path d="M29.8868 52.9154C23.3717 52.8957 17.2614 50.3501 12.6831 45.7486C8.10481 41.1471 5.5842 35.019 5.5842 28.4926C5.58423 23.9102 6.87113 19.4203 9.29783 15.536C11.7245 11.6516 15.1932 8.52943 19.3073 6.52627C23.4215 4.52311 28.0152 3.71976 32.5635 4.20803C37.1119 4.69629 41.4313 6.45647 45.0284 9.28743C49.2363 12.6103 52.242 17.2223 53.5859 22.4183C53.7203 22.9469 53.7365 23.4988 53.6334 24.0344C53.5303 24.5701 53.3104 25.0763 52.9893 25.517C52.6683 25.9577 52.2541 26.3219 51.7763 26.5837C51.2986 26.8455 50.769 26.9984 50.2254 27.0314L40.0024 27.6593C39.8179 27.6709 39.6299 27.6763 39.4454 27.6763C35.3265 27.6763 31.7591 24.9235 30.7706 20.9804C30.7491 20.8907 30.7276 20.8055 30.7079 20.7167C30.2803 22.6154 29.324 24.3537 27.9501 25.73C26.5762 27.1063 24.8409 28.0642 22.9455 28.4926C24.8402 28.9213 26.5747 29.8791 27.9481 31.255C29.3215 32.631 30.2775 34.3687 30.7052 36.2667C30.7249 36.177 30.7464 36.0873 30.7679 36.003C31.7529 32.0607 35.3238 29.307 39.4418 29.307C39.6272 29.307 39.8152 29.3124 39.9997 29.3241L50.2227 29.952C50.7671 29.9857 51.2973 30.1396 51.7755 30.4025C52.2536 30.6655 52.6678 31.031 52.9886 31.4729C53.3093 31.9149 53.5286 32.4223 53.6308 32.9591C53.7329 33.4958 53.7155 34.0485 53.5796 34.5777C52.2341 39.8268 49.1831 44.478 44.9075 47.7984C40.6318 51.1187 35.3747 52.9193 29.9647 52.9163L29.8868 52.9154Z" fill="#E860ED"/>
<path d="M29.7874 52.832C23.2723 52.8114 17.162 50.2657 12.5846 45.6652C8.0072 41.0646 5.4848 34.9346 5.4848 28.4073C5.48521 23.8251 6.7724 19.3353 9.19929 15.4511C11.6262 11.567 15.0949 8.44498 19.209 6.44197C23.3232 4.43895 27.9168 3.63567 32.4651 4.12393C37.0134 4.61218 41.3328 6.37227 44.9299 9.20308C49.1381 12.5259 52.1436 17.1384 53.4865 22.3348C53.6209 22.8635 53.6371 23.4154 53.534 23.9511C53.4309 24.4868 53.211 24.9931 52.89 25.4339C52.569 25.8746 52.1548 26.2389 51.677 26.5008C51.1992 26.7627 50.6696 26.9157 50.126 26.9489L39.903 27.5767C39.7185 27.5875 39.5314 27.5938 39.346 27.5938C35.2271 27.5938 31.6606 24.8401 30.6712 20.897C30.6497 20.8073 30.6291 20.722 30.6094 20.6341C30.1812 22.5321 29.225 24.2696 27.8515 25.6455C26.478 27.0214 24.7434 27.9793 22.8488 28.4082C24.7435 28.8367 26.4782 29.7943 27.8517 31.1701C29.2253 32.5459 30.1815 34.2835 30.6094 36.1814C30.6291 36.0917 30.6497 36.002 30.6712 35.9186C31.6606 31.9719 35.2271 29.2218 39.346 29.2218C39.5305 29.2218 39.7185 29.2281 39.9039 29.2388L50.126 29.8667C50.6706 29.9003 51.201 30.0541 51.6793 30.3171C52.1576 30.58 52.572 30.9456 52.8929 31.3876C53.2137 31.8297 53.4331 32.3374 53.5352 32.8742C53.6374 33.4111 53.6198 33.964 53.4838 34.4933C52.1382 39.7429 49.0868 44.3945 44.8106 47.7149C40.5344 51.0353 35.2766 52.8356 29.8662 52.832H29.7874Z" fill="#E860ED"/>
<path d="M29.6889 52.7423C23.1729 52.7226 17.0635 50.177 12.4852 45.5755C7.90691 40.974 5.38541 34.8494 5.38541 28.323C5.38565 23.7407 6.67272 19.2508 9.09954 15.3665C11.5264 11.4822 14.995 8.36008 19.1092 6.35696C23.2234 4.35383 27.8171 3.55048 32.3655 4.0387C36.9138 4.52692 41.2334 6.28702 44.8305 9.11787C49.0384 12.4396 52.0447 17.0503 53.3898 22.2451C53.524 22.7738 53.5401 23.3256 53.4369 23.8612C53.3338 24.3968 53.1138 24.9029 52.7928 25.3436C52.4718 25.7842 52.0577 26.1484 51.58 26.4103C51.1023 26.6721 50.5728 26.8251 50.0293 26.8583L39.8063 27.4861C39.6218 27.4978 39.4338 27.5032 39.2484 27.5032C35.1295 27.5032 31.563 24.7504 30.5745 20.8073C30.5521 20.7176 30.5315 20.6324 30.5118 20.5436C30.084 22.4417 29.1279 24.1794 27.7543 25.5554C26.3808 26.9314 24.646 27.8891 22.7512 28.3176C24.646 28.7462 26.3808 29.7039 27.7543 31.0799C29.1279 32.4558 30.084 34.1936 30.5118 36.0917C30.5315 36.002 30.5521 35.9123 30.5745 35.828C31.5594 31.8858 35.1304 29.1321 39.2484 29.1321C39.4338 29.1321 39.6209 29.1375 39.8063 29.1491L50.0284 29.777C50.5729 29.8107 51.1032 29.9645 51.5814 30.2273C52.0597 30.4902 52.474 30.8557 52.7949 31.2977C53.1157 31.7396 53.3351 32.2471 53.4373 32.7839C53.5395 33.3207 53.5221 33.8735 53.3862 34.4027C52.0415 39.6536 48.9903 44.3066 44.7136 47.6281C40.437 50.9496 35.1783 52.7505 29.7668 52.7468L29.6889 52.7423Z" fill="#E860ED"/>
<path d="M29.5895 52.6617C23.0744 52.641 16.9641 50.0954 12.3858 45.4948C7.8075 40.8942 5.2869 34.7652 5.2869 28.2379C5.28709 23.6556 6.57411 19.1659 9.00089 15.2816C11.4277 11.3974 14.8963 8.27534 19.0104 6.27229C23.1245 4.26924 27.7182 3.46597 32.2664 3.95427C36.8147 4.44257 41.1341 6.20274 44.7311 9.03364C48.939 12.3562 51.9447 16.9679 53.2886 22.1636C53.423 22.6923 53.4392 23.2442 53.3361 23.7799C53.233 24.3156 53.0131 24.8219 52.6921 25.2626C52.3711 25.7034 51.9569 26.0677 51.4791 26.3296C51.0013 26.5915 50.4717 26.7445 49.9281 26.7776L39.7051 27.4055C39.5206 27.4163 39.3335 27.4225 39.1481 27.4225C35.0292 27.4225 31.4627 24.6688 30.4733 20.7257C30.4518 20.636 30.4303 20.5463 30.4106 20.4629C29.9827 22.3608 29.0267 24.0983 27.6533 25.474C26.2799 26.8498 24.5454 27.8075 22.6509 28.2361C24.5454 28.6651 26.2798 29.623 27.6532 30.9989C29.0265 32.3748 29.9826 34.1123 30.4106 36.0102C30.4303 35.9205 30.4518 35.8308 30.4733 35.7474C31.4582 31.8007 35.0292 29.0506 39.1472 29.0506C39.3326 29.0506 39.5206 29.0568 39.7051 29.0676L49.9281 29.6955C50.4726 29.7292 51.0029 29.8831 51.4811 30.1461C51.9593 30.4091 52.3736 30.7747 52.6944 31.2167C53.0151 31.6588 53.2344 32.1664 53.3365 32.7032C53.4386 33.2401 53.421 33.7929 53.285 34.3221C51.9399 39.5718 48.8888 44.2237 44.6127 47.5443C40.3366 50.8649 35.0788 52.6653 29.6683 52.6617H29.5895Z" fill="#E860ED"/>
<path d="M29.491 52.5765C22.9751 52.5567 16.8656 50.0111 12.2873 45.4096C7.70903 40.8081 5.18753 34.68 5.18753 28.1536C5.18777 23.5712 6.47484 19.0814 8.90166 15.1971C11.3285 11.3128 14.7972 8.19065 18.9113 6.18752C23.0255 4.1844 27.6192 3.38104 32.1676 3.86926C36.716 4.35748 41.0355 6.11758 44.6326 8.94844C48.8406 12.2711 51.8461 16.8832 53.1892 22.0793C53.3236 22.6079 53.3399 23.1598 53.2367 23.6955C53.1336 24.2311 52.9137 24.7374 52.5927 25.178C52.2717 25.6187 51.8575 25.9829 51.3797 26.2447C50.9019 26.5065 50.3723 26.6594 49.8287 26.6924L39.6066 27.3203C39.4212 27.332 39.2341 27.3373 39.0487 27.3373C34.9298 27.3373 31.3633 24.5845 30.3739 20.6414C30.3524 20.5547 30.3318 20.4668 30.3121 20.3777C29.8843 22.2758 28.9282 24.0136 27.5547 25.3896C26.1811 26.7655 24.4463 27.7233 22.5515 28.1518C24.4463 28.5803 26.1811 29.5381 27.5547 30.914C28.9282 32.29 29.8843 34.0278 30.3121 35.9259C30.3318 35.8368 30.3524 35.7489 30.3739 35.6622C31.3625 31.7218 34.9298 28.9725 39.0487 28.9725C39.2332 28.9725 39.4212 28.9779 39.6066 28.9896L49.8287 29.6175C50.3732 29.6511 50.9035 29.8049 51.3818 30.0678C51.86 30.3306 52.2744 30.6961 52.5952 31.1381C52.916 31.5801 53.1354 32.0876 53.2376 32.6244C53.3398 33.1611 53.3224 33.7139 53.1865 34.2432C51.8401 39.4913 48.7886 44.1415 44.5131 47.461C40.2375 50.7805 34.9809 52.5805 29.5716 52.5774L29.491 52.5765Z" fill="#E860ED"/>
<path d="M29.3925 52.4921C22.8766 52.4715 16.7671 49.9259 12.1888 45.3253C7.61053 40.7247 5.08813 34.5956 5.08813 28.0683C5.08855 23.4861 6.37574 18.9963 8.80262 15.1122C11.2295 11.228 14.6982 8.106 18.8123 6.10298C22.9265 4.09996 27.5202 3.29668 32.0684 3.78494C36.6167 4.27319 40.9362 6.03328 44.5332 8.86409C48.7411 12.1866 51.7469 16.7983 53.0907 21.994C53.2251 22.5227 53.2413 23.0746 53.1382 23.6103C53.0351 24.1461 52.8152 24.6524 52.4942 25.0931C52.1732 25.5338 51.759 25.8982 51.2812 26.16C50.8034 26.4219 50.2738 26.5749 49.7302 26.6081L39.5072 27.236C39.3227 27.2467 39.1347 27.253 38.9494 27.253C34.8304 27.253 31.264 24.4993 30.2754 20.5562C30.253 20.4665 30.2324 20.3813 30.2127 20.2934C29.7849 22.1912 28.8288 23.9287 27.4554 25.3045C26.0821 26.6802 24.3476 27.6379 22.453 28.0666C24.3475 28.4955 26.082 29.4535 27.4553 30.8293C28.8287 32.2052 29.7847 33.9428 30.2127 35.8406C30.2324 35.7509 30.253 35.6613 30.2754 35.5778C31.2604 31.6311 34.8313 28.881 38.9494 28.881C39.1347 28.881 39.3218 28.8873 39.5072 28.898L49.7302 29.5259C50.2747 29.5597 50.805 29.7136 51.2833 29.9765C51.7615 30.2395 52.1758 30.6051 52.4965 31.0472C52.8173 31.4892 53.0365 31.9968 53.1386 32.5337C53.2407 33.0705 53.2232 33.6233 53.0871 34.1525C51.7419 39.4023 48.6905 44.0542 44.4143 47.3748C40.138 50.6954 34.8801 52.4958 29.4695 52.4921H29.3925Z" fill="#E860ED"/>
<path d="M29.2922 52.4068C22.7771 52.3871 16.6668 49.8415 12.0885 45.24C7.51023 40.6385 4.98962 34.5104 4.98962 27.9858C4.98905 23.403 6.27563 18.9125 8.70229 15.0275C11.1289 11.1426 14.5978 8.01991 18.7123 6.01647C22.8269 4.01302 27.4211 3.20963 31.9699 3.69812C36.5186 4.1866 40.8385 5.94725 44.4356 8.77883C48.6435 12.1017 51.6492 16.7137 52.9931 21.9097C53.1276 22.4386 53.1437 22.9907 53.0404 23.5267C52.937 24.0626 52.7168 24.569 52.3954 25.0097C52.074 25.4505 51.6594 25.8146 51.1811 26.0762C50.7029 26.3378 50.1729 26.4903 49.629 26.5228L39.406 27.1507C39.2215 27.1623 39.0344 27.1677 38.849 27.1677C34.7301 27.1677 31.1637 24.4149 30.1742 20.4718C30.1527 20.3851 30.1321 20.2972 30.1124 20.2081C29.6851 22.1065 28.7294 23.8447 27.3562 25.2213C25.983 26.5978 24.2484 27.5564 22.3536 27.9858C24.2484 28.4144 25.9831 29.3722 27.3567 30.7481C28.7302 32.1241 29.6863 33.8618 30.1142 35.7599C30.1339 35.6714 30.1545 35.5835 30.176 35.4962C31.1654 31.5539 34.7319 28.8002 38.8508 28.8002C39.0353 28.8002 39.2233 28.8056 39.4078 28.8173L49.6308 29.4452C50.1752 29.4791 50.7055 29.633 51.1836 29.8961C51.6618 30.1591 52.076 30.5247 52.3967 30.9667C52.7174 31.4087 52.9367 31.9163 53.0389 32.453C53.141 32.9898 53.1236 33.5425 52.9877 34.0718C51.6419 39.3207 48.5904 43.9717 44.3144 47.2914C40.0383 50.6112 34.7809 52.4109 29.371 52.4068H29.2922Z" fill="#E860ED"/>
<path d="M29.1937 52.3226C22.6778 52.3019 16.5683 49.7563 11.99 45.1557C7.41173 40.5551 4.89023 34.4261 4.89023 27.8961C4.89114 23.3141 6.1787 18.8247 8.60578 14.9409C11.0329 11.0571 14.5016 7.93552 18.6156 5.93283C22.7297 3.93014 27.3232 3.1271 31.8712 3.61545C36.4192 4.10381 40.7384 5.86386 44.3353 8.69453C48.5432 12.0169 51.5487 16.6287 52.8919 21.8245C53.0263 22.3532 53.0425 22.9051 52.9394 23.4408C52.8363 23.9765 52.6164 24.4828 52.2954 24.9235C51.9744 25.3643 51.5602 25.7286 51.0824 25.9905C50.6046 26.2524 50.075 26.4053 49.5314 26.4385L39.3093 27.0664C39.1239 27.0772 38.9368 27.0834 38.7514 27.0834C34.6325 27.0834 31.066 24.3297 30.0775 20.3866C30.0551 20.2969 30.0345 20.2072 30.0148 20.1238C29.5867 22.0216 28.6305 23.759 27.257 25.1346C25.8834 26.5102 24.1488 27.4677 22.2542 27.8961C24.1501 28.3244 25.8859 29.2823 27.2603 30.6588C28.6347 32.0352 29.5913 33.7738 30.0193 35.6729C30.039 35.5832 30.0596 35.4935 30.082 35.4101C31.0669 31.4634 34.6379 28.7132 38.7559 28.7132C38.9413 28.7132 39.1284 28.7195 39.3138 28.7303L49.5359 29.3582C50.0805 29.3918 50.6109 29.5456 51.0892 29.8085C51.5676 30.0714 51.982 30.437 52.3028 30.8791C52.6236 31.3212 52.843 31.8288 52.9451 32.3657C53.0473 32.9026 53.0297 33.4555 52.8937 33.9848C51.5475 39.2347 48.4952 43.8865 44.2182 47.2068C39.9412 50.527 34.6826 52.3269 29.2716 52.3226H29.1937Z" fill="#E860ED"/>
<path d="M29.0944 52.2374C22.5784 52.2177 16.4689 49.672 11.8906 45.0705C7.31236 40.4691 4.79085 34.3409 4.79175 27.8145C4.79211 23.2323 6.07926 18.7427 8.50609 14.8586C10.9329 10.9744 14.4016 7.85255 18.5157 5.84961C22.6298 3.84667 27.2233 3.04348 31.7715 3.53181C36.3197 4.02014 40.639 5.7803 44.2359 8.61116C48.4436 11.9339 51.4493 16.5455 52.7934 21.7411C52.928 22.2698 52.9443 22.8218 52.8413 23.3575C52.7383 23.8933 52.5184 24.3997 52.1973 24.8405C51.8763 25.2812 51.4621 25.6456 50.9842 25.9074C50.5063 26.1692 49.9766 26.3221 49.4329 26.3551L39.2099 26.983C39.0255 26.9947 38.8374 27.0001 38.653 27.0001C34.534 27.0001 30.9667 24.2472 29.9781 20.3041C29.9566 20.2144 29.9352 20.1247 29.9155 20.0404C29.4877 21.9384 28.5318 23.6761 27.1584 25.0521C25.785 26.428 24.0504 27.3858 22.1557 27.8145C24.0504 28.2432 25.785 29.201 27.1584 30.577C28.5318 31.9529 29.4877 33.6906 29.9155 35.5886C29.9352 35.4989 29.9557 35.4092 29.9781 35.3249C30.9631 31.3827 34.534 28.629 38.6521 28.629C38.8374 28.629 39.0246 28.6344 39.2099 28.646L49.4329 29.2739C49.978 29.3076 50.5088 29.4617 50.9874 29.7251C51.466 29.9884 51.8806 30.3545 52.2014 30.7972C52.5222 31.2399 52.7413 31.7481 52.8431 32.2855C52.9448 32.823 52.9266 33.3763 52.7899 33.9059C51.4432 39.1542 48.3913 43.8044 44.1151 47.1235C39.839 50.4425 34.5818 52.2417 29.1723 52.2374H29.0944Z" fill="#E860ED"/>
<path d="M28.995 52.153C22.4799 52.1324 16.3695 49.5868 11.7912 44.9862C7.21296 40.3856 4.69235 34.2566 4.69235 27.7293C4.69188 23.1467 5.97841 18.6565 8.40492 14.7717C10.8314 10.8869 14.3 7.76436 18.4143 5.76087C22.5285 3.75738 27.1224 2.9538 31.671 3.44197C36.2196 3.93013 40.5393 5.69034 44.1365 8.52143C48.345 11.8435 51.3508 16.4554 52.694 21.6514C52.8284 22.1801 52.8447 22.732 52.7415 23.2677C52.6384 23.8034 52.4185 24.3097 52.0975 24.7504C51.7765 25.1912 51.3623 25.5555 50.8845 25.8174C50.4068 26.0793 49.8771 26.2322 49.3335 26.2654L39.1105 26.8933C38.9261 26.9041 38.7389 26.9103 38.5536 26.9103C34.4346 26.9103 30.8682 24.1566 29.8787 20.2135C29.8572 20.1238 29.8366 20.0386 29.8169 19.9507C29.3887 21.8485 28.4324 23.5859 27.0589 24.9617C25.6854 26.3374 23.9509 27.2951 22.0563 27.7239C23.951 28.1527 25.6856 29.1106 27.0591 30.4865C28.4327 31.8624 29.3889 33.6 29.8169 35.498C29.8366 35.4083 29.8572 35.3186 29.8787 35.2352C30.8682 31.2885 34.4346 28.5384 38.5536 28.5384C38.738 28.5384 38.9261 28.5446 39.1105 28.5554L49.3335 29.1833C49.8788 29.2167 50.4099 29.3706 50.8888 29.6339C51.3677 29.8972 51.7825 30.2634 52.1034 30.7062C52.4244 31.1491 52.6435 31.6575 52.7452 32.1952C52.8468 32.7329 52.8284 33.2864 52.6913 33.8162C51.3451 39.0652 48.2935 43.7163 44.0174 47.0363C39.7413 50.3563 34.4839 52.1564 29.0737 52.153H28.995Z" fill="#E860ED"/>
<path d="M28.8965 52.0678C22.3805 52.0481 16.271 49.5024 11.6928 44.901C7.11447 40.2995 4.58939 34.1749 4.58939 27.6449C4.5891 23.062 5.876 18.5714 8.303 14.6864C10.73 10.8015 14.1992 7.67892 18.314 5.67567C22.4288 3.67241 27.0232 2.86928 31.5722 3.35808C36.1211 3.84687 40.441 5.60787 44.038 8.43978C48.2458 11.7623 51.2512 16.3741 52.5947 21.5697C52.7292 22.0984 52.7456 22.6504 52.6425 23.1862C52.5395 23.7219 52.3196 24.2283 51.9985 24.6691C51.6775 25.1099 51.2633 25.4742 50.7854 25.736C50.3075 25.9979 49.7778 26.1507 49.2341 26.1838L39.012 26.8116C38.8267 26.8233 38.6395 26.8287 38.4542 26.8287C34.3352 26.8287 30.7688 24.0759 29.7802 20.1328C29.7579 20.0431 29.7373 19.9579 29.7176 19.8691C29.2904 21.767 28.3349 23.5049 26.962 24.8811C25.5891 26.2574 23.8549 27.2157 21.9605 27.6449C23.8554 28.0735 25.5901 29.0312 26.9637 30.4072C28.3373 31.7831 29.2934 33.5209 29.7211 35.419C29.7408 35.3293 29.7614 35.2396 29.7838 35.1553C30.7688 31.2131 34.3397 28.4594 38.4578 28.4594C38.6431 28.4594 38.8303 28.4648 39.0156 28.4764L49.2377 29.1043C49.7822 29.1381 50.3126 29.292 50.7908 29.555C51.2691 29.8179 51.6834 30.1835 52.0042 30.6255C52.325 31.0676 52.5444 31.5751 52.6466 32.112C52.7488 32.6488 52.7314 33.2016 52.5956 33.7309C51.2496 38.9808 48.1975 43.6325 43.9206 46.9527C39.6437 50.2728 34.3852 52.0724 28.9744 52.0678H28.8965Z" fill="#E860ED"/>
<path d="M28.797 51.9836C22.2811 51.9629 16.1716 49.4173 11.5933 44.8167C7.01505 40.2161 4.49445 34.0853 4.49445 27.5598C4.49464 22.9775 5.78166 18.4878 8.20844 14.6035C10.6352 10.7193 14.1038 7.59724 18.218 5.59419C22.3321 3.59114 26.9257 2.78787 31.474 3.27617C36.0223 3.76447 40.3417 5.52464 43.9386 8.35554C48.1459 11.6783 51.151 16.29 52.4943 21.4855C52.6292 22.0142 52.6458 22.5663 52.543 23.1022C52.4402 23.6381 52.2205 24.1447 51.8997 24.5857C51.5788 25.0267 51.1647 25.3914 50.6869 25.6535C50.2091 25.9157 49.6794 26.0689 49.1356 26.1022L38.9126 26.7301C38.7282 26.7409 38.5401 26.7471 38.3557 26.7471C34.2367 26.7471 30.6694 23.9934 29.6808 20.0503C29.6593 19.9606 29.6378 19.8709 29.6181 19.7875C29.1903 21.6853 28.2342 23.4228 26.8609 24.7986C25.4875 26.1744 23.753 27.1321 21.8584 27.5607C23.753 27.9897 25.4874 28.9476 26.8607 30.3235C28.2341 31.6994 29.1901 33.4369 29.6181 35.3348C29.6378 35.2451 29.6593 35.1554 29.6808 35.072C30.6658 31.1253 34.2367 28.3752 38.3548 28.3752C38.5401 28.3752 38.7282 28.3805 38.9126 28.3922L49.1356 29.0201C49.6804 29.0536 50.211 29.2073 50.6895 29.4702C51.168 29.7331 51.5826 30.0988 51.9036 30.541C52.2245 30.9832 52.4439 31.491 52.5461 32.028C52.6482 32.5651 52.6305 33.1181 52.4943 33.6476C51.1482 38.8969 48.0963 43.5482 43.8197 46.8681C39.5432 50.188 34.2853 51.9877 28.8749 51.9836H28.797Z" fill="#E860ED"/>
<path d="M28.6977 51.8984C22.1826 51.8777 16.0723 49.333 11.4949 44.7315C6.91748 40.13 4.39508 34.0019 4.39508 27.4755C4.39532 22.8931 5.68239 18.4033 8.10921 14.519C10.536 10.6347 14.0047 7.51255 18.1189 5.50942C22.2331 3.50629 26.8268 2.70294 31.3752 3.19116C35.9235 3.67938 40.243 5.43948 43.8401 8.27034C48.0479 11.5929 51.0533 16.2046 52.3968 21.4003C52.531 21.9289 52.5471 22.4806 52.4439 23.0162C52.3407 23.5517 52.1208 24.0579 51.7998 24.4984C51.4788 24.939 51.0647 25.3031 50.5869 25.5649C50.1092 25.8266 49.5797 25.9795 49.0363 26.0125L38.8132 26.6404C38.6288 26.6521 38.4416 26.6574 38.2563 26.6574C34.1374 26.6574 30.5709 23.9046 29.5815 19.9615C29.56 19.8742 29.5394 19.7863 29.5197 19.6978C29.0918 21.5959 28.1357 23.3336 26.7621 24.7095C25.3886 26.0855 23.6539 27.0433 21.7591 27.4719C23.6546 27.9008 25.3898 28.8594 26.7635 30.2364C28.1371 31.6133 29.0928 33.3523 29.5197 35.2514C29.5394 35.1623 29.56 35.0744 29.5815 34.9877C30.5709 31.041 34.1374 28.2917 38.2563 28.2917C38.4407 28.2917 38.6288 28.2971 38.8132 28.3088L49.0363 28.9367C49.5808 28.9705 50.1111 29.1243 50.5894 29.3873C51.0676 29.6503 51.4819 30.0159 51.8027 30.4579C52.1236 30.8999 52.3429 31.4075 52.4451 31.9443C52.5474 32.4811 52.5299 33.034 52.3941 33.5633C51.0479 38.8122 47.9963 43.4631 43.7201 46.7828C39.4439 50.1026 34.1865 51.9023 28.7765 51.8984H28.6977Z" fill="#E860ED"/>
<path d="M28.5992 51.814C22.0832 51.7934 15.9738 49.2477 11.3955 44.6472C6.81719 40.0466 4.29568 33.9175 4.29568 27.3902C4.2961 22.808 5.58329 18.3182 8.01017 14.4341C10.4371 10.5499 13.9057 7.42789 18.0199 5.42488C22.134 3.42186 26.7277 2.61858 31.276 3.10684C35.8243 3.59509 40.1437 5.35518 43.7407 8.18599C47.9487 11.5085 50.9544 16.1202 52.2983 21.3159C52.4323 21.8446 52.4483 22.3964 52.3451 22.932C52.2418 23.4676 52.0219 23.9737 51.7009 24.4144C51.38 24.855 50.9659 25.2194 50.4883 25.4813C50.0107 25.7433 49.4813 25.8965 48.9378 25.93L38.7147 26.5578C38.5303 26.5686 38.3423 26.5749 38.1569 26.5749C34.038 26.5749 30.4715 23.8212 29.483 19.8781C29.4606 19.7884 29.44 19.7032 29.4203 19.6153C28.9923 21.5132 28.0362 23.2508 26.6626 24.6266C25.2891 26.0024 23.5544 26.96 21.6597 27.3884C23.5542 27.8172 25.2888 28.7749 26.6623 30.1507C28.0358 31.5264 28.9921 33.2638 29.4203 35.1616C29.44 35.0719 29.4606 34.9822 29.483 34.8988C30.4679 30.9521 34.0389 28.202 38.1569 28.202C38.3423 28.202 38.5294 28.2074 38.7147 28.219L48.9369 28.8469C49.4814 28.8806 50.0119 29.0343 50.4902 29.2973C50.9685 29.5602 51.3829 29.9258 51.7038 30.3679C52.0246 30.8099 52.244 31.3176 52.3461 31.8545C52.4483 32.3914 52.4307 32.9442 52.2947 33.4735C50.9494 38.7235 47.898 43.3757 43.6216 46.6965C39.3451 50.0172 34.087 51.8177 28.6762 51.814H28.5992Z" fill="#E860ED"/>
<path d="M28.4971 51.7288C21.982 51.7082 15.8717 49.1634 11.2934 44.562C6.7151 39.9605 4.19717 33.8323 4.19717 27.3059C4.1972 22.7236 5.4841 18.2337 7.91081 14.3493C10.3375 10.4649 13.8061 7.34279 17.9203 5.33963C22.0344 3.33647 26.6282 2.53312 31.1765 3.02138C35.7248 3.50965 40.0443 5.26983 43.6413 8.10078C47.8491 11.4235 50.8547 16.0351 52.1989 21.2307C52.3334 21.7594 52.3498 22.3114 52.2467 22.8472C52.1437 23.3829 51.9238 23.8893 51.6027 24.3301C51.2817 24.7709 50.8675 25.1352 50.3896 25.397C49.9117 25.6589 49.382 25.8117 48.8383 25.8448L38.6153 26.4726C38.4309 26.4843 38.2437 26.4897 38.0584 26.4897C33.9395 26.4897 30.373 23.7369 29.3836 19.7938C29.3621 19.7041 29.3406 19.6188 29.3209 19.53C28.8932 21.4281 27.9372 23.1657 26.5638 24.5417C25.1904 25.9176 23.4558 26.8755 21.5612 27.3041C23.4558 27.7328 25.1904 28.6906 26.5638 30.0666C27.9372 31.4425 28.8932 33.1802 29.3209 35.0782C29.3406 34.9885 29.3621 34.8988 29.3836 34.8145C30.3685 30.8723 33.9394 28.1186 38.0575 28.1186C38.2428 28.1186 38.4309 28.124 38.6153 28.1356L48.8383 28.7635C49.3828 28.7973 49.9132 28.9512 50.3914 29.2141C50.8696 29.4771 51.2839 29.8427 51.6046 30.2848C51.9254 30.7268 52.1447 31.2344 52.2468 31.7713C52.3489 32.3081 52.3313 32.8609 52.1953 33.3901C50.8501 38.6397 47.799 43.2915 43.5228 46.612C39.2467 49.9324 33.989 51.7327 28.5786 51.7288H28.4971Z" fill="#E860ED"/>
<path d="M28.4004 51.6444C21.8853 51.6238 15.775 49.0782 11.1976 44.4776C6.62018 39.877 4.09778 33.7479 4.09778 27.2206C4.09859 22.6389 5.3859 18.1497 7.81265 14.266C10.2394 10.3822 13.7077 7.2606 17.8214 5.25768C21.9351 3.25476 26.5282 2.45131 31.076 2.93914C35.6239 3.42696 39.9431 5.18638 43.5401 8.01639C47.7481 11.3387 50.7536 15.9506 52.0968 21.1463C52.2312 21.675 52.2474 22.2269 52.1443 22.7626C52.0412 23.2984 51.8212 23.8047 51.5002 24.2454C51.1792 24.6861 50.7651 25.0505 50.2873 25.3123C49.8095 25.5742 49.2799 25.7272 48.7363 25.7604L38.5141 26.3883C38.3288 26.399 38.1417 26.4053 37.9563 26.4053C33.8374 26.4053 30.2709 23.6516 29.2815 19.7085C29.26 19.6188 29.2394 19.5291 29.2197 19.4457C28.7917 21.3436 27.8356 23.0812 26.462 24.457C25.0885 25.8328 23.3538 26.7904 21.4591 27.2189C23.3538 27.6477 25.0884 28.6055 26.4619 29.9814C27.8354 31.3573 28.7916 33.095 29.2197 34.9929C29.2394 34.9032 29.26 34.8136 29.2815 34.7301C30.2664 30.7834 33.8374 28.0333 37.9563 28.0333C38.1408 28.0333 38.3288 28.0387 38.5141 28.0504L48.7363 28.6782C49.2808 28.7119 49.8113 28.8657 50.2896 29.1286C50.7679 29.3915 51.1823 29.7571 51.5032 30.1992C51.824 30.6412 52.0434 31.1489 52.1455 31.6858C52.2477 32.2227 52.2301 32.7755 52.0941 33.3048C50.7485 38.5539 47.6975 43.2053 43.4219 46.5257C39.1463 49.8462 33.8892 51.647 28.4792 51.6444H28.4004Z" fill="#E860ED"/>
<path d="M28.3019 51.5592C21.7859 51.5386 15.6765 48.9939 11.0982 44.3924C6.51989 39.7909 3.99838 33.6628 3.99838 27.1364C3.99863 22.554 5.28569 18.0642 7.71251 14.1799C10.1393 10.2955 13.608 7.17344 17.7222 5.17031C21.8364 3.16718 26.4301 2.36383 30.9785 2.85205C35.5268 3.34027 39.8463 5.10037 43.4434 7.93122C47.6512 11.2539 50.6569 15.8656 52.001 21.0612C52.1352 21.5896 52.1514 22.1411 52.0484 22.6765C51.9454 23.2119 51.7258 23.718 51.4052 24.1586C51.0846 24.5993 50.6709 24.9636 50.1937 25.2258C49.7164 25.4879 49.1873 25.6414 48.644 25.6752L38.421 26.3031C38.2366 26.3148 38.0485 26.3201 37.8632 26.3201C33.7442 26.3201 30.1778 23.5673 29.1892 19.6242C29.1669 19.5345 29.1463 19.4448 29.1266 19.3605C28.6989 21.2585 27.7429 22.9962 26.3695 24.3721C24.9961 25.7481 23.2615 26.7059 21.3669 27.1346C23.2613 27.5639 24.9954 28.5222 26.3683 29.8984C27.7412 31.2746 28.6967 33.0125 29.1239 34.9105C29.1436 34.8208 29.1642 34.7311 29.1866 34.6468C30.1715 30.7046 33.7425 27.9508 37.8605 27.9508C38.0458 27.9508 38.233 27.9562 38.4183 27.9679L48.6414 28.5958C49.1859 28.6295 49.7162 28.7834 50.1944 29.0464C50.6726 29.3094 51.0869 29.675 51.4077 30.117C51.7284 30.5591 51.9477 31.0667 52.0498 31.6035C52.1519 32.1403 52.1343 32.6931 51.9983 33.2224C50.6526 38.4719 47.601 43.1234 43.3245 46.4435C39.0481 49.7636 33.7902 51.5635 28.3798 51.5592H28.3019Z" fill="#E860ED"/>
<path d="M28.2025 51.4749C21.6874 51.4543 15.5771 48.9086 10.9988 44.3081C6.42051 39.7075 3.8999 33.5784 3.8999 27.0511C3.9001 22.4689 5.18712 17.9791 7.61389 14.0949C10.0407 10.2106 13.5093 7.08858 17.6234 5.08553C21.7375 3.08248 26.3312 2.2792 30.8795 2.7675C35.4277 3.2558 39.7471 5.01597 43.3441 7.84687C47.552 11.1694 50.5577 15.7811 51.9016 20.9768C52.036 21.5055 52.0522 22.0574 51.9491 22.5931C51.846 23.1288 51.6261 23.6351 51.3051 24.0759C50.9841 24.5166 50.5699 24.8809 50.0921 25.1428C49.6143 25.4047 49.0847 25.5577 48.5411 25.5909L38.3181 26.2187C38.1336 26.2295 37.9465 26.2358 37.7611 26.2358C33.6422 26.2358 30.0757 23.4821 29.0863 19.539C29.0648 19.4493 29.0442 19.364 29.0245 19.2761C28.5963 21.174 27.64 22.9114 26.2665 24.2871C24.893 25.6629 23.1585 26.6206 21.2639 27.0493C23.1585 27.4783 24.8931 28.4362 26.2666 29.812C27.6401 31.1879 28.5963 32.9255 29.0245 34.8234C29.0442 34.7337 29.0648 34.644 29.0863 34.5606C30.0757 30.6139 33.6422 27.8638 37.7611 27.8638C37.9456 27.8638 38.1336 27.8692 38.3181 27.8808L48.5411 28.5087C49.0856 28.5425 49.6159 28.6964 50.0941 28.9593C50.5723 29.2223 50.9866 29.5879 51.3074 30.03C51.6281 30.472 51.8474 30.9796 51.9495 31.5165C52.0516 32.0533 52.034 32.6061 51.898 33.1353C50.5526 38.3849 47.5014 43.0366 43.2254 46.3572C38.9493 49.6777 33.6917 51.4782 28.2813 51.4749H28.2025Z" fill="#E860ED"/>
<path d="M28.104 51.3897C21.588 51.3691 15.4786 48.8243 10.9003 44.2229C6.32201 39.6214 3.80051 33.4932 3.80051 26.9668C3.80075 22.3845 5.08782 17.8946 7.51464 14.0103C9.94145 10.126 13.4101 7.00388 17.5243 5.00076C21.6385 2.99763 26.2322 2.19427 30.7806 2.6825C35.3289 3.17072 39.6485 4.93081 43.2456 7.76167C47.4533 11.0842 50.4588 15.696 51.8022 20.8916C51.9368 21.4203 51.9531 21.9723 51.8501 22.5081C51.747 23.0438 51.5271 23.5502 51.2061 23.991C50.8851 24.4318 50.4708 24.7961 49.9929 25.0579C49.5151 25.3198 48.9854 25.4726 48.4417 25.5057L38.2196 26.1335C38.0342 26.1452 37.8471 26.1506 37.6617 26.1506C33.5428 26.1506 29.9763 23.3978 28.9878 19.4547C28.9654 19.365 28.9448 19.2797 28.9251 19.1909C28.4973 21.0891 27.5412 22.8268 26.1677 24.2028C24.7941 25.5787 23.0593 26.5365 21.1645 26.965C23.0593 27.3936 24.7941 28.3513 26.1677 29.7273C27.5412 31.1032 28.4973 32.841 28.9251 34.7391C28.9448 34.6494 28.9654 34.5597 28.9878 34.4754C29.9727 30.5332 33.5437 27.7786 37.6617 27.7786C37.8471 27.7786 38.0342 27.7849 38.2196 27.7965L48.4417 28.4244C48.9863 28.458 49.5167 28.6118 49.995 28.8748C50.4733 29.1377 50.8878 29.5033 51.2086 29.9453C51.5294 30.3874 51.7488 30.8951 51.8509 31.4319C51.9531 31.9688 51.9355 32.5217 51.7995 33.051C50.4541 38.3006 47.4027 42.9524 43.1264 46.2728C38.8502 49.5932 33.5924 51.3935 28.1819 51.3897H28.104Z" fill="#E860ED"/>
<path d="M28.0046 51.3071C21.4887 51.2865 15.3792 48.7409 10.8009 44.1403C6.22263 39.5397 3.70113 33.4089 3.70203 26.8816C3.70223 22.2993 4.98925 17.8095 7.41602 13.9253C9.84279 10.041 13.3114 6.91902 17.4255 4.91597C21.5397 2.91292 26.1333 2.10965 30.6816 2.59795C35.2298 3.08624 39.5492 4.84641 43.1462 7.67732C47.3546 11.0005 50.3604 15.6133 51.7037 20.8099C51.8381 21.3386 51.8543 21.8906 51.7512 22.4263C51.6481 22.962 51.4282 23.4683 51.1072 23.909C50.7862 24.3498 50.372 24.7141 49.8942 24.976C49.4164 25.2378 48.8868 25.3908 48.3432 25.424L38.1202 26.0519C37.9357 26.0626 37.7477 26.0689 37.5632 26.0689C33.4443 26.0689 29.877 23.3152 28.8884 19.3721C28.866 19.2824 28.8454 19.1927 28.8257 19.1093C28.3976 21.0071 27.4414 22.7445 26.0679 24.1201C24.6943 25.4957 22.9597 26.4532 21.0651 26.8816C22.9596 27.3106 24.6941 28.2685 26.0674 29.6444C27.4408 31.0203 28.3968 32.7578 28.8248 34.6557C28.8445 34.566 28.8651 34.4763 28.8875 34.3929C29.8725 30.4462 33.4434 27.696 37.5614 27.696C37.7468 27.696 37.9339 27.7014 38.1193 27.7131L48.3423 28.341C48.8868 28.3747 49.4171 28.5286 49.8953 28.7916C50.3736 29.0546 50.7879 29.4201 51.1086 29.8622C51.4294 30.3043 51.6486 30.8119 51.7507 31.3487C51.8528 31.8855 51.8352 32.4383 51.6992 32.9676C50.3538 38.2171 47.3026 42.8688 43.0266 46.1894C38.7506 49.5099 33.4929 51.3105 28.0825 51.3071H28.0046Z" fill="#E860ED"/>
<path d="M27.9052 51.2175C21.3901 51.1969 15.2798 48.6522 10.7015 44.0507C6.12322 39.4492 3.6044 33.3237 3.6044 26.7973C3.6047 22.2153 4.89168 17.7258 7.31829 13.8417C9.74491 9.95765 13.2133 6.83571 17.3271 4.83262C21.441 2.82952 26.0343 2.02606 30.5824 2.51404C35.1304 3.00201 39.4497 4.76175 43.0468 7.59217C47.2545 10.9141 50.2602 15.5252 51.6043 20.7203C51.7389 21.249 51.7552 21.801 51.6522 22.3368C51.5491 22.8725 51.3292 23.3789 51.0082 23.8197C50.6871 24.2605 50.2729 24.6248 49.795 24.8866C49.3172 25.1485 48.7875 25.3013 48.2438 25.3344L38.0208 25.9622C37.8363 25.9739 37.6492 25.9793 37.4638 25.9793C33.3449 25.9793 29.7784 23.2265 28.789 19.2834C28.7675 19.1961 28.7469 19.1081 28.7272 19.0196C28.2991 20.9176 27.3429 22.6552 25.9694 24.0311C24.5959 25.4071 22.8613 26.3649 20.9666 26.7937C22.8614 27.2224 24.5961 28.1802 25.9696 29.5561C27.3432 30.932 28.2993 32.6698 28.7272 34.5678C28.7469 34.4787 28.7675 34.3908 28.789 34.3041C29.7784 30.3574 33.3449 27.6073 37.4638 27.6073C37.6483 27.6073 37.8363 27.6136 38.0208 27.6252L48.2438 28.2531C48.7886 28.287 49.3192 28.4411 49.7976 28.7045C50.276 28.9678 50.6904 29.3339 51.011 29.7765C51.3316 30.219 51.5506 30.7271 51.6523 31.2644C51.7539 31.8017 51.7357 32.3548 51.5989 32.8842C50.2528 38.1325 47.2015 42.7829 42.9258 46.1023C38.6502 49.4216 33.3934 51.2213 27.984 51.2175H27.9052Z" fill="#E860ED"/>
<path d="M27.8067 51.1359C21.2908 51.1153 15.1813 48.5697 10.603 43.9691C6.02474 39.3685 3.50323 33.2394 3.50323 26.7121C3.50365 22.1299 4.79084 17.6401 7.21772 13.756C9.6446 9.87176 13.1133 6.74979 17.2274 4.74677C21.3416 2.74376 25.9353 1.94048 30.4835 2.42873C35.0318 2.91699 39.3512 4.67708 42.9483 7.50788C47.1579 10.8295 50.165 15.4415 51.5094 20.6378C51.6438 21.1665 51.66 21.7184 51.5569 22.2541C51.4538 22.7899 51.2339 23.2962 50.9129 23.7369C50.5919 24.1776 50.1777 24.5419 49.6999 24.8038C49.2221 25.0657 48.6925 25.2187 48.1489 25.2519L37.9268 25.8797C37.7414 25.8905 37.5543 25.8968 37.3689 25.8968C33.25 25.8968 29.6835 23.1431 28.695 19.2C28.6726 19.1103 28.652 19.0251 28.6323 18.9372C28.2044 20.8351 27.2482 22.5727 25.8746 23.9485C24.5011 25.3243 22.7664 26.2819 20.8717 26.7104C22.7664 27.1392 24.501 28.097 25.8745 29.4729C27.248 30.8488 28.2042 32.5865 28.6323 34.4844C28.652 34.3947 28.6726 34.305 28.695 34.2207C29.6799 30.2785 33.2509 27.5248 37.3689 27.5248C37.5543 27.5248 37.7414 27.5302 37.9268 27.5418L48.1489 28.1697C48.6935 28.2034 49.2239 28.3571 49.7022 28.6201C50.1805 28.883 50.595 29.2486 50.9158 29.6907C51.2366 30.1327 51.456 30.6404 51.5581 31.1773C51.6603 31.7142 51.6427 32.267 51.5067 32.7963C50.1609 38.0467 47.1089 42.699 42.8318 46.0196C38.5547 49.3403 33.2959 51.1403 27.8846 51.1359H27.8067Z" fill="#E860ED"/>
<path d="M27.7073 51.0507C21.1914 51.0301 15.0819 48.4853 10.5036 43.8839C5.92533 39.2824 3.40472 33.1542 3.40472 26.6278C3.40475 22.0455 4.69165 17.5556 7.11836 13.6712C9.54506 9.78685 13.0137 6.66469 17.1278 4.66153C21.242 2.65837 25.8357 1.85502 30.3841 2.34328C34.9324 2.83155 39.2519 4.59173 42.8489 7.42268C47.0566 10.7454 50.0623 15.357 51.4064 20.5526C51.541 21.0813 51.5573 21.6333 51.4543 22.1691C51.3512 22.7048 51.1313 23.2112 50.8103 23.652C50.4893 24.0928 50.075 24.4571 49.5971 24.7189C49.1193 24.9808 48.5896 25.1336 48.0459 25.1667L37.8229 25.7945C37.6384 25.8062 37.4504 25.8116 37.2659 25.8116C33.147 25.8116 29.5797 23.0588 28.5911 19.1148C28.5696 19.0251 28.5481 18.9408 28.5284 18.8519C28.1007 20.75 27.1447 22.4876 25.7713 23.8636C24.3979 25.2395 22.6634 26.1974 20.7687 26.626C22.6634 27.0547 24.3979 28.0126 25.7713 29.3885C27.1447 30.7644 28.1007 32.5021 28.5284 34.4001C28.5481 34.3104 28.5696 34.2207 28.5911 34.1364C29.5761 30.1897 33.147 27.4396 37.265 27.4396C37.4504 27.4396 37.6384 27.4459 37.8229 27.4575L48.0459 28.0854C48.5904 28.1192 49.1207 28.2731 49.5989 28.536C50.0772 28.799 50.4915 29.1646 50.8122 29.6067C51.1329 30.0487 51.3522 30.5563 51.4543 31.0932C51.5564 31.63 51.5388 32.1828 51.4028 32.712C50.0575 37.9617 47.0062 42.6135 42.7299 45.934C38.4536 49.2544 33.1957 51.0546 27.7852 51.0507H27.7073Z" fill="#E860ED"/>
<path d="M27.608 50.9664C21.0929 50.9458 14.9825 48.4002 10.4051 43.7996C5.82776 39.199 3.30536 33.07 3.30536 26.5427C3.30595 21.9605 4.59323 17.4708 7.02011 13.5867C9.447 9.70262 12.9156 6.58069 17.0297 4.57763C21.1437 2.57456 25.7373 1.77115 30.2855 2.25918C34.8337 2.74722 39.1532 4.50701 42.7504 7.3375C46.9582 10.6603 49.9637 15.2724 51.3071 20.4683C51.4414 20.997 51.4577 21.5489 51.3545 22.0847C51.2514 22.6204 51.0315 23.1267 50.7105 23.5674C50.3895 24.0081 49.9753 24.3725 49.4976 24.6343C49.0198 24.8962 48.4902 25.0492 47.9465 25.0824L37.7235 25.7103C37.5391 25.721 37.3519 25.7273 37.1666 25.7273C33.0476 25.7273 29.4812 22.9736 28.4917 19.0305C28.4703 18.9408 28.4497 18.8511 28.43 18.7677C28.0018 20.6655 27.0456 22.403 25.6721 23.7788C24.2985 25.1545 22.564 26.1122 20.6693 26.5409C22.564 26.9697 24.2986 27.9276 25.6722 29.3035C27.0457 30.6794 28.0019 32.417 28.43 34.315C28.4497 34.2271 28.4703 34.1391 28.4917 34.0512C29.4821 30.1108 33.0476 27.358 37.1666 27.358C37.351 27.358 37.5391 27.3634 37.7235 27.3751L47.9465 28.0029C48.4911 28.0366 49.0215 28.1903 49.4999 28.4533C49.9782 28.7162 50.3926 29.0818 50.7134 29.5239C51.0343 29.9659 51.2536 30.4736 51.3558 31.0105C51.4579 31.5474 51.4404 32.1002 51.3044 32.6295C49.9583 37.8778 46.9074 42.5283 42.6322 45.8483C38.357 49.1682 33.1006 50.9688 27.6912 50.9664H27.608Z" fill="#E860ED"/>
<path d="M27.5121 50.8811C20.9962 50.8605 14.8867 48.3158 10.3084 43.7143C5.73015 39.1128 3.20596 32.9847 3.20596 26.461C3.2057 21.8784 4.49241 17.3882 6.91902 13.5035C9.34564 9.61876 12.8143 6.49625 16.9286 4.4928C21.0428 2.48934 25.6368 1.68576 30.1854 2.17388C34.734 2.662 39.0537 4.42213 42.651 7.25312C46.8588 10.5756 49.8642 15.1874 51.2077 20.3831C51.3422 20.9117 51.3586 21.4636 51.2556 21.9993C51.1526 22.535 50.9328 23.0413 50.6118 23.4821C50.2909 23.9229 49.8768 24.2872 49.399 24.5491C48.9212 24.811 48.3916 24.964 47.848 24.9971L37.625 25.625C37.4406 25.6367 37.2525 25.642 37.0672 25.642C32.9482 25.642 29.3818 22.8892 28.3932 18.9452C28.3709 18.8555 28.3503 18.7712 28.3306 18.6824C27.9035 20.5813 26.9478 22.3201 25.5741 23.6969C24.2005 25.0737 22.4654 26.0321 20.57 26.461C22.4648 26.8895 24.1995 27.8473 25.5731 29.2232C26.9467 30.5992 27.9028 32.3369 28.3306 34.2351C28.3503 34.1454 28.3709 34.0557 28.3932 33.9714C29.3782 30.0247 32.9491 27.2745 37.0672 27.2745C37.2525 27.2745 37.4397 27.2808 37.625 27.2925L47.8471 27.9204C48.3917 27.954 48.9221 28.1078 49.4005 28.3707C49.8788 28.6336 50.2932 28.9992 50.6141 29.4413C50.9349 29.8834 51.1542 30.391 51.2564 30.9279C51.3586 31.4648 51.341 32.0177 51.205 32.547C49.8588 37.7958 46.8071 42.4466 42.5309 45.7662C38.2547 49.0858 32.9973 50.8853 27.5874 50.8811H27.5121Z" fill="#E860ED"/>
<path d="M27.41 50.7968C20.895 50.7761 14.7846 48.2305 10.2063 43.6299C5.62806 39.0293 3.10745 32.9003 3.10745 26.3712C3.10764 21.7885 4.39482 17.2984 6.82191 13.4138C9.24899 9.52931 12.7181 6.40714 16.8327 4.40413C20.9472 2.40113 25.5414 1.5981 30.09 2.08681C34.6386 2.57553 38.9582 4.33628 42.5552 7.16784C46.7616 10.4914 49.766 15.1033 51.1091 20.2987C51.2435 20.8274 51.2598 21.3793 51.1566 21.915C51.0535 22.4507 50.8336 22.957 50.5126 23.3977C50.1916 23.8385 49.7774 24.2028 49.2996 24.4647C48.8219 24.7266 48.2922 24.8795 47.7486 24.9127L37.5256 25.5406C37.3412 25.5514 37.1531 25.5576 36.9687 25.5576C32.8497 25.5576 29.2833 22.8039 28.2938 18.8608C28.2723 18.7711 28.2508 18.6859 28.2311 18.598C27.8033 20.4958 26.8472 22.2333 25.4739 23.6091C24.1005 24.9849 22.366 25.9426 20.4714 26.3712C22.3657 26.8007 24.0998 27.759 25.4727 29.1352C26.8456 30.5115 27.8011 32.2492 28.2285 34.1471C28.2482 34.0574 28.2697 33.9677 28.2911 33.8834C29.2761 29.9412 32.847 27.1874 36.9651 27.1874C37.1504 27.1874 37.3385 27.1928 37.5229 27.2045L47.7459 27.8324C48.2904 27.8661 48.8208 28.02 49.299 28.283C49.7772 28.546 50.1915 28.9116 50.5122 29.3536C50.833 29.7957 51.0522 30.3033 51.1544 30.8401C51.2565 31.3769 51.2389 31.9297 51.1029 32.459C49.7572 37.7079 46.7061 42.359 42.4305 45.6792C38.1548 48.9994 32.8978 50.7998 27.488 50.7968H27.41Z" fill="#E860ED"/>
<path d="M27.3107 50.7116C20.7956 50.6909 14.6852 48.1462 10.1078 43.5447C5.53045 38.9433 3.00806 32.8151 3.00806 26.2887C3.0088 21.7066 4.29624 17.2171 6.72325 13.3332C9.15027 9.44925 12.619 6.32755 16.7331 4.32475C20.8472 2.32195 25.4407 1.51883 29.9888 2.00715C34.5369 2.49547 38.8562 4.25554 42.4531 7.08625C46.6609 10.4088 49.6663 15.0205 51.0097 20.2162C51.1443 20.7449 51.1606 21.2969 51.0576 21.8326C50.9546 22.3684 50.7347 22.8748 50.4136 23.3156C50.0926 23.7563 49.6783 24.1207 49.2005 24.3825C48.7226 24.6443 48.1929 24.7972 47.6492 24.8302L37.4271 25.4581C37.2418 25.4698 37.0546 25.4752 36.8693 25.4752C32.7503 25.4752 29.1839 22.7223 28.1944 18.7783C28.1729 18.6886 28.1524 18.6043 28.1327 18.5155C27.7048 20.4136 26.7486 22.1513 25.3751 23.5273C24.0015 24.9032 22.2668 25.861 20.372 26.2896C22.2668 26.7181 24.0014 27.6757 25.375 29.0515C26.7485 30.4273 27.7047 32.1649 28.1327 34.0628C28.1524 33.9731 28.1729 33.8834 28.1944 33.8C29.1839 29.8533 32.7503 27.1032 36.8693 27.1032C37.0537 27.1032 37.2418 27.1094 37.4271 27.1211L47.6492 27.749C48.1938 27.7826 48.7242 27.9364 49.2026 28.1993C49.6809 28.4623 50.0953 28.8278 50.4161 29.2699C50.737 29.712 50.9563 30.2196 51.0585 30.7565C51.1606 31.2934 51.1431 31.8463 51.0071 32.3756C49.6611 37.6247 46.6095 42.2758 42.3333 45.5957C38.0571 48.9156 32.7996 50.7155 27.3895 50.7116H27.3107Z" fill="#E860ED"/>
<path d="M27.2122 50.6273C20.6962 50.6066 14.5868 48.061 10.0085 43.4604C5.43019 38.8598 2.90869 32.7308 2.90869 26.2035C2.90895 21.6212 4.19598 17.1313 6.62273 13.2469C9.04949 9.36256 12.5181 6.24036 16.6322 4.23708C20.7463 2.2338 25.34 1.43023 29.8884 1.91819C34.4368 2.40616 38.7564 4.16597 42.3537 6.99656C46.5617 10.3194 49.5674 14.9315 50.9113 20.1274C51.0453 20.6561 51.0613 21.2079 50.9581 21.7435C50.8548 22.279 50.6349 22.7852 50.3139 23.2259C49.993 23.6665 49.579 24.0308 49.1013 24.2928C48.6237 24.5548 48.0943 24.708 47.5508 24.7414L37.3278 25.3693C37.1433 25.3801 36.9553 25.3864 36.7699 25.3864C32.651 25.3864 29.0845 22.6326 28.096 18.6895C28.0736 18.5998 28.053 18.5101 28.0333 18.4267C27.6054 20.3246 26.6494 22.0621 25.276 23.4378C23.9026 24.8136 22.1681 25.7713 20.2736 26.1999C22.1681 26.6288 23.9026 27.5867 25.276 28.9626C26.6493 30.3385 27.6054 32.0761 28.0333 33.974C28.053 33.8843 28.0736 33.7946 28.096 33.7103C29.0809 29.7681 32.6519 27.0144 36.7699 27.0144C36.9553 27.0144 37.1424 27.0198 37.3278 27.0314L47.5499 27.6593C48.095 27.6928 48.6261 27.8466 49.1049 28.1099C49.5837 28.3731 49.9984 28.7393 50.3194 29.182C50.6403 29.6247 50.8595 30.1331 50.9612 30.6706C51.0629 31.2082 51.0446 31.7616 50.9077 32.2913C49.5616 37.5403 46.51 42.1913 42.2338 45.5112C37.9576 48.8311 32.7002 50.631 27.2901 50.6273H27.2122Z" fill="#E860ED"/>
<path d="M27.1128 50.542C20.5977 50.5214 14.4874 47.9767 9.90907 43.3752C5.33079 38.7737 2.81018 32.6501 2.81018 26.1183C2.81038 21.536 4.0974 17.0462 6.52417 13.162C8.95094 9.27774 12.4196 6.15571 16.5337 4.15266C20.6478 2.14961 25.2415 1.34634 29.7897 1.83464C34.338 2.32294 38.6574 4.08311 42.2543 6.91401C46.4621 10.2367 49.4678 14.8484 50.8119 20.0439C50.9464 20.5727 50.9628 21.1246 50.8597 21.6604C50.7567 22.1962 50.5368 22.7025 50.2158 23.1433C49.8947 23.5841 49.4805 23.9484 49.0026 24.2103C48.5247 24.4721 47.995 24.625 47.4514 24.658L37.2283 25.2859C37.0439 25.2975 36.8567 25.3029 36.6714 25.3029C32.5525 25.3029 28.986 22.5501 27.9966 18.6061C27.9751 18.5164 27.9536 18.4321 27.9339 18.3433C27.5062 20.2413 26.5502 21.979 25.1768 23.3549C23.8034 24.7309 22.0688 25.6887 20.1742 26.1174C22.0687 26.546 23.8032 27.5037 25.1766 28.8795C26.55 30.2552 27.506 31.9927 27.9339 33.8906C27.9536 33.8009 27.9751 33.7112 27.9966 33.6278C28.9815 29.6811 32.5525 26.9309 36.6705 26.9309C36.8559 26.9309 37.0439 26.9372 37.2283 26.9489L47.4514 27.5768C47.9959 27.6105 48.5262 27.7644 49.0044 28.0274C49.4826 28.2904 49.8969 28.656 50.2177 29.098C50.5384 29.5401 50.7577 30.0477 50.8598 30.5845C50.9619 31.1213 50.9443 31.6741 50.8083 32.2034C49.4631 37.453 46.412 42.1048 42.1359 45.4252C37.8597 48.7457 32.602 50.5459 27.1916 50.542H27.1128Z" fill="#E860ED"/>
<path d="M27.0143 50.4577C20.4983 50.4371 14.3888 47.8915 9.81056 43.2909C5.23228 38.6903 2.70898 32.5603 2.70898 26.0339C2.70931 21.4514 3.9965 16.9614 6.42348 13.077C8.85046 9.19259 12.3193 6.07043 16.4337 4.06731C20.5481 2.06418 25.142 1.26088 29.6905 1.7492C34.239 2.23752 38.5587 3.99776 42.1558 6.82878C46.3638 10.1514 49.3693 14.7636 50.7125 19.9596C50.8475 20.4886 50.8642 21.0408 50.7613 21.577C50.6585 22.1132 50.4387 22.6199 50.1177 23.0611C49.7966 23.5023 49.3822 23.8669 48.9041 24.129C48.426 24.3911 47.896 24.5442 47.352 24.5772L37.1298 25.2051C36.9445 25.2159 36.7573 25.2222 36.572 25.2222C32.4531 25.2222 28.8866 22.4685 27.8972 18.5253C27.8757 18.4357 27.8551 18.3504 27.8354 18.2625C27.4074 20.1605 26.4513 21.8981 25.0777 23.2739C23.7042 24.6496 21.9695 25.6073 20.0748 26.0357C21.9695 26.4644 23.7043 27.4222 25.0778 28.7981C26.4514 30.174 27.4075 31.9118 27.8354 33.8098C27.8551 33.7201 27.8757 33.6304 27.8981 33.5461C28.883 29.5994 32.4531 26.8502 36.572 26.8502C36.7573 26.8502 36.9445 26.8556 37.1298 26.8672L47.352 27.4951C47.8965 27.5287 48.427 27.6825 48.9053 27.9455C49.3836 28.2084 49.798 28.574 50.1189 29.016C50.4397 29.4581 50.6591 29.9658 50.7612 30.5026C50.8634 31.0395 50.8458 31.5924 50.7098 32.1217C49.3634 37.3706 46.3117 42.0214 42.0356 45.3413C37.7595 48.6611 32.5022 50.4611 27.0922 50.4577H27.0143Z" fill="#E860ED"/>
<path d="M26.9149 50.3725C20.3989 50.3519 14.2895 47.8071 9.7112 43.2056C5.13291 38.6042 2.61141 32.476 2.6123 25.9487C2.6125 21.3665 3.89952 16.8767 6.32629 12.9924C8.75307 9.10819 12.2217 5.98616 16.3358 3.98311C20.4499 1.98006 25.0436 1.17679 29.5919 1.66508C34.1401 2.15338 38.4595 3.91355 42.0565 6.74446C46.2642 10.0672 49.2699 14.6788 50.614 19.8744C50.7484 20.4031 50.7646 20.9549 50.6615 21.4906C50.5584 22.0262 50.3385 22.5325 50.0175 22.9732C49.6964 23.4138 49.2822 23.7781 48.8045 24.0399C48.3267 24.3016 47.7971 24.4545 47.2535 24.4875L37.0305 25.1154C36.846 25.1271 36.658 25.1325 36.4735 25.1325C32.3546 25.1325 28.7872 22.3797 27.7987 18.4356C27.7763 18.3459 27.7557 18.2616 27.736 18.1728C27.3083 20.0708 26.3523 21.8085 24.9789 23.1845C23.6055 24.5604 21.871 25.5182 19.9763 25.9469C21.8716 26.376 23.6067 27.3346 24.9802 28.7116C26.3536 30.0886 27.3092 31.8274 27.736 33.7264C27.7557 33.6367 27.7763 33.547 27.7987 33.4636C28.7837 29.5169 32.3546 26.7668 36.4726 26.7668C36.658 26.7668 36.8451 26.773 37.0305 26.7847L47.2535 27.4126C47.798 27.4459 48.3284 27.5994 48.8069 27.862C49.2853 28.1246 49.6998 28.4899 50.0209 28.9317C50.342 29.3735 50.5617 29.8809 50.6642 30.4176C50.7667 30.9544 50.7496 31.5072 50.614 32.0365C49.268 37.2863 46.2159 41.9379 41.939 45.2579C37.662 48.5779 32.4036 50.3773 26.9928 50.3725H26.9149Z" fill="#E860ED"/>
<path d="M26.8155 50.2882C20.3004 50.2676 14.1901 47.722 9.6118 43.1214C5.03352 38.5208 2.51291 32.3917 2.51291 25.8644C2.51329 21.2823 3.80039 16.7926 6.22717 12.9084C8.65394 9.02425 12.1225 5.90226 16.2365 3.89917C20.3505 1.89607 24.9441 1.09266 29.4923 1.58074C34.0405 2.06881 38.36 3.82869 41.9571 6.65928C46.1653 9.98189 49.1711 14.594 50.5146 19.7901C50.649 20.3188 50.6652 20.8707 50.5621 21.4064C50.459 21.9421 50.2391 22.4484 49.9181 22.8892C49.5971 23.3299 49.1829 23.6942 48.7051 23.9561C48.2273 24.218 47.6977 24.371 47.1541 24.4042L36.9311 25.032C36.7466 25.0428 36.5595 25.0491 36.3741 25.0491C32.2552 25.0491 28.6887 22.2954 27.6993 18.3523C27.6778 18.2626 27.6572 18.1729 27.6375 18.0894C27.2093 19.9873 26.253 21.7247 24.8795 23.1004C23.506 24.4762 21.7715 25.4339 19.8769 25.8626C21.7716 26.2915 23.5062 27.2493 24.8797 28.6252C26.2532 30.0011 27.2094 31.7388 27.6375 33.6367C27.6572 33.5488 27.6778 33.4609 27.6993 33.373C28.6887 29.4326 32.2579 26.6789 36.3768 26.6789C36.5613 26.6789 36.7493 26.6843 36.9338 26.6959L47.1568 27.3238C47.7013 27.3576 48.2316 27.5114 48.7098 27.7744C49.188 28.0374 49.6023 28.403 49.9231 28.8451C50.2438 29.2871 50.4631 29.7947 50.5652 30.3316C50.6673 30.8684 50.6497 31.4212 50.5137 31.9504C49.1679 37.2001 46.1161 41.8517 41.8395 45.172C37.563 48.4922 32.3049 50.2922 26.8943 50.2882H26.8155Z" fill="#E860ED"/>
<path d="M26.717 50.203C20.201 50.1824 14.0916 47.6377 9.5133 43.0362C4.93502 38.4347 2.41351 32.3066 2.41351 25.7793C2.41393 21.197 3.70111 16.7073 6.128 12.8231C8.55488 8.9389 12.0236 5.81693 16.1377 3.81391C20.2519 1.8109 24.8455 1.00762 29.3938 1.49587C33.9421 1.98413 38.2615 3.74422 41.8586 6.57502C46.0663 9.89754 49.0718 14.5093 50.4152 19.705C50.5498 20.2337 50.5661 20.7856 50.4631 21.3214C50.36 21.8572 50.1401 22.3635 49.8191 22.8043C49.4981 23.2451 49.0838 23.6094 48.6059 23.8713C48.1281 24.1331 47.5984 24.286 47.0547 24.319L36.8326 24.9469C36.6472 24.9585 36.4601 24.9639 36.2747 24.9639C32.1558 24.9639 28.5893 22.2111 27.6008 18.2671C27.5784 18.1774 27.5578 18.0922 27.5381 18.0043C27.1102 19.9024 26.1541 21.6401 24.7805 23.016C23.407 24.392 21.6723 25.3498 19.7775 25.7784C21.6722 26.2068 23.4069 27.1645 24.7805 28.5403C26.154 29.916 27.1102 31.6536 27.5381 33.5516C27.5578 33.4619 27.5784 33.3722 27.6008 33.2888C28.5857 29.3421 32.1567 26.5919 36.2747 26.5919C36.4601 26.5919 36.6472 26.5982 36.8326 26.6099L47.0547 27.2378C47.5993 27.2714 48.1297 27.4252 48.608 27.6881C49.0863 27.951 49.5008 28.3166 49.8216 28.7587C50.1424 29.2008 50.3618 29.7084 50.4639 30.2453C50.5661 30.7822 50.5485 31.3351 50.4125 31.8644C49.0671 37.1138 46.0158 41.7654 41.7398 45.0858C37.4637 48.4062 32.2061 50.2066 26.7958 50.203H26.717Z" fill="#E860ED"/>
<path d="M26.6167 50.1186C20.1007 50.098 13.9913 47.5524 9.413 42.9518C4.83472 38.3512 2.315 32.2222 2.315 25.6949C2.31538 21.1127 3.60249 16.623 6.02926 12.7389C8.45603 8.8547 11.9246 5.73271 16.0386 3.72961C20.1526 1.72651 24.7462 0.923106 29.2944 1.41118C33.8426 1.89926 38.162 3.65913 41.7592 6.48973C45.9671 9.81261 48.9728 14.4246 50.3167 19.6206C50.4511 20.1493 50.4673 20.7012 50.3642 21.2369C50.2611 21.7726 50.0412 22.2789 49.7202 22.7196C49.3992 23.1604 48.985 23.5247 48.5072 23.7866C48.0294 24.0484 47.4998 24.2014 46.9562 24.2346L36.7332 24.8625C36.5487 24.8741 36.3607 24.8804 36.1762 24.8804C32.0573 24.8804 28.4899 22.1267 27.5014 18.1836C27.4799 18.0939 27.4584 18.0087 27.4387 17.9208C27.0108 19.8186 26.0548 21.5561 24.6814 22.9319C23.308 24.3077 21.5735 25.2654 19.679 25.694C21.5736 26.1229 23.308 27.0808 24.6814 28.4567C26.0548 29.8326 27.0108 31.5702 27.4387 33.4681C27.4584 33.3784 27.479 33.2887 27.5014 33.2044C28.4863 29.2622 32.0573 26.5084 36.1753 26.5084C36.3607 26.5084 36.5478 26.5138 36.7332 26.5255L46.9562 27.1534C47.5007 27.1871 48.031 27.341 48.5092 27.604C48.9874 27.867 49.4017 28.2326 49.7225 28.6746C50.0432 29.1167 50.2625 29.6243 50.3646 30.1611C50.4667 30.6979 50.4491 31.2507 50.3131 31.78C48.9675 37.0295 45.9161 41.6811 41.6399 45.0015C37.3637 48.3219 32.1059 50.1222 26.6955 50.1186H26.6167Z" fill="#E860ED"/>
<path d="M26.5182 50.0335C20.0032 50.0129 13.8928 47.4682 9.31542 42.8667C4.73804 38.2652 2.21564 32.1371 2.21564 25.6098C2.21618 21.0276 3.50341 16.5381 5.93025 12.6541C8.35709 8.77003 11.8257 5.64817 15.9397 3.64519C20.0536 1.6422 24.6471 0.838868 29.1953 1.32698C33.7434 1.81509 38.0627 3.57495 41.6598 6.4055C45.8675 9.72801 48.873 14.3398 50.2164 19.5354C50.351 20.0644 50.3673 20.6165 50.2641 21.1525C50.1609 21.6885 49.9408 22.195 49.6194 22.6358C49.2981 23.0766 48.8835 23.4409 48.4053 23.7026C47.9272 23.9642 47.3972 24.1168 46.8532 24.1495L36.6302 24.7774C36.4458 24.789 36.2586 24.7944 36.0733 24.7944C31.9543 24.7944 28.3879 22.0407 27.3984 18.0976C27.3769 18.0079 27.3564 17.9227 27.3367 17.8348C26.9085 19.7327 25.9522 21.4703 24.5787 22.8462C23.2052 24.222 21.4707 25.1799 19.576 25.6089C21.4708 26.0373 23.2054 26.9949 24.579 28.3707C25.9526 29.7465 26.9087 31.4841 27.3367 33.3821C27.3564 33.2924 27.3769 33.2027 27.3984 33.1192C28.3879 29.1725 31.9543 26.4224 36.0733 26.4224C36.2577 26.4224 36.4458 26.4287 36.6302 26.4395L46.8532 27.0673C47.3978 27.101 47.9282 27.2548 48.4066 27.5177C48.8849 27.7806 49.2993 28.1462 49.6201 28.5883C49.941 29.0303 50.1603 29.538 50.2625 30.0749C50.3646 30.6118 50.3471 31.1646 50.2111 31.6939C48.8659 36.9431 45.8151 41.5946 41.5396 44.9151C37.2641 48.2357 32.007 50.0364 26.597 50.0335H26.5182Z" fill="#E860ED"/>
<path d="M26.4197 49.9492C19.9037 49.9286 13.7943 47.383 9.216 42.7824C4.63771 38.1818 2.11621 32.0527 2.11621 25.5254C2.1168 20.9432 3.40408 16.4536 5.83097 12.5695C8.25785 8.68541 11.7265 5.56348 15.8405 3.56042C19.9546 1.55735 24.5481 0.75394 29.0964 1.24197C33.6446 1.73 37.9641 3.4898 41.5613 6.32029C45.7693 9.64295 48.7748 14.2551 50.1179 19.4511C50.2523 19.9798 50.2685 20.5317 50.1654 21.0674C50.0623 21.6032 49.8424 22.1095 49.5214 22.5502C49.2004 22.9909 48.7862 23.3553 48.3084 23.6171C47.8306 23.879 47.301 24.032 46.7574 24.0652L36.5353 24.6931C36.3508 24.7047 36.1628 24.711 35.9774 24.711C31.8585 24.711 28.292 21.9573 27.3035 18.0142C27.2811 17.9245 27.2605 17.8348 27.2408 17.7514C26.8129 19.6493 25.8567 21.3869 24.4832 22.7627C23.1096 24.1385 21.3749 25.0961 19.4802 25.5245C21.3756 25.9528 23.111 26.9105 24.485 28.2867C25.8591 29.6628 26.8156 31.401 27.2435 33.2995C27.2632 33.2098 27.2838 33.1201 27.3062 33.0358C28.2911 29.0936 31.8621 26.3399 35.9801 26.3399C36.1655 26.3399 36.3526 26.3453 36.538 26.3569L46.7601 26.9848C47.3047 27.0185 47.8351 27.1722 48.3134 27.4352C48.7917 27.6981 49.2061 28.0637 49.527 28.5058C49.8478 28.9478 50.0672 29.4555 50.1693 29.9924C50.2715 30.5293 50.2539 31.0821 50.1179 31.6114C48.7719 36.8612 45.7199 41.5128 41.4432 44.8331C37.1665 48.1533 31.9083 49.9533 26.4976 49.9492H26.4197Z" fill="#E860ED"/>
<path d="M26.3203 49.8639C19.8053 49.8433 13.6949 47.2986 9.11662 42.6971C4.53834 38.0956 2.01773 31.9675 2.01773 25.4402C2.01793 20.8579 3.30495 16.3681 5.73172 12.4839C8.15849 8.59964 11.6271 5.47761 15.7412 3.47456C19.8554 1.47151 24.449 0.668241 28.9973 1.15654C33.5455 1.64484 37.8649 3.40501 41.4619 6.23591C45.6696 9.55861 48.6753 14.1703 50.0194 19.3658C50.154 19.8946 50.1703 20.4465 50.0673 20.9823C49.9642 21.5181 49.7443 22.0244 49.4233 22.4652C49.1023 22.906 48.688 23.2703 48.2102 23.5322C47.7323 23.794 47.2026 23.9469 46.6589 23.9799L36.4359 24.6078C36.2514 24.6194 36.0634 24.6248 35.8789 24.6248C31.76 24.6248 28.1927 21.8711 27.2041 17.928C27.1826 17.8383 27.1611 17.7531 27.1414 17.6652C26.7135 19.5631 25.7575 21.3007 24.3841 22.6766C23.0108 24.0525 21.2763 25.0104 19.3817 25.4393C21.2763 25.8679 23.0108 26.8256 24.3841 28.2014C25.7575 29.5771 26.7136 31.3146 27.1414 33.2125C27.1611 33.1228 27.1826 33.0331 27.2041 32.9497C28.1891 29.003 31.76 26.2528 35.878 26.2528C36.0634 26.2528 36.2514 26.2591 36.4359 26.2699L46.6589 26.8978C47.2034 26.9315 47.7337 27.0854 48.2119 27.3484C48.6902 27.6114 49.1045 27.977 49.4252 28.419C49.746 28.8611 49.9652 29.3687 50.0673 29.9055C50.1694 30.4423 50.1518 30.9951 50.0158 31.5244C48.6707 36.7742 45.6194 41.4262 41.3431 44.7468C37.0669 48.0675 31.8089 49.8678 26.3982 49.8639H26.3203Z" fill="#E860ED"/>
<path d="M26.2209 49.7824C19.7059 49.7617 13.5955 47.2161 9.01812 42.6155C4.44073 38.0149 1.91833 31.8832 1.91833 25.3559C1.91892 20.7737 3.2062 16.2841 5.63309 12.4C8.05998 8.51586 11.5286 5.39392 15.6426 3.39086C19.7567 1.3878 24.3503 0.584384 28.8985 1.07242C33.4467 1.56045 37.7662 3.32024 41.3634 6.15074C45.572 9.47432 48.5776 14.0878 49.92 19.2852C50.0544 19.8139 50.0706 20.3658 49.9675 20.9015C49.8644 21.4372 49.6445 21.9435 49.3235 22.3842C49.0025 22.825 48.5883 23.1893 48.1105 23.4512C47.6327 23.713 47.1031 23.866 46.5595 23.8992L36.3365 24.5271C36.152 24.5387 35.9649 24.545 35.7795 24.545C31.6606 24.545 28.0942 21.7913 27.1047 17.8482C27.0832 17.7585 27.0626 17.6733 27.0429 17.5854C26.6148 19.4833 25.6586 21.2207 24.285 22.5965C22.9115 23.9722 21.1769 24.9299 19.2823 25.3586C21.1771 25.7872 22.9118 26.745 24.2854 28.1209C25.6589 29.4969 26.615 31.2346 27.0429 33.1327C27.0626 33.043 27.0832 32.9533 27.1047 32.869C28.0942 28.9223 31.6606 26.173 35.7795 26.173C35.964 26.173 36.152 26.1784 36.3374 26.1901L46.5595 26.818C47.1041 26.8516 47.6345 27.0054 48.1128 27.2683C48.5912 27.5312 49.0056 27.8968 49.3264 28.3389C49.6473 28.781 49.8666 29.2886 49.9688 29.8255C50.0709 30.3624 50.0534 30.9153 49.9173 31.4446C48.5713 36.6938 45.5197 41.345 41.2436 44.6652C36.9675 47.9854 31.71 49.7857 26.2997 49.7824H26.2209Z" fill="#E860ED"/>
<path d="M26.1224 49.6926C19.6065 49.6719 13.497 47.1272 8.91873 42.5257C4.34044 37.9243 1.81894 31.7979 1.81894 25.2706C1.81935 20.6883 3.10654 16.1986 5.53343 12.3144C7.96031 8.43023 11.429 5.30826 15.5432 3.30525C19.6573 1.30223 24.251 0.498953 28.7992 0.987206C33.3475 1.47546 37.667 3.23555 41.264 6.06636C45.4716 9.38882 48.4772 14.0001 49.8215 19.1954C49.9558 19.7241 49.9719 20.2759 49.8687 20.8116C49.7655 21.3472 49.5456 21.8535 49.2246 22.2942C48.9036 22.7349 48.4895 23.0992 48.0118 23.3611C47.5341 23.623 47.0046 23.7761 46.461 23.8094L36.238 24.4373C36.0535 24.449 35.8655 24.4544 35.6802 24.4544C31.5612 24.4544 27.9948 21.7006 27.0062 17.7575C26.9838 17.6678 26.9632 17.5826 26.9435 17.4947C26.5162 19.3931 25.5606 21.1312 24.1873 22.5076C22.8141 23.884 21.0795 24.8424 19.1847 25.2715C21.0794 25.7 22.8141 26.6576 24.1877 28.0334C25.5612 29.4092 26.5174 31.1467 26.9453 33.0447C26.965 32.955 26.9856 32.8653 27.008 32.7819C27.993 28.8352 31.5639 26.0851 35.6819 26.0851C35.8673 26.0851 36.0544 26.0913 36.2398 26.1021L46.4619 26.73C47.0065 26.7636 47.5369 26.9174 48.0152 27.1803C48.4936 27.4433 48.908 27.8088 49.2288 28.2509C49.5497 28.693 49.769 29.2006 49.8712 29.7375C49.9733 30.2744 49.9558 30.8273 49.8197 31.3566C48.4738 36.6061 45.422 41.2575 41.1454 44.5775C36.8688 47.8974 31.6108 49.697 26.2003 49.6926H26.1224Z" fill="#E860ED"/>
<path d="M26.0231 49.6101C19.508 49.5895 13.3976 47.0438 8.81934 42.4432C4.24106 37.8427 1.72403 31.7136 1.72403 25.1863C1.72493 20.6048 3.01221 16.1158 5.4388 12.2323C7.8654 8.34876 11.3335 5.22722 15.4469 3.22425C19.5602 1.22129 24.1531 0.417653 28.7007 0.905156C33.2484 1.39266 37.5675 3.15164 41.1646 5.98117C45.3712 9.3046 48.3756 13.9166 49.7186 19.112C49.853 19.6407 49.8692 20.1926 49.7661 20.7283C49.6629 21.264 49.443 21.7703 49.122 22.2111C48.801 22.6518 48.3869 23.0161 47.9091 23.278C47.4313 23.5399 46.9017 23.6929 46.358 23.726L36.135 24.3539C35.9506 24.3656 35.7634 24.3719 35.5781 24.3719C31.4591 24.3719 27.8927 21.6182 26.9032 17.675C26.8818 17.5854 26.8603 17.5001 26.8406 17.4113C26.4129 19.3093 25.4569 21.047 24.0835 22.423C22.7101 23.7989 20.9755 24.7568 19.0809 25.1854C20.9754 25.6143 22.7099 26.5722 24.0833 27.9481C25.4566 29.324 26.4127 31.0616 26.8406 32.9595C26.8603 32.8698 26.8818 32.7801 26.9032 32.6958C27.8882 28.7536 31.4591 25.9999 35.5772 25.9999C35.7625 25.9999 35.9506 26.0053 36.135 26.0169L46.358 26.6448C46.9031 26.678 47.4342 26.8315 47.9131 27.0945C48.392 27.3574 48.8069 27.7232 49.1281 28.1656C49.4492 28.6081 49.6687 29.1162 49.7708 29.6536C49.8729 30.191 49.8551 30.7444 49.7186 31.2741C48.3725 36.523 45.321 41.1739 41.045 44.4938C36.769 47.8136 31.5118 49.6136 26.1018 49.6101H26.0231Z" fill="#E860ED"/>
<path d="M25.9246 49.5249C19.4086 49.5043 13.2991 46.9596 8.72085 42.3581C4.14257 37.7566 1.62106 31.6285 1.62106 25.1012C1.62148 20.5189 2.90866 16.0292 5.33555 12.145C7.76243 8.2608 11.2311 5.13883 15.3453 3.13581C19.4594 1.13279 24.0531 0.329519 28.6014 0.817773C33.1496 1.30603 37.4691 3.06612 41.0661 5.89692C45.2739 9.21944 48.2793 13.8312 49.6228 19.0269C49.7573 19.5556 49.7737 20.1075 49.6706 20.6433C49.5676 21.1791 49.3477 21.6854 49.0266 22.1262C48.7056 22.567 48.2914 22.9313 47.8135 23.1932C47.3356 23.455 46.8059 23.6079 46.2622 23.6409L36.0401 24.2688C35.8548 24.2804 35.6676 24.2858 35.4823 24.2858C31.3633 24.2858 27.7969 21.5321 26.8074 17.589C26.786 17.4993 26.7654 17.4096 26.7457 17.3262C26.3176 19.2242 25.3614 20.9618 23.9879 22.3377C22.6143 23.7136 20.8797 24.6715 18.9851 25.1003C20.8798 25.5287 22.6145 26.4864 23.988 27.8622C25.3616 29.2379 26.3177 30.9755 26.7457 32.8735C26.7654 32.7838 26.786 32.6941 26.8074 32.6107C27.7969 28.664 31.3633 25.9138 35.4823 25.9138C35.6667 25.9138 35.8548 25.9201 36.0401 25.9309L46.2622 26.5588C46.8068 26.5924 47.3372 26.7462 47.8156 27.0091C48.2939 27.272 48.7083 27.6376 49.0292 28.0797C49.35 28.5218 49.5693 29.0294 49.6715 29.5663C49.7737 30.1032 49.7561 30.6561 49.6201 31.1854C48.2748 36.4352 45.2235 41.0871 40.9472 44.4077C36.671 47.7283 31.4131 49.5286 26.0025 49.5249H25.9246Z" fill="#E860ED"/>
<path d="M25.8252 49.4405C19.3092 49.4199 13.1997 46.8743 8.62145 42.2737C4.04317 37.6731 1.52167 31.5441 1.52167 25.0168C1.52226 20.4346 2.80953 15.945 5.23642 12.0608C7.66331 8.17674 11.1319 5.05481 15.246 3.05175C19.36 1.04868 23.9536 0.245273 28.5018 0.733305C33.05 1.22134 37.3695 2.98113 40.9667 5.81163C45.1747 9.13451 48.1804 13.7465 49.5243 18.9425C49.6586 19.4712 49.6749 20.0231 49.5718 20.5588C49.4686 21.0945 49.2487 21.6008 48.9277 22.0415C48.6067 22.4823 48.1925 22.8466 47.7148 23.1085C47.237 23.3703 46.7074 23.5233 46.1637 23.5565L35.9407 24.1844C35.7563 24.196 35.5682 24.2023 35.3829 24.2023C31.2639 24.2023 27.6975 21.4486 26.7089 17.5055C26.6866 17.4158 26.666 17.3306 26.6463 17.2418C26.2185 19.1398 25.2626 20.8775 23.8892 22.2534C22.5158 23.6294 20.7812 24.5872 18.8866 25.0159C20.7811 25.4448 22.5156 26.4027 23.889 27.7786C25.2623 29.1545 26.2183 30.8921 26.6463 32.79C26.666 32.7003 26.6866 32.6106 26.7089 32.5263C27.6939 28.5841 31.2648 25.8303 35.3829 25.8303C35.5682 25.8303 35.7554 25.8357 35.9407 25.8474L46.1637 26.4753C46.7082 26.509 47.2386 26.6629 47.7168 26.9259C48.195 27.1889 48.6093 27.5545 48.93 27.9965C49.2508 28.4386 49.4701 28.9462 49.5722 29.483C49.6743 30.0198 49.6567 30.5726 49.5207 31.1019C48.175 36.3518 45.1231 41.0038 40.8464 44.3243C36.5696 47.6447 31.3113 49.4447 25.9004 49.4405H25.8252Z" fill="#E860ED"/>
<path d="M25.7258 49.3554C19.2107 49.3348 13.1004 46.79 8.52208 42.1885C3.9438 37.5871 1.42319 31.4589 1.42319 24.9361C1.42255 20.3535 2.70896 15.8631 5.1354 11.9782C7.56183 8.09329 11.0304 4.97059 15.1447 2.967C19.259 0.963403 23.853 0.159745 28.4016 0.647874C32.9503 1.136 37.2701 2.89623 40.8673 5.72737C45.0753 9.04988 48.081 13.6616 49.4249 18.8573C49.5594 19.386 49.5758 19.938 49.4727 20.4738C49.3697 21.0095 49.1498 21.5159 48.8288 21.9567C48.5077 22.3975 48.0935 22.7618 47.6156 23.0236C47.1377 23.2854 46.6081 23.4383 46.0644 23.4714L35.8414 24.0992C35.6569 24.1109 35.4698 24.1163 35.2844 24.1163C31.1655 24.1163 27.599 21.3626 26.6096 17.4195C26.5881 17.3298 26.5675 17.2445 26.5478 17.1566C26.1203 19.0555 25.1644 20.7941 23.7909 22.1709C22.4173 23.5478 20.6824 24.5066 18.7872 24.9361C20.6818 25.3648 22.4164 26.3225 23.7899 27.6982C25.1634 29.074 26.1197 30.8114 26.5478 32.7093C26.5675 32.6196 26.5881 32.5299 26.6096 32.4465C27.6017 28.4998 31.1655 25.7434 35.2844 25.7434C35.4689 25.7434 35.6569 25.7497 35.8414 25.7604L46.0644 26.3883C46.6089 26.4221 47.1392 26.5759 47.6174 26.8389C48.0956 27.1019 48.5099 27.4675 48.8307 27.9096C49.1514 28.3516 49.3707 28.8592 49.4728 29.3961C49.5749 29.9329 49.5573 30.4857 49.4213 31.0149C48.0765 36.2649 45.0255 40.917 40.7493 44.2379C36.4732 47.5587 31.2152 49.3591 25.8046 49.3554H25.7258Z" fill="#E860ED"/>
<path d="M25.6317 49.2711C19.1158 49.2505 13.0063 46.7049 8.42803 42.1043C3.84974 37.5037 1.32376 31.3746 1.32376 24.8465C1.32452 20.2643 2.61192 15.7748 5.03887 11.8908C7.46583 8.00687 10.9345 4.88507 15.0485 2.88212C19.1625 0.879164 23.756 0.0758294 28.3041 0.563896C32.8523 1.05196 37.1717 2.81175 40.7688 5.64219C44.9768 8.96485 47.9823 13.577 49.3255 18.773C49.4599 19.3017 49.4761 19.8536 49.373 20.3893C49.2698 20.9251 49.0499 21.4314 48.7289 21.8721C48.4079 22.3128 47.9937 22.6772 47.516 22.939C47.0382 23.2009 46.5086 23.3539 45.9649 23.3871L35.7428 24.015C35.5575 24.0266 35.3703 24.0329 35.185 24.0329C31.066 24.0329 27.4996 21.2792 26.511 17.3361C26.4887 17.2464 26.4681 17.1612 26.4484 17.0724C26.0206 18.9705 25.0645 20.7083 23.6909 22.0842C22.3173 23.4602 20.5826 24.4179 18.6878 24.8465C20.5825 25.2751 22.3172 26.2329 23.6908 27.6088C25.0643 28.9847 26.0205 30.7225 26.4484 32.6205C26.4681 32.5308 26.4887 32.4412 26.511 32.3568C27.496 28.4146 31.0669 25.6609 35.185 25.6609C35.3703 25.6609 35.5575 25.6663 35.7428 25.6779L45.9649 26.3058C46.5094 26.3395 47.0397 26.4933 47.518 26.7561C47.9962 27.019 48.4106 27.3845 48.7314 27.8265C49.0522 28.2684 49.2716 28.776 49.3738 29.3127C49.4761 29.8495 49.4586 30.4023 49.3228 30.9315C47.9772 36.1812 44.9258 40.8329 40.6496 44.1535C36.3734 47.474 31.1157 49.2745 25.7052 49.2711H25.6317Z" fill="#E860ED"/>
<path d="M25.5279 49.1858C19.0119 49.1652 12.9025 46.6204 8.32417 42.0189C3.74589 37.4175 1.22439 31.2893 1.22528 24.762C1.22615 20.1801 2.51366 15.6908 4.9407 11.807C7.36773 7.92333 10.8364 4.80183 14.9504 2.79922C19.0644 0.796604 23.6578 -0.00635886 28.2057 0.482074C32.7537 0.970507 37.0727 2.73064 40.6694 5.56135C44.8774 8.88387 47.8831 13.4956 49.227 18.6913C49.3609 19.2196 49.3768 19.7711 49.2736 20.3063C49.1703 20.8415 48.9505 21.3473 48.6297 21.7876C48.3089 22.2279 47.8951 22.5919 47.4178 22.8536C46.9405 23.1154 46.4114 23.2684 45.8682 23.3017L35.6452 23.9296C35.4608 23.9413 35.2727 23.9467 35.0883 23.9467C30.9693 23.9467 27.402 21.193 26.4135 17.2498C26.392 17.1602 26.3705 17.0705 26.3508 16.987C25.9228 18.8849 24.9667 20.6224 23.5933 21.9983C22.22 23.3742 20.4856 24.3321 18.5911 24.7611C20.4853 25.1903 22.2194 26.1485 23.5923 27.5246C24.9652 28.9006 25.9207 30.6383 26.3481 32.5361C26.3678 32.4464 26.3884 32.3567 26.4108 32.2733C27.3957 28.3266 30.9667 25.5765 35.0847 25.5765C35.2701 25.5765 35.4572 25.5828 35.6425 25.5935L45.8656 26.2214C46.4101 26.2552 46.9404 26.409 47.4186 26.672C47.8968 26.935 48.3111 27.3006 48.6319 27.7427C48.9526 28.1847 49.1719 28.6923 49.274 29.2291C49.3761 29.766 49.3585 30.3188 49.2225 30.848C47.877 36.0974 44.8258 40.7489 40.5497 44.0691C36.2736 47.3894 31.016 49.1895 25.6058 49.1858H25.5279Z" fill="#E860ED"/>
<path d="M25.4285 49.1016C18.9134 49.0809 12.8031 46.5353 8.22478 41.9347C3.64649 37.3341 1.12589 31.2051 1.12589 24.6778C1.12589 21.4705 1.75653 18.2945 2.98183 15.3314C4.20712 12.3682 6.00305 9.67578 8.26709 7.4079C10.5311 5.14002 13.2189 3.34106 16.177 2.11375C19.1351 0.886437 22.3055 0.254808 25.5073 0.254926C30.9731 0.234703 36.2839 2.07402 40.57 5.47174C44.7787 8.79431 47.7846 13.4069 49.1276 18.6035C49.262 19.1322 49.2782 19.6841 49.1751 20.2198C49.072 20.7555 48.8521 21.2618 48.5311 21.7025C48.21 22.1433 47.7959 22.5076 47.3181 22.7695C46.8403 23.0314 46.3107 23.1843 45.7671 23.2175L35.5441 23.8454C35.3596 23.8571 35.1725 23.8633 34.9871 23.8633C30.8682 23.8633 27.3017 21.1096 26.3123 17.1665C26.2908 17.0798 26.2702 16.9919 26.2505 16.9028C25.8224 18.8008 24.8662 20.5384 23.4927 21.9143C22.1192 23.2902 20.3846 24.2481 18.4899 24.6769C20.3847 25.1055 22.1194 26.0633 23.4929 27.4393C24.8665 28.8152 25.8226 30.5529 26.2505 32.451C26.2702 32.3613 26.2908 32.2716 26.3123 32.1873C27.2972 28.2406 30.8682 25.4913 34.9871 25.4913C35.1716 25.4913 35.3596 25.4967 35.5441 25.5084L45.7671 26.1363C46.312 26.17 46.8427 26.3239 47.3213 26.5871C47.7998 26.8503 48.2144 27.2162 48.5353 27.6587C48.8561 28.1011 49.0754 28.6092 49.1773 29.1465C49.2793 29.6837 49.2614 30.2369 49.1249 30.7665C47.7785 36.0153 44.7267 40.666 40.4506 43.9857C36.1745 47.3053 30.9172 49.1052 25.5073 49.1016H25.4285Z" fill="#E860ED"/>
<path d="M25.33 49.0163C18.814 48.9956 12.7046 46.4509 8.12628 41.8494C3.54799 37.2479 1.02649 31.1198 1.02649 24.5925C1.0269 20.0102 2.31409 15.5205 4.74098 11.6363C7.16786 7.75213 10.6366 4.63016 14.7507 2.62715C18.8648 0.624128 23.4585 -0.179148 28.0068 0.309106C32.5551 0.79736 36.8745 2.55745 40.4715 5.38826C44.6795 8.71059 47.685 13.3224 49.0282 18.5182C49.1627 19.0469 49.1791 19.5989 49.076 20.1346C48.973 20.6704 48.7531 21.1768 48.4321 21.6176C48.111 22.0583 47.6968 22.4227 47.2189 22.6845C46.741 22.9463 46.2114 23.0992 45.6677 23.1322L35.4456 23.7601C35.2602 23.7718 35.0731 23.7772 34.8877 23.7772C30.7688 23.7772 27.2023 21.0234 26.2138 17.0803C26.1914 16.9906 26.1708 16.9054 26.1511 16.8175C25.723 18.7155 24.7668 20.4531 23.3933 21.829C22.0198 23.2049 20.2852 24.1628 18.3905 24.5916C20.2852 25.0201 22.0199 25.9777 23.3934 27.3535C24.767 28.7293 25.7232 30.4669 26.1511 32.3648C26.1708 32.2751 26.1914 32.1854 26.2138 32.102C27.1987 28.1553 30.7697 25.4052 34.8877 25.4052C35.0731 25.4052 35.2602 25.4115 35.4456 25.4222L45.6677 26.0501C46.2122 26.0837 46.7427 26.2375 47.221 26.5004C47.6993 26.7634 48.1137 27.129 48.4346 27.571C48.7554 28.0131 48.9748 28.5207 49.0769 29.0576C49.1791 29.5945 49.1615 30.1474 49.0255 30.6767C47.6802 35.9265 44.6289 40.5784 40.3526 43.899C36.0764 47.2196 30.8185 49.02 25.4079 49.0163H25.33Z" fill="#E860ED"/>
<path d="M25.2306 48.9319C18.7146 48.9113 12.6052 46.3657 8.0269 41.7651C3.44862 37.1645 0.928009 31.0355 0.928009 24.5082C0.929196 18.0316 3.49837 11.8207 8.07048 7.24149C12.6426 2.66228 18.8432 0.0897814 25.3085 0.0897815C30.7742 0.0685483 36.0852 1.90657 40.3722 5.30301C44.5801 8.62589 47.5858 13.2379 48.9297 18.4338C49.0649 18.9628 49.0817 19.5152 48.9789 20.0515C48.8762 20.5878 48.6564 21.0947 48.3353 21.5359C48.0142 21.9772 47.5998 22.342 47.1216 22.6041C46.6434 22.8663 46.1133 23.0193 45.5692 23.0524L35.3462 23.6803C35.1617 23.6919 34.9737 23.6982 34.7892 23.6982C30.6703 23.6982 27.1029 20.9445 26.1144 17.0014C26.0929 16.9117 26.0714 16.8265 26.0517 16.7377C25.6232 18.6353 24.6666 20.3725 23.2927 21.7478C21.9188 23.1231 20.184 24.0802 18.2893 24.5082C20.184 24.9368 21.9185 25.8947 23.2919 27.2706C24.6653 28.6466 25.6213 30.3843 26.049 32.2823C26.0687 32.1926 26.0902 32.1029 26.1117 32.0185C27.0967 28.0763 30.6676 25.3226 34.7856 25.3226C34.971 25.3226 35.159 25.328 35.3435 25.3397L45.5665 25.9675C46.1109 26.0013 46.6411 26.1552 47.1193 26.4181C47.5974 26.681 48.0117 27.0466 48.3324 27.4885C48.6531 27.9305 48.8724 28.4379 48.9746 28.9746C49.0768 29.5114 49.0593 30.0641 48.9234 30.5932C47.5779 35.8423 44.5269 40.4936 40.2513 43.814C35.9756 47.1343 30.7185 48.9349 25.3085 48.9319H25.2306Z" fill="#E860ED"/>
<path d="M25.1312 48.8468C18.6161 48.8261 12.5058 46.2814 7.9284 41.6799C3.35101 37.0785 0.828613 30.9503 0.828613 24.423C0.828613 21.2157 1.45926 18.0398 2.68455 15.0766C3.90985 12.1134 5.70578 9.42101 7.96981 7.15313C10.2338 4.88524 12.9216 3.08629 15.8797 1.85898C18.8378 0.631665 22.0082 3.54469e-05 25.21 0.000153242C30.6763 -0.0193355 35.9873 1.82059 40.2737 5.21876C44.4816 8.54109 47.4871 13.1529 48.8303 18.3487C48.9649 18.8774 48.9812 19.4294 48.8782 19.9651C48.7751 20.5009 48.5552 21.0073 48.2342 21.4481C47.9132 21.8889 47.4989 22.2532 47.021 22.515C46.5432 22.7768 46.0135 22.9297 45.4698 22.9627L35.2468 23.5906C35.0623 23.6023 34.8752 23.6077 34.6898 23.6077C30.5709 23.6077 27.0044 20.854 26.015 16.9108C25.9935 16.8211 25.9729 16.7314 25.9532 16.648C25.525 18.546 24.5688 20.2835 23.1953 21.6594C21.8218 23.0353 20.0872 23.9932 18.1926 24.4221C20.0881 24.8511 21.8234 25.8096 23.197 27.1866C24.5706 28.5636 25.5263 30.3025 25.9532 32.2016C25.9729 32.1119 25.9935 32.0222 26.015 31.9388C27.0044 27.9921 30.5709 25.242 34.6898 25.242C34.8743 25.242 35.0623 25.2482 35.2468 25.259L45.4698 25.8869C46.0144 25.9205 46.5448 26.0743 47.0231 26.3372C47.5015 26.6002 47.9159 26.9657 48.2367 27.4078C48.5575 27.8499 48.7769 28.3575 48.879 28.8944C48.9812 29.4313 48.9636 29.9842 48.8276 30.5135C47.481 35.762 44.4291 40.4124 40.153 43.7318C35.8769 47.0511 30.6197 48.8507 25.21 48.8468H25.1312Z" fill="#E860ED"/>
<path d="M35.1644 26.5981L45.3874 27.226C45.7344 27.2478 46.0723 27.3461 46.3769 27.5138C46.6816 27.6816 46.9455 27.9146 47.1499 28.1964C47.3542 28.4781 47.4939 28.8016 47.559 29.1436C47.6242 29.4857 47.6131 29.838 47.5266 30.1753C44.9675 40.1613 35.9085 47.5398 25.1357 47.5013C22.1147 47.4979 19.1241 46.8981 16.3346 45.7361C13.5452 44.5742 11.0117 42.873 8.87904 40.7297C6.74635 38.5864 5.05625 36.043 3.90537 33.245C2.75449 30.447 2.16539 27.4492 2.17174 24.423C2.17174 11.6778 12.487 1.34558 25.21 1.34558C35.9551 1.34558 44.9809 8.71424 47.5293 18.6823C47.6142 19.0189 47.6239 19.3701 47.5578 19.711C47.4918 20.0518 47.3514 20.3738 47.1469 20.654C46.9424 20.9343 46.6786 21.1659 46.3745 21.3324C46.0704 21.4989 45.7334 21.5962 45.3874 21.6172L35.1644 22.2451C31.5371 22.4685 28.2034 20.1121 27.3178 16.5807C27.2972 16.4973 27.2775 16.413 27.2587 16.3287L26.3239 12.0851C26.3056 12.0001 26.2588 11.9239 26.1913 11.8693C26.1238 11.8146 26.0396 11.7848 25.9528 11.7848C25.866 11.7848 25.7818 11.8146 25.7142 11.8693C25.6467 11.9239 25.5999 12.0001 25.5816 12.0851L24.6468 16.3332C24.281 17.9926 23.4492 19.5128 22.2496 20.7144C21.0499 21.916 19.5323 22.749 17.8756 23.1152L13.6394 24.0516C13.5545 24.0699 13.4785 24.1168 13.4239 24.1845C13.3694 24.2521 13.3396 24.3365 13.3396 24.4234C13.3396 24.5104 13.3694 24.5947 13.4239 24.6624C13.4785 24.73 13.5545 24.7769 13.6394 24.7952L17.8756 25.7317C19.5323 26.0979 21.0499 26.9309 22.2496 28.1325C23.4492 29.3341 24.281 30.8542 24.6468 32.5137L25.5807 36.7582C25.599 36.8432 25.6458 36.9194 25.7133 36.974C25.7809 37.0287 25.8651 37.0585 25.9519 37.0585C26.0387 37.0585 26.1229 37.0287 26.1904 36.974C26.2579 36.9194 26.3047 36.8432 26.323 36.7582L27.2578 32.5137C27.2766 32.4294 27.2963 32.346 27.3169 32.2617C28.2034 28.7303 31.5415 26.3712 35.1644 26.5981Z" fill="#F4F4F4"/>
</svg>
