<svg width="40" height="40" viewBox="0 0 40 40" fill="none" xmlns="http://www.w3.org/2000/svg">
<path d="M20 35C28.2843 35 35 28.2843 35 20C35 11.7157 28.2843 5 20 5C11.7157 5 5 11.7157 5 20C5 28.2843 11.7157 35 20 35Z" stroke="#222226" stroke-width="2" stroke-linecap="round" stroke-linejoin="round"/>
<path d="M11.0938 32.0781C13.3206 28.3928 16.4611 25.3447 20.2112 23.2288C23.9613 21.1128 28.1941 20.0007 32.5 20C33.3438 20 34.1719 20.0469 35 20.125" stroke="#222226" stroke-width="2" stroke-linecap="round" stroke-linejoin="round"/>
<path d="M29.375 8.29688C27.0322 11.1741 24.0776 13.493 20.7261 15.085C17.3746 16.6769 13.7104 17.5019 10 17.5C8.42222 17.4982 6.84792 17.3518 5.29688 17.0625" stroke="#222226" stroke-width="2" stroke-linecap="round" stroke-linejoin="round"/>
<path d="M13.4219 6.51562C18.0727 9.25721 21.7146 13.4264 23.8062 18.4035C25.8978 23.3806 26.3275 28.8998 25.0312 34.1406" stroke="#222226" stroke-width="2" stroke-linecap="round" stroke-linejoin="round"/>
</svg>
