<svg width="40" height="40" viewBox="0 0 40 40" fill="none" xmlns="http://www.w3.org/2000/svg">
<path d="M14.5781 5.76538C14.4768 5.70342 14.3952 5.61386 14.3429 5.5072C14.2907 5.40055 14.2699 5.2812 14.283 5.16315C14.2961 5.04509 14.3426 4.93322 14.417 4.84064C14.4914 4.74806 14.5907 4.67859 14.7031 4.64038C16.9805 3.85256 19.4049 3.58262 21.7997 3.85022C24.1946 4.11781 26.4996 4.91621 28.5469 6.18726C28.623 6.23272 28.6887 6.29388 28.7394 6.36666C28.7901 6.43944 28.8247 6.52218 28.841 6.60939C28.8572 6.69659 28.8547 6.78625 28.8337 6.87242C28.8126 6.95859 28.7734 7.03928 28.7188 7.10913C26.9021 9.41443 24.6842 11.3729 22.1719 12.8904C20.1386 10.0349 17.5572 7.61281 14.5781 5.76538ZM19.9375 14.0623C17.6498 10.954 14.649 8.4408 11.1875 6.73413C11.0853 6.68783 10.9731 6.66787 10.8612 6.67606C10.7493 6.68424 10.6413 6.72033 10.5469 6.78101C7.74615 8.79822 5.65223 11.6466 4.5625 14.9216C4.53672 15.0048 4.52858 15.0924 4.53861 15.1788C4.54863 15.2653 4.57661 15.3487 4.62073 15.4237C4.66486 15.4987 4.72417 15.5637 4.79486 15.6144C4.86555 15.6652 4.94607 15.7007 5.03125 15.7185C6.66404 16.0709 8.32962 16.2489 10 16.2498C13.4324 16.2541 16.8242 15.5075 19.9375 14.0623ZM36.1562 18.2341C35.7566 14.6098 34.1496 11.2253 31.5938 8.62476C31.5306 8.56329 31.4555 8.51551 31.3731 8.48438C31.2907 8.45326 31.2028 8.43946 31.1148 8.44386C31.0268 8.44826 30.9407 8.47076 30.8618 8.50995C30.7829 8.54914 30.7129 8.60418 30.6562 8.67163C28.6804 11.1932 26.2605 13.3325 23.5156 14.9841C24.3718 16.4698 25.0834 18.0343 25.6406 19.656C27.8768 19.0513 30.1835 18.7466 32.5 18.7498C33.492 18.7521 34.4831 18.8094 35.4688 18.9216C35.5614 18.9315 35.6552 18.9205 35.7431 18.8894C35.8309 18.8583 35.9108 18.808 35.9767 18.7421C36.0426 18.6762 36.0929 18.5963 36.124 18.5084C36.1551 18.4206 36.1661 18.3268 36.1562 18.2341ZM26.3281 22.0623C26.7872 24.0345 27.0179 26.0529 27.0156 28.0779C27.0145 30.0123 26.7996 31.9407 26.375 33.8279C26.3472 33.9439 26.3531 34.0655 26.3922 34.1783C26.4313 34.2911 26.5018 34.3903 26.5955 34.4642C26.6891 34.5382 26.802 34.5838 26.9208 34.5956C27.0395 34.6074 27.1592 34.585 27.2656 34.531C29.6366 33.3451 31.6817 31.5977 33.2231 29.4409C34.7645 27.2841 35.7553 24.7832 36.1094 22.156C36.1203 22.0738 36.1148 21.9903 36.0931 21.9103C36.0714 21.8303 36.0341 21.7554 35.9832 21.6899C35.9323 21.6245 35.8689 21.5698 35.7967 21.5291C35.7244 21.4884 35.6448 21.4625 35.5625 21.4529C34.5476 21.3142 33.5243 21.2463 32.5 21.2498C30.4159 21.2472 28.3406 21.5204 26.3281 22.0623ZM23.25 20.4373C22.7549 18.9566 22.1054 17.5321 21.3125 16.1873C17.7813 17.8783 13.9152 18.7541 10 18.7498C8.16705 18.7488 6.33929 18.555 4.54688 18.1716C4.46005 18.1536 4.37039 18.1543 4.28384 18.1736C4.1973 18.1929 4.11585 18.2304 4.04492 18.2836C3.97398 18.3368 3.91517 18.4045 3.87241 18.4822C3.82964 18.5599 3.80389 18.6457 3.79688 18.7341C3.76563 19.1508 3.75 19.5727 3.75 19.9998C3.74921 22.2246 4.20662 24.4258 5.09372 26.4661C5.98083 28.5065 7.27863 30.3423 8.90625 31.8591C8.97332 31.9235 9.05425 31.9718 9.14283 32.0001C9.23141 32.0284 9.32529 32.036 9.41729 32.0225C9.50928 32.0089 9.59695 31.9744 9.67358 31.9218C9.75021 31.8691 9.81376 31.7995 9.85938 31.7185C12.9081 26.543 17.6321 22.5632 23.25 20.4373ZM11.8281 33.3123C11.7864 33.3839 11.7594 33.4631 11.7486 33.5453C11.7379 33.6275 11.7436 33.711 11.7654 33.791C11.7872 33.871 11.8247 33.9458 11.8757 34.0112C11.9267 34.0765 11.9902 34.1311 12.0625 34.1716C14.4841 35.5392 17.219 36.2552 20 36.2498C20.9484 36.2539 21.8952 36.1702 22.8281 35.9998C22.9361 35.9818 23.037 35.9344 23.1198 35.8627C23.2025 35.791 23.2638 35.6979 23.2969 35.5935C24.1073 33.1708 24.5189 30.6326 24.5156 28.0779C24.5147 26.3172 24.3209 24.5619 23.9375 22.8435C18.8193 24.8401 14.5437 28.5365 11.8281 33.3123Z" fill="#E860ED"/>
</svg>
