<svg width="40" height="40" viewBox="0 0 40 40" fill="none" xmlns="http://www.w3.org/2000/svg">
<path d="M35 35C35 35.3315 34.8683 35.6494 34.6339 35.8838C34.3995 36.1183 34.0815 36.25 33.75 36.25C32.4252 36.2458 31.1558 35.7177 30.219 34.7809C29.2822 33.8441 28.7541 32.5748 28.75 31.25V30C28.75 29.3369 28.4866 28.701 28.0178 28.2322C27.5489 27.7633 26.913 27.5 26.25 27.5H24.375V33.75C24.375 34.413 24.6384 35.0489 25.1072 35.5177C25.5761 35.9866 26.212 36.25 26.875 36.25C27.2065 36.25 27.5245 36.3817 27.7589 36.6161C27.9933 36.8505 28.125 37.1684 28.125 37.5C28.125 37.8315 27.9933 38.1494 27.7589 38.3838C27.5245 38.6183 27.2065 38.75 26.875 38.75C25.5502 38.7458 24.2808 38.2177 23.344 37.2809C22.4072 36.3441 21.8791 35.0748 21.875 33.75V27.5H18.125V33.75C18.1209 35.0748 17.5928 36.3441 16.656 37.2809C15.7192 38.2177 14.4498 38.7458 13.125 38.75C12.7935 38.75 12.4755 38.6183 12.2411 38.3838C12.0067 38.1494 11.875 37.8315 11.875 37.5C11.875 37.1684 12.0067 36.8505 12.2411 36.6161C12.4755 36.3817 12.7935 36.25 13.125 36.25C13.788 36.25 14.4239 35.9866 14.8928 35.5177C15.3616 35.0489 15.625 34.413 15.625 33.75V27.5H13.75C13.087 27.5 12.4511 27.7633 11.9822 28.2322C11.5134 28.701 11.25 29.3369 11.25 30V31.25C11.2459 32.5748 10.7178 33.8441 9.78098 34.7809C8.84419 35.7177 7.57481 36.2458 6.25 36.25C5.91848 36.25 5.60054 36.1183 5.36612 35.8838C5.1317 35.6494 5 35.3315 5 35C5 34.6684 5.1317 34.3505 5.36612 34.1161C5.60054 33.8817 5.91848 33.75 6.25 33.75C6.91304 33.75 7.54893 33.4866 8.01777 33.0177C8.48661 32.5489 8.75 31.913 8.75 31.25V30C8.75103 29.1593 8.96334 28.3324 9.36742 27.5952C9.77149 26.8581 10.3544 26.2343 11.0625 25.7812C9.95822 24.9713 9.06025 23.9127 8.44131 22.6911C7.82238 21.4696 7.4999 20.1194 7.5 18.75V17.5C7.5156 15.9473 7.92988 14.4246 8.70312 13.0781C8.3222 11.8447 8.20052 10.5459 8.34572 9.2633C8.49092 7.98066 8.89988 6.74193 9.54688 5.62496C9.65371 5.43341 9.81026 5.27424 10 5.16424C10.1898 5.05424 10.4057 4.99748 10.625 4.99996C12.0811 4.99629 13.5178 5.33355 14.8201 5.98472C16.1225 6.6359 17.2543 7.58291 18.125 8.74996H21.875C22.7457 7.58291 23.8775 6.6359 25.1799 5.98472C26.4822 5.33355 27.9189 4.99629 29.375 4.99996C29.5943 4.99748 29.8102 5.05424 30 5.16424C30.1897 5.27424 30.3463 5.43341 30.4531 5.62496C31.1001 6.74193 31.5091 7.98066 31.6543 9.2633C31.7995 10.5459 31.6778 11.8447 31.2969 13.0781C32.0701 14.4246 32.4844 15.9473 32.5 17.5V18.75C32.5001 20.1194 32.1776 21.4696 31.5587 22.6911C30.9398 23.9127 30.0418 24.9713 28.9375 25.7812C29.6456 26.2343 30.2285 26.8581 30.6326 27.5952C31.0367 28.3324 31.249 29.1593 31.25 30V31.25C31.25 31.913 31.5134 32.5489 31.9822 33.0177C32.4511 33.4866 33.087 33.75 33.75 33.75C34.0815 33.75 34.3995 33.8817 34.6339 34.1161C34.8683 34.3505 35 34.6684 35 35Z" fill="#1F1916"/>
</svg>
