<svg width="40" height="40" viewBox="0 0 40 40" fill="none" xmlns="http://www.w3.org/2000/svg">
<path d="M13.125 37.5C13.618 37.5021 14.1066 37.4065 14.5625 37.2188C15.0184 37.031 15.4326 36.7549 15.7813 36.4063C16.1299 36.0576 16.406 35.6434 16.5938 35.1875C16.7815 34.7316 16.8771 34.243 16.875 33.75V26.25" stroke="#1F1916" stroke-width="2" stroke-linecap="round" stroke-linejoin="round"/>
<path d="M26.875 37.5C26.382 37.5021 25.8934 37.4065 25.4375 37.2188C24.9816 37.031 24.5674 36.7549 24.2188 36.4063C23.8701 36.0576 23.594 35.6434 23.4063 35.1875C23.2186 34.7316 23.123 34.243 23.125 33.75V26.25" stroke="#1F1916" stroke-width="2" stroke-linecap="round" stroke-linejoin="round"/>
<path d="M23.75 26.25H26.25C26.743 26.248 27.2316 26.3436 27.6875 26.5313C28.1434 26.719 28.5576 26.9951 28.9063 27.3438C29.2549 27.6924 29.531 28.1066 29.7188 28.5625C29.9065 29.0184 30.0021 29.507 30 30V31.25C29.9979 31.7431 30.0935 32.2316 30.2812 32.6875C30.469 33.1434 30.7451 33.5577 31.0937 33.9063C31.4424 34.2549 31.8566 34.5311 32.3125 34.7188C32.7684 34.9065 33.257 35.0021 33.75 35" stroke="#1F1916" stroke-width="2" stroke-linecap="round" stroke-linejoin="round"/>
<path d="M16.25 26.25H13.75C13.257 26.248 12.7684 26.3436 12.3125 26.5313C11.8566 26.719 11.4424 26.9951 11.0937 27.3438C10.7451 27.6924 10.469 28.1066 10.2812 28.5625C10.0935 29.0184 9.99793 29.507 10 30V31.25C10.0021 31.7431 9.90648 32.2316 9.71876 32.6875C9.53104 33.1434 9.25489 33.5577 8.90626 33.9063C8.55763 34.2549 8.14341 34.5311 7.6875 34.7188C7.2316 34.9065 6.74304 35.0021 6.25 35" stroke="#1F1916" stroke-width="2" stroke-linecap="round" stroke-linejoin="round"/>
<path d="M17.4688 10C16.7344 8.85079 15.7226 7.90492 14.5266 7.24957C13.3305 6.59422 11.9888 6.25047 10.625 6.25C10.0186 7.29965 9.65474 8.47169 9.56012 9.68022C9.46549 10.8887 9.64248 12.1031 10.0781 13.2344C9.22376 14.4938 8.76161 15.9781 8.75 17.5V18.75C8.75 20.7391 9.54018 22.6468 10.9467 24.0533C12.3532 25.4598 14.2609 26.25 16.25 26.25H23.75C25.7391 26.25 27.6468 25.4598 29.0533 24.0533C30.4598 22.6468 31.25 20.7391 31.25 18.75V17.5C31.2384 15.9781 30.7762 14.4938 29.9219 13.2344C30.3575 12.1031 30.5345 10.8887 30.4399 9.68022C30.3453 8.47169 29.9814 7.29965 29.375 6.25C28.0112 6.25047 26.6695 6.59422 25.4734 7.24957C24.2774 7.90492 23.2656 8.85079 22.5312 10H17.4688Z" stroke="#1F1916" stroke-width="2" stroke-linecap="round" stroke-linejoin="round"/>
</svg>
