<svg width="40" height="40" viewBox="0 0 40 40" fill="none" xmlns="http://www.w3.org/2000/svg">
<path d="M33.125 5.625H6.875C6.18464 5.625 5.625 6.18464 5.625 6.875V33.125C5.625 33.8154 6.18464 34.375 6.875 34.375H33.125C33.8154 34.375 34.375 33.8154 34.375 33.125V6.875C34.375 6.18464 33.8154 5.625 33.125 5.625Z" stroke="currentColor" stroke-width="2" stroke-linecap="round" stroke-linejoin="round"/>
<path d="M18.75 17.5V27.5" stroke="currentColor" stroke-width="2" stroke-linecap="round" stroke-linejoin="round"/>
<path d="M13.75 17.5V27.5" stroke="currentColor" stroke-width="2" stroke-linecap="round" stroke-linejoin="round"/>
<path d="M18.75 21.875C18.75 20.7147 19.2109 19.6019 20.0314 18.7814C20.8519 17.9609 21.9647 17.5 23.125 17.5C24.2853 17.5 25.3981 17.9609 26.2186 18.7814C27.0391 19.6019 27.5 20.7147 27.5 21.875V27.5" stroke="currentColor" stroke-width="2" stroke-linecap="round" stroke-linejoin="round"/>
<path d="M13.75 14.375C14.7855 14.375 15.625 13.5355 15.625 12.5C15.625 11.4645 14.7855 10.625 13.75 10.625C12.7145 10.625 11.875 11.4645 11.875 12.5C11.875 13.5355 12.7145 14.375 13.75 14.375Z" fill="currentColor"/>
</svg>
